<svg xmlns="http://www.w3.org/2000/svg" viewBox="0 0 476.89 161.21"><defs><style>.a{fill:#fff;}</style></defs><title>Artboard 1</title><path class="a" d="M180.57,107.85l-.4-8.11,1.9,1.54.36,7.63ZM178.92,70l1.68,1.51.32,7.48-1.64-1Zm1.34-28.26,1.46,1.41.27,7-1.42-1Zm4.2-1.29-6.62-8.56-1-1.1,1.1,88.5,9.26,2Z"/><path class="a" d="M166.18,109l0-8.06,2-.5.13,8.09ZM166,70.7l2-.47.13,7.68-2.11.44Zm1.12-28.83,2.08-.47.13,7.67-2.19.44Zm-5.25-5.13c-.24.69-.11.8.11.91.5.25.32.17.32.17l-3,83.09,17.11-1.64-.69-89S162.12,36,161.87,36.74"/><path class="a" d="M180.62,18.11A4.19,4.19,0,0,0,182,21a4.34,4.34,0,0,0-1.42-2.94m-15.54,3.44v-.65c0-.08,0-.12,0-.27s0-.42,0-.63c0-.62-.07-.64-.6-.36-.26.14-.52.25-.79.37l-.07-.13c.44-.22-.53.13-.09-.1-.59,0,.39,0-.2,0l-.05-.15,8.73-4s.18,0,.19,0c-.24.15.35-.16.11,0,0,0-.19.16-.17.21.56-.26.75-.34.07.14-.41,0-.29-.07-.62,0-.1,0,.19-.11,0-.14.46-.2.83-.37,1.19-.55.8-.4,1.6-.81,2.4-1.22.24-.12.44-.18.65.07a.57.57,0,0,0,.72.08.31.31,0,0,1,.46.15c.23.38.5.74.71,1.12s.28.67.46,1a1.68,1.68,0,0,0,.41.36h0c.32.55.63,1.11,1,1.66.23.38.49.76.76,1.12a4.5,4.5,0,0,0,.83.79c-1.35-2.09-3.1-4.69-4.49-6.85l-.39.47-.28-.5-.31.23c-.23-.08.34-.77-.14-.5.08-.07,0,.05,0,0s0-.06,0-.12v-.07c.22-.18-.12-.26.21-.05a1.19,1.19,0,0,0,.7.12c.28,0,.38.13.51.33q1.52,2.37,3,4.72c.1.15.22.29.33.43a1.48,1.48,0,0,0-.14-1.5,9.67,9.67,0,0,0-1.27-1.74.54.54,0,0,1-.08-.16l-.1.05v.57l0,0c0-.07-.11-.15-.1-.23a3.23,3.23,0,0,0-.88-2.49,4.5,4.5,0,0,0-.69-.89c0,.17-.16.48-.18.74-.1-.31-.15-.41-.26-.74l-.27.66-.09,0-.29-.86-.2.69h-.14c-.05-.2-.12-.4-.15-.6-.08-.56-.11-.59-.61-.35l-6.19,3c-1.43.69-2.86,1.4-4.31,2a2.25,2.25,0,0,0-1.1,1.25l-.11.22a7.42,7.42,0,0,1-.61-.78c-.06-.11,0-.3,0-.44.1-.34.14-.69.56-.87,1.08-.47,2.14-1,3.21-1.52l6.46-3.13c.87-.42,1.74-.82,2.6-1.24a.62.62,0,0,0,.28-.34c0-.07-.13-.19-.21-.3s-.15,0-.12,0a67.19,67.19,0,0,0-7.67,3.69l.2,0s0,.05,0,.06l-3,1.46c-.72.36-1.43.72-2.14,1.1-.11.06-.18.22-.25.34s-.14.28-.21.43c-.51-.31-.46-.49-.32-1.05.17-.74.83-.75,1.29-1,1.26-.67,2.58-1.23,3.87-1.86l6.52-3.18,2-1a1.54,1.54,0,0,0,.28-.14c.19,0,.24,0,.3,0s.2.06.23.13c.22.07.08.07.23.26s.11.18.17.28c1.34,2.13,3.09,4.14,4.43,6.27l2.54,4.08a.71.71,0,0,1-.23,1c-.25-.23-.19-.75-.69-.75a.94.94,0,0,0,0-.39c-.13-.25-.31-.47-.46-.71l-1.88-3c-.43-.67-.86-1.34-1.3-2l-.53-.78-.13.09,4.32,6.79c.22.34.66.31.85.61-.15.21-.5.76-.63.95l-.34.51-.1-.05-.32-1.15a3.34,3.34,0,0,0,0,1.31s0,.17-.06.19.06-.08,0,.17v.06c-.09.08,0,.06-.14.17s-.12.36-.1.56a4.43,4.43,0,0,0,0,.76,5,5,0,0,0,0,.66.39.39,0,0,0,0,.09c0,.11,0,.17,0,.25.11,3.4.23,6.8.34,10.25a2.75,2.75,0,0,1-.95-1.89c-.07-2.1-.12-4.19-.19-6.29,0-1.1-.09-2.19-.12-3.29a5.67,5.67,0,0,0-.22-2.21s-.57-.71-.61-.71c.1,3.44.26,8.45.36,12a2.82,2.82,0,0,1-1-1.89c-.05-1.43-.09-2.86-.13-4.29-.06-1.89-.12-5.15-.17-7a3.14,3.14,0,0,0-.86-1.68c.1,3.46.24,8.68.27,12.16a2.37,2.37,0,0,1-.91-1.63c-.06-2.34-.11-4.69-.18-7,0-1.06-.1-1.63-.14-2.69,0-.56,0-.85,0-.73a1.9,1.9,0,0,0,0-.21,2.5,2.5,0,0,0,0-.26c0-.16,0-.1,0-.17,0-.23,0-.2,0-.38,0-.38,0-.44,0-.66,0-.55.16-.4-.47-1l-.38-.37a1.14,1.14,0,0,0-.33-.2.39.39,0,0,0-.27-.09,1.75,1.75,0,0,0-.2,0c-.09,0-.21,0-.21,0a1.27,1.27,0,0,0-.73.13,1.25,1.25,0,0,0-1,1.51c.12,1.3.08,2.62.1,3.93s0,2.71,0,4.06c0,.91.07,1.81.08,2.72,0,.59.11,1.17.07,1.76,0,.06-.23.14-.29.17-.25.14-.51.25-.76.39s-.42,0-.44-.25,0-.71-.05-1.07,0-.94,0-1.41c0-.26-.05-1,0-1.26,0-.64,0-.7,0-1.34s0-1.16,0-1.69,0-1.37-.11-2.05-.06-1.42-.12-2.26,0-1.78-.23-1.67c0,0-.42.18-.46.15-.47.24-.39.2-.89.43a.57.57,0,0,0-.22.38c0,1.39,0,2.77,0,4.16,0,.88.05,1.75.06,2.63s0,1.72,0,2.58,0,1.64,0,2.46a10,10,0,0,1-.1,1.23c0,.2-1.34.74-1.48.6a.69.69,0,0,1-.14-.44c0-.35,0-.66-.07-1,0-.82,0-1.39-.08-2.07,0-.29-.09-.22-.06-.51s0-.79,0-1a12.48,12.48,0,0,0,0-1.66c0-.2,0-.52,0-.74-.1-1.11,0-2.27-.11-3.38,0-.6,0-1.21-.06-1.81,0-.4,0-.35-.39-.19a6.53,6.53,0,0,0-.64.29c-.49.13-.54.35-.53.8,0,1.14,0,2.29,0,3.43,0,.86,0,1.71,0,2.57s0,2,0,3c0,.83,0,1.67,0,2.5a7.1,7.1,0,0,1-.15,1.15c0,.08-.12.16-.2.2l-1.36.56c0-.58-.06-1.06-.06-1.55,0-.85,0-1.7,0-2.55,0-.61.09-1.22.09-1.84s-.08-1.42-.1-2.13,0-1.65,0-2.48a2.75,2.75,0,0,0,0-.46"/><path class="a" d="M190.17,132.78c-.5.21-.93-.07-1.38-.14,0,0-.06-.07-.09-.11-.13-.23-.3-.18-.46,0a3.86,3.86,0,0,0-.32.34l2.81.38-.56-.41m-30.71-3.14a4.13,4.13,0,0,0-.61.2c-.11,0-.22,0-.33,0a2.38,2.38,0,0,0-.31.12c0,.14-.08,0-.05.15-.24-.16-.19,0-.22,0s0,0-.18-.12c-.35-.18-.61-.1-.74.27s-.24.35-.52.27-1.05.84-1.33.64a5.83,5.83,0,0,1-.92-1.75c-.08-.17-.38-.24-.58-.36a1.21,1.21,0,0,1-.15-.14h0l1.64-.16,4.52-.36,7.82-.57,6.38-.48c1.13-.09,2.26-.2,3.38-.31l1.09-.12.33,0v.9l-11.22.93m12.31-1.7c.3,0,.63.1.83.15,1.26.23,1.61.33,2.87.55.62.13,1.4.78,2.39.53.09,0,5.06.72,5.15.72s.25-.36.36-.41.43-.74-2.58-1.12a16.29,16.29,0,0,1-2.62-.51c-.3.08-.5-.07-1.1-.21-.14-.19-.57,0-.89,0,0,0-.34-.11-.3-.18a2.09,2.09,0,0,1-.51-.21c-.4-.26-1.06.05-1.49-.12a10,10,0,0,0-1-.3c-.22-.07-.54,0-.76-.08a4,4,0,0,1-.76-.33c.55,0-.58-.36-.81-.38,1.09.21,3.76.65,4.84.9s2.17.47,3.25.71c.85.18,2,.63,2.9.8s-1-1.56-1.38-2.11-1.6-.64-1.7-.71a24.91,24.91,0,0,0-4.19-.87c-1.43-.26-2.12-.66-3.29-.79-.15,0-.06-.33-.05-.4s-.42-.48-.36-.67.95.78,1.28.64a.87.87,0,0,1,.67,0c.65.19,1.32.17,2,.35,1.92.51,3.83,1,5.75,1.55.31.08.47,0,.55.21a5.1,5.1,0,0,1,.48.59c.5.62.43.77.87,1.19a4,4,0,0,1,.59.84c.44.08.75.26.84.62a4.2,4.2,0,0,1,.11,1.15c0,.11-.15.25-.27.31a1.29,1.29,0,0,0-.76,1.14,5.5,5.5,0,0,0,.18,2.15A8.52,8.52,0,0,1,191,136c0,.64-.06,1.28-.08,1.92q-.06,1.3-.11,2.6h-.12c0-.47,0-.94-.06-1.41,0-1.32-.08-2.64-.13-4,0-.35-.21-.42-.53-.33a.62.62,0,0,1-.53-.15c-.19-.21-.31-.16-.5,0a.38.38,0,0,1-.51-.06,1.39,1.39,0,0,0-.69-.17s-.12.2-.12.3c0,.28,0,.56,0,.85a3.49,3.49,0,0,1,0,.36h-.12c0-.36-.05-.72-.1-1.08s-.16-1-.24-1.52-.55-.45-.89-.51a12.94,12.94,0,0,1-1.87-.27c-.71-.24-1.44-.24-2.15-.43a.24.24,0,0,1-.17-.17c.37.06.73.14,1.1.17a4.37,4.37,0,0,0,.66-.07,2.1,2.1,0,0,1,.47,0l2.41.38c.33,0,.67.05,1.06.08l-.12-.51a1,1,0,0,1-.9-.11,5.45,5.45,0,0,0-1.26-.37c-.35-.07-.78,0-1.06-.11s-.44-.11-.83-.2a4.53,4.53,0,0,0-.69-.14,1.46,1.46,0,0,0-.34-.06c-.08-.06-.29,0-.42-.06-.55-.16-.52-.12-.79-.2s-.29-.06-.65-.16a1.06,1.06,0,0,1-.28-.19l0-.1c.34,0,.69,0,1,.07l4.23.7c.3,0,.59.11.89.13.1,0,.2-.07.3-.11-.09-.06-.18-.16-.28-.18l-3.27-.66a.59.59,0,0,1-.14-.08c.21-.15.41-.26.06-.41-.06,0-.08-.16-.12-.25-.18-.36-.34-.42-.68-.26a1.16,1.16,0,0,0-1-.47,1.54,1.54,0,0,1-.83-.27c-.81,0-.71-.44-.85-.46Z"/><path class="a" d="M163.76,155.67c0-1.26,0-4.26,0-5.45,0-2.56.08-4.95.05-7.51a7.69,7.69,0,0,0,.05-1.38c-.11-.54.15-.75,0-1.28-.09-.31,0-.73-.07-1.1l3.83-.2c.44,0,1.23,0,1.67,0,.13,0,.1,0,.12.41,0,1.85,0,3.7,0,5.55,0,2.11.05,4.22.08,6.33,0,1,0,2,0,3s.18,2-.06,2c-1.33,0-2.72-.22-4.05-.23l-1.63-.1"/><path class="a" d="M153.52,129a1.23,1.23,0,0,1-.18-1.23c8.61-.71,15.8-1.68,24.39-2.39-.34,0,0,.15.15.47a4.07,4.07,0,0,1-.61,0c-.89.1-.43.09-1.32.18s-1.52.13-2.28.21c-.94.1-1.89.23-2.83.32-.46,0-.92,0-1.39.08l-1.55.14c-1,.09-2,.17-2.94.28-.34,0-.64,0-1,.07s-.69,0-1,.09-1,.12-1.49.18c-.78.09-1.42,0-2.21.09-.22,0-.41,0-.62,0a3.15,3.15,0,0,1-.7.11,1.48,1.48,0,0,1-.34,0c-.06,0-.11,0-.2,0s-.22,0-.37.09c0,0-.33-.34-.41,0a1.57,1.57,0,0,0-.69.06c-.48.07-.83,0-1.53.11-.3,0-.12,0-.55,0-.08,0-.5.42.14,1Z"/><path class="a" d="M154.36,134.05a7.48,7.48,0,0,1,2.94,0,2.53,2.53,0,0,1-1.83.46c-.59,0-.63,0-.63.63q0,4.81.07,9.62a2.69,2.69,0,0,1-.06.7c0-.22,0-.45,0-.67-.05-1-.12-2-.16-3.05,0-1.45,0-2.91-.11-4.36,0-1-.15-1.94-.22-2.9,0-.08,0-.17,0-.26a1.13,1.13,0,0,1,0-.18"/><path class="a" d="M162.89,137.8c-.07-.32-.08-.34-.51-.24l0-.13,5.66-.25,0,0-.77.35c-.2.1-.32.07-.41-.08a6.88,6.88,0,0,1-.91.19c-.77.06-1.54.07-2.31.13a3,3,0,0,0-.77,0"/><path class="a" d="M162.15,131.53l-5.85.5v-.16c1.92-.54,3.91-.26,5.85-.49v.15"/><path class="a" d="M158.06,124.65a4.26,4.26,0,0,0,1.6-.29c.48.27,1.11-.07,1.77,0a7.09,7.09,0,0,1-3.37.3"/><path class="a" d="M173.92,4.74,175.3,7l0,.12a1.13,1.13,0,0,1-.32-.12,3.73,3.73,0,0,1-.37-.39c.24-.53-.33-.85-.52-1.29a4.37,4.37,0,0,0-.29-.48l.15-.09"/><path class="a" d="M168.5,137.2l2.38-.2,0,.1a5.92,5.92,0,0,0-.6.09,2.61,2.61,0,0,0-.36.17.73.73,0,0,1-.35.1c-.37-.07-.72-.17-1.1-.27"/><path class="a" d="M154.76,149.64v-3.33h.09v3.33h-.09"/><path class="a" d="M164.17,131.29l2.25-.16a.92.92,0,0,1,.23,0s0,.06,0,.09l-2.48.15s0-.08,0-.12"/><path class="a" d="M153.35,127.72c.22-.24,1.61-1.66,3.13-3.43a6.14,6.14,0,0,1-.8,1.64c-.57.28-2.48,3-2.37,2,0,0,.06-.14,0-.17"/><path class="a" d="M190.75,144.51v-3.57h0v3.55l0,0"/><path class="a" d="M163.9,132.6l-1.79.15v-.18l1.79-.1v.13"/><path class="a" d="M157.58,133.1l2-.13V133l-2,.15,0-.1"/><path class="a" d="M166.25,132.42l-1.35.11v-.1l1.35-.11v.11"/><path class="a" d="M175.94,7.71l-13.52,6.47-.44.18.23-.4.54-.38a2,2,0,0,0,.38-.54l1.25-1.41,1.52-1.9s2.22-3,2.55-3.31S171,3.37,171,3.37a14.05,14.05,0,0,1,1.53-1.71l.65-.66.16-.52,1.57,1L175,3.3l1.42,1.28V5.64L178.29,7l.09.89,1.52,1.48v1l1.66,2.42v.71l2.36,4.89L176.68,8.19s-.25-.26-.35-.34.06,0-.1-.08a.8.8,0,0,0-.29-.05"/><rect class="a" x="163.09" y="17.09" width="0.61" height="16.67"/><polygon class="a" points="162.79 13.99 162.69 12.07 165.76 10.79 162.79 13.99"/><polygon class="a" points="164.55 11.96 164.5 9.83 167.56 8.54 164.55 11.96"/><polygon class="a" points="166.25 9.31 166.28 6.7 169.34 5.41 166.25 9.31"/><polygon class="a" points="168.15 7.47 168.18 4.86 171.25 3.57 168.15 7.47"/><polygon class="a" points="170.66 3.92 170.66 1.41 173.66 0.55 173.72 3.8 170.66 3.92"/><polygon class="a" points="170.85 1.35 173.24 0.67 174.89 1.49 172.88 0 170.85 1.35"/><polygon class="a" points="154.65 134.23 154.69 155.09 155.4 154.64 155.4 134.23 154.65 134.23"/><polygon class="a" points="191.09 154.91 180.4 156.18 180.43 155.4 190.9 153.31 191.09 154.91"/><polygon class="a" points="190.31 133.38 190.39 153.88 191.06 153.79 190.89 132.81 190.31 133.38"/><path class="a" d="M158.59,129.59l.08,1.11a.47.47,0,0,0,0,.11l0,0h.08a.32.32,0,0,0,.26-.14.82.82,0,0,0,.09-.51.93.93,0,0,0-.12-.43.36.36,0,0,0-.19-.16.7.7,0,0,0-.25,0m-.45,1.38v0h0l.09,0a.12.12,0,0,0,0-.06.47.47,0,0,0,0-.13l-.07-.94a.49.49,0,0,0,0-.14l-.05,0H158v0l.64,0a1,1,0,0,1,.42,0,.62.62,0,0,1,.31.24.82.82,0,0,1,.1.66.59.59,0,0,1-.28.36,1,1,0,0,1-.24.1l-.2,0Z"/><path class="a" d="M160.37,129.46l0,.58h0a.23.23,0,0,0,.19-.1.52.52,0,0,0,.06-.26h0l.05.75h0a.56.56,0,0,0-.07-.2.23.23,0,0,0-.1-.1.36.36,0,0,0-.16,0l0,.4a.58.58,0,0,0,0,.14l0,0h.18a.46.46,0,0,0,.47-.41h0l0,.46-1.23.09v0h0l.1,0a.1.1,0,0,0,0-.05.49.49,0,0,0,0-.13l-.07-.94a.76.76,0,0,0,0-.12.1.1,0,0,0,0-.05.18.18,0,0,0-.11,0h0v0l1.19-.08,0,.42h0a.52.52,0,0,0-.1-.22.33.33,0,0,0-.16-.09h-.37Z"/><path class="a" d="M162,129.26l.77.83,0-.61a.28.28,0,0,0,0-.17.21.21,0,0,0-.17,0v0l.47,0v0l-.12,0a.13.13,0,0,0,0,.06.44.44,0,0,0,0,.14l.08,1.19h0l-1.05-1.12.07.91a.2.2,0,0,0,.07.16.21.21,0,0,0,.13,0h0v0l-.51,0v0a.18.18,0,0,0,.2-.22l-.07-1,0,0-.09-.07h-.1v0Z"/><path class="a" d="M163.74,129.14l.77.83,0-.61a.28.28,0,0,0,0-.17.21.21,0,0,0-.17,0v0l.47,0v0l-.12,0a.13.13,0,0,0,0,.06.44.44,0,0,0,0,.14l.08,1.19h0l-1-1.12.06.91a.2.2,0,0,0,.07.16.21.21,0,0,0,.13,0h0v0l-.51,0v0a.18.18,0,0,0,.2-.22l-.07-1,0,0-.09-.07h-.1v0Z"/><path class="a" d="M166.51,128.94v0a.2.2,0,0,0-.11,0,1.07,1.07,0,0,0-.15.25l-.27.54,0,.35a.49.49,0,0,0,0,.14l0,0h.17v0l-.8.06v0h.07l.1,0a.1.1,0,0,0,0-.05.41.41,0,0,0,0-.13l0-.29-.38-.59a.94.94,0,0,0-.16-.2.19.19,0,0,0-.11,0v0l.68,0v0h0l-.08,0a0,0,0,0,0,0,0,.65.65,0,0,0,.1.18l.29.45.23-.45a.59.59,0,0,0,.08-.22.06.06,0,0,0,0,0,.26.26,0,0,0-.13,0v0Z"/><path class="a" d="M168.86,128.74l0,.49h0a.53.53,0,0,0-.19-.28.44.44,0,0,0-.29-.08.43.43,0,0,0-.24.09.46.46,0,0,0-.15.21.92.92,0,0,0,0,.36,1.2,1.2,0,0,0,.07.35.47.47,0,0,0,.17.23.42.42,0,0,0,.27.06.54.54,0,0,0,.24-.08.85.85,0,0,0,.22-.22V130a.79.79,0,0,1-.24.2.76.76,0,0,1-.3.08.87.87,0,0,1-.41-.06.65.65,0,0,1-.29-.24.73.73,0,0,1-.12-.36.78.78,0,0,1,.35-.7.78.78,0,0,1,.38-.13.88.88,0,0,1,.32,0l.13,0,.06,0a.14.14,0,0,0,0-.08Z"/><path class="a" d="M169.84,129.44l0,.44a.47.47,0,0,0,0,.14l.05,0h.14v0l-.75.05v0h0l.1,0a.09.09,0,0,0,0-.05.42.42,0,0,0,0-.13l-.07-.94a.45.45,0,0,0,0-.14l-.05,0h-.14v0l.75-.05v0h0l-.1,0a.11.11,0,0,0,0,.05.46.46,0,0,0,0,.13l0,.4.5,0,0-.4a.44.44,0,0,0,0-.14.1.1,0,0,0-.05,0h-.14v0l.74-.05v0h0l-.1,0a.11.11,0,0,0,0,.05.45.45,0,0,0,0,.13l.07.94a.49.49,0,0,0,0,.14.11.11,0,0,0,.05,0h.14v0l-.75.05v0h0l.1,0a.1.1,0,0,0,0-.05.42.42,0,0,0,0-.13l0-.44Z"/><path class="a" d="M172,129.94v0l-.75.05v0h0l.1,0a.1.1,0,0,0,0-.05.42.42,0,0,0,0-.13l-.07-.94a.49.49,0,0,0,0-.14l-.05,0h-.14v0l.75-.05v0h0l-.1,0a.11.11,0,0,0,0,.05.41.41,0,0,0,0,.13l.07.94a.43.43,0,0,0,0,.14l.05,0H172Z"/><path class="a" d="M173.24,129.4l.32-1,.58,0v0h0l-.1,0a.11.11,0,0,0,0,.05.41.41,0,0,0,0,.13l.07.94a.49.49,0,0,0,0,.14.1.1,0,0,0,.05,0h.14v0l-.74.05v0h0l.1,0a.1.1,0,0,0,0-.05.42.42,0,0,0,0-.13l-.08-1.06-.45,1.34h0l-.65-1.25.07,1a.85.85,0,0,0,0,.13.15.15,0,0,0,.07.08.24.24,0,0,0,.15,0v0l-.49,0v0h0l.09,0,.06,0a.19.19,0,0,0,0-.08s0,0,0-.11l-.06-.9a.47.47,0,0,0,0-.13.1.1,0,0,0-.05,0h-.14v0l.58,0Z"/><path class="a" d="M175,128.41l0,.58h0a.23.23,0,0,0,.19-.1.52.52,0,0,0,.06-.26h0l.05.75h0a.56.56,0,0,0-.07-.2.23.23,0,0,0-.1-.1.36.36,0,0,0-.16,0l0,.4a.58.58,0,0,0,0,.14l0,0h.18a.46.46,0,0,0,.47-.41h0l0,.46-1.23.09v0h0l.1,0a.1.1,0,0,0,0-.05.49.49,0,0,0,0-.13l-.07-.94a.76.76,0,0,0,0-.12.1.1,0,0,0,0-.05.18.18,0,0,0-.11,0h0v0l1.19-.08,0,.42h0a.52.52,0,0,0-.1-.22.33.33,0,0,0-.16-.09H175Z"/><path class="a" d="M177.05,128.15l0,.47h0a.49.49,0,0,0-.17-.28.38.38,0,0,0-.27-.09.24.24,0,0,0-.17.07.17.17,0,0,0-.05.14.16.16,0,0,0,0,.08.35.35,0,0,0,.11.09l.24.11a1,1,0,0,1,.35.21.4.4,0,0,1,.1.24.4.4,0,0,1-.12.32.5.5,0,0,1-.34.15h-.13l-.15,0-.08,0-.06,0a.15.15,0,0,0,0,.07h0l0-.54h0a.62.62,0,0,0,.2.33.42.42,0,0,0,.29.1.27.27,0,0,0,.18-.08.19.19,0,0,0,0-.25.3.3,0,0,0-.09-.08l-.2-.1a1.72,1.72,0,0,1-.29-.14.52.52,0,0,1-.14-.14.37.37,0,0,1-.06-.18.39.39,0,0,1,.11-.3.44.44,0,0,1,.31-.14h.14l.12,0,.1,0,0,0a.21.21,0,0,0,0-.08Z"/><path class="a" d="M177.68,121.78l-20,2c-.81.07-1,.54-1,.54l-.07.33c0,.18-.54.46-.4.57s1,0,1.72-.07l17.53-1.79,2.51-.28c.09-.05.13-.06.07-.38a2.52,2.52,0,0,0-.38-1"/><path class="a" d="M160.89,120.07s0,0-.71,1c-.1.16-.42.52-.5.64a9.38,9.38,0,0,1-.75,1.07c-.09.12-3.24,3.88-3.35,4a6,6,0,0,1-1.24.83l.69-1.47,4.46-5.67Z"/><rect class="a" x="154.45" y="129.55" width="0.58" height="4.73"/><path class="a" d="M186.37,121a3.34,3.34,0,0,0,.33,1,4.11,4.11,0,0,0,.29.5c.21.25,0,.39.13.58s.35.57.41.67c.21.32,1.18,1.66,1.18,1.66l.37-.08-2-4.06Z"/><path class="a" d="M163.24,32.89a1.05,1.05,0,0,1-.32.72,2.07,2.07,0,0,0-.76,1,8.38,8.38,0,0,0-.32,1.58v.72l.43-.14.22-1.15a1.58,1.58,0,0,1,.32-.86l.32-.43.54-.58Z"/><path class="a" d="M181.89,34.54s.48.79.66,1a3.81,3.81,0,0,1,.43.66c0,.08.56.81.58.89s.33.48.43.71.18.28.31.56a2.67,2.67,0,0,1,.13.51c0,.15.05.43.05.43l0,.43v.51l0,.15s-.16.13-.16.21a1.92,1.92,0,0,0,.05.28,2.07,2.07,0,0,0,.33-.23c.1-.1.23,0,.28-.41s0-.15,0-.76.08-.35-.1-1a7.32,7.32,0,0,0-.74-1.52,7.32,7.32,0,0,0-.56-.91c-.38-.53-.13-.23-.61-.89a4.09,4.09,0,0,1-.63-1.47Z"/><polygon class="a" points="162.59 155.6 161.41 155.54 161.48 137.3 162.62 137.45 162.59 155.6"/><polygon class="a" points="172.06 156.13 170.36 156.03 170.36 136.88 171.93 136.71 172.06 156.13"/><path class="a" d="M161.48,137.7c.29,0,10.44-.45,10.44-.45l.18-1.11-10.83.5Z"/><path class="a" d="M184,150.37v1.14l2.72-.44a.87.87,0,0,0-.7-.26l-1.05.26s-.62,0-.62-.26-.35-.44-.35-.44"/><rect class="a" x="154.34" y="129.22" width="2.88" height="25.91"/><polygon class="a" points="153.47 127.66 153.4 127.97 177.89 125.94 178.81 125.86 178.58 124.92 153.47 127.66"/><polygon class="a" points="178.58 125.23 179.54 125.99 180.62 126.23 190.86 128.19 178.58 125.23"/><polygon class="a" points="185.97 120.59 187.87 124.83 189.16 125.33 187.02 120.95 185.97 120.59"/><polygon class="a" points="183.84 20.18 183.22 21.14 177.9 12.74 178.47 12.21 183.84 20.18"/><path class="a" d="M175.51,13.22l.06,1.13a4.43,4.43,0,0,1,1.33.43,1.55,1.55,0,0,1,.76.76l1.47,2.85,1.33,2.18.62.24,1,.38-5.42-7.89Z"/><polygon class="a" points="178.52 16.23 179.04 17.07 179.08 14.86 178.47 14.21 178.52 16.23"/><polygon class="a" points="180.36 19.1 180.97 19.85 180.92 17.73 180.18 17.11 180.36 19.1"/><polygon class="a" points="181.97 21.66 182.22 22.41 182.52 20.29 181.78 19.67 181.97 21.66"/><polygon class="a" points="167.22 13.36 167.16 13.74 175.99 9.59 175.47 9.42 167.22 13.36"/><path class="a" d="M175.3,11.53a11.58,11.58,0,0,1,.18,2.46l1.43-.42a4.31,4.31,0,0,1,.14-1.12,1.08,1.08,0,0,0,.09-.59Z"/><polygon class="a" points="154.04 127.09 178.51 124.95 172.27 126.37 153.67 128.03 154.04 127.09"/><polygon class="a" points="161.84 137.26 161.91 138.07 170.84 137.62 171.42 136.33 161.84 137.26"/><polygon class="a" points="163.77 139.09 163.77 154.64 165.82 154.7 165.17 138.99 163.77 139.09"/><polygon class="a" points="191.07 129.49 191.09 154.91 189.66 132.75 191.07 129.49"/><polygon class="a" points="154.76 129.59 154.34 155.13 160.26 155.51 160.26 135.39 173.24 134.83 173.41 156.24 179.22 156.47 178.67 127.77 154.76 129.59"/><polygon class="a" points="177.68 121.78 177.98 123.12 188.35 125.62 187.92 124.31 177.68 121.78"/><polygon class="a" points="178.48 124.92 190.94 127.5 191.24 128.27 178.71 125.86 178.48 124.92"/><polygon class="a" points="179.76 127.17 191.01 129.1 190.77 129.44 179.78 127.7 179.76 127.17"/><path class="a" d="M183.72,150.39l-.36-15.5,3.84.32.28,14.9Zm-4-23.22.63,29L191.09,155l-.35-21s-.6-1.95-.67-2.25"/><polygon class="a" points="184.44 136.48 184.69 148.9 186.61 148.84 186.38 136.63 184.44 136.48"/><path class="a" d="M154.2,157.67l25.58,1.57,11.66-1.54s.36,1.42,0,1.85l-11.59,1.67L154,159.37s-.43-1.62.21-1.7"/><path class="a" d="M356,74.14v74.93H476.69V74.14ZM361.77,144l17.45-65h18l-17.45,65Zm90.94,0H436.94L419.4,106.6l-10,37.4H391.47l17.45-65h16.8l16.8,36.1L452.25,79h17.91Z"/><path class="a" d="M0,111.73v-.21C0,90.14,16.45,73.37,38.67,73.37c15,0,24.63,6.29,31.13,15.3L54.5,100.51c-4.19-5.24-9-8.59-16-8.59-10.27,0-17.5,8.7-17.5,19.39v.21c0,11,7.23,19.6,17.5,19.6,7.65,0,12.16-3.56,16.56-8.91l15.3,10.9c-6.92,9.54-16.25,16.56-32.49,16.56C16.87,149.67,0,133.63,0,111.73Z"/><path class="a" d="M79.14,74.85H99.76V102.7h26.46V74.85h20.62v74.39H126.22V121H99.76v28.27H79.14Z"/><path class="a" d="M198.71,74.85H220.5l17.75,28.8L256,74.85h21.79v74.39H257.26V106.52l-19,29.12h-.43L218.9,106.73v42.51H198.71Z"/><path class="a" d="M290.95,74.85h59.83V92.39H311.35v11.26h35.71v16.26H311.35v11.8h40v17.53H290.95Z"/><polygon class="a" points="191.43 157.7 476.89 157.7 476.89 159.27 191.4 159.53 191.43 157.7"/><polygon class="a" points="1.55 157.83 154.23 157.68 154.25 159.38 1.55 159.39 1.55 157.83"/></svg>