<svg id="svg" xmlns="http://www.w3.org/2000/svg" viewBox="0 0 6717.75 1251.4"><defs><style>.cls-1{fill:#fff;}.cls-2{fill:#950000;}.cls-3{fill:#6a5e5a;}.cls-4{fill:#b0a9a7;}.cls-5{fill:#402a1e;}</style></defs><title>Artboard 1</title><g id="svgg"><path id="path0" class="cls-1" d="M356.4,27.8,28.7,29.1l-.6,595.2c-.3,327.4.3,596.1,1.4,597.2,2.3,2.3,1187.7,3,1191.3.7,4-2.5,3.2-1191.8-.8-1193.3-4.9-1.8-495.8-2.5-863.6-1.1m854.3,597.9V1211H40V40.3H1210.8V625.7M953.4,211.8c-65.7,49.1-90,57.1-174.2,57.1-97.9,0-148.7-23.6-148.8-69,0-6.4-.4-6.7-6.9-4.2-22.9,8.7-33.6,47.4-20.9,76.1,19,43,52,55.7,159.2,61.2,28.7,1.5,52.5,3.1,53,3.5s-20,28.7-45.5,62.7c-49.2,65.6-115.7,163.5-152.5,224.6l-22.2,36.9H582.8c-25,0-41-20.5-41.2-52.9l-.1-19.1-8.9,4.5C473.3,623.4,479.8,728,542,743.6c13.4,3.4,14.3-1-9.7,43.2-81.5,150.3-140.8,200.9-221.5,189-64.2-9.5-113.7-85.2-88.2-135.1,16.9-33.2-15.4-33.6-40.6-.6-70.6,92.6,15.1,220.4,146.9,219.1,118.3-1.2,210.6-83.1,310.9-276,10.4-20,19-36.5,19.1-36.7.7-1.2,149.7-23.6,150.7-22.6.6.6-1.1,30.4-4,66.2-11.1,140.6-2.5,196.6,36.5,238.3,59,63.1,212.5,13.9,222.6-71.2,2.2-19-1.2-19.8-28.6-6.9-65.3,30.7-114.6,25.3-128.5-14.1-4.6-13-4.5-156.2.1-196.1l3.4-29.2,12.3-2.6c30.5-6.5,49.6,1,49.6,19.5,0,12.7,4.4,11.4,22.4-6.5,19.6-19.6,23.1-28.3,23.4-57.3.3-40.9-18.5-57.2-66.1-57.2-25.1,0-29.4-.6-28.5-3.8.6-2.1,4.6-20.1,8.9-40,29.9-137.3,62.4-240.1,99.1-313.3,7.4-14.8,13.5-27.5,13.5-28.3,0-1.2-61.2-31.3-63.1-31-.5.2-13.6,9.7-29.2,21.4M878.2,414.6c-9.7,33.7-36.8,140.3-47.9,188.5-3,13.1-6.3,24.7-7.4,25.8-2.8,3-112.6,16.1-112.6,13.5,0-1.2,2.1-5.2,4.6-8.9s20-33.9,38.8-67.1c49.7-87.8,77.9-129.1,119.1-174.1,17.2-18.6,17.2-18.5,5.4,22.3"/><path id="path1" class="cls-2" d="M833.6,24.7a276.67,276.67,0,0,0,28.8,0c7.9-.5,1.4-.9-14.4-.9s-22.3.4-14.4.9m6.3,19.9a68.28,68.28,0,0,0,15,0c3.8-.6.1-1-8.2-1s-11.3.5-6.8,1M452.1,67.1l-384.6.8V1183.5l390.9.7c215,.4,466,.4,557.8,0l167-.7V67.9H1024.7c-87.2,0-165.1-.3-173.2-.8s-187.8-.4-399.4,0m560.6,135.5c16.4,8.1,31.4,15.2,33.3,15.9,2.5.9,1.1,5.5-5.8,18.4-25.6,47.9-53.3,122-74.6,199.4C956.5,469.5,925.5,599,925.5,604c0,.3,11.6.4,25.8.4,50.1-.1,70.9,19.7,68.6,65.4-1.3,26.5-6.5,38-25.1,55.1-16.3,15-21.8,17.5-21.8,10,0-23-12.8-31.2-41.4-26.5l-18.4,3-1.4,10.3c-10.7,78.6-10.9,194.9-.4,220,13.6,32.6,64.8,35.4,125.9,6.8,29-13.6,32.8-11.7,28.1,13.7-15.8,84.4-162.4,129.1-223.3,68.1-38.9-38.9-48.9-95.9-39.2-224.4,3.2-42.8,5.1-78.5,4.3-79.3-1.3-1.3-127,16.9-143.1,20.8-3.5.8-8.9,8.8-17.1,25.5-77.2,155.8-164.2,251.4-255.4,280.7-24.7,7.9-85.9,10-112.1,3.8-108-25.6-159.7-153.2-91.4-225.4,27.5-29,52.4-22.3,36.2,9.8-23.5,46.4,21.6,120.8,79.7,131.5,82.1,15.2,141.6-32.2,221.3-176.1l27.7-50-8.1-1.4c-64.1-11.2-74.4-121.8-14.2-152.5,13.4-6.8,13.7-6.7,12.7,9.7-1.6,27.8,10,49.9,29.3,55.6,17.9,5.4,19.1,4.3,44.7-37.7,49-80.5,112.7-173.4,167.9-245.1l27.9-36.3-10.7-1.7c-5.9-.9-32.1-2.9-58.2-4.4-112-6.3-157.4-37.3-147.8-100.9,4.1-27.3,36.4-53.8,36.5-29.9.2,42.1,53.2,65.7,147.5,65.6,79.1-.1,111.1-10.8,173.9-58.6,15.1-11.5,27.7-21,28-21.2.2-.4,13.8,6.1,30.3,14.2M870.4,397.3c-37.9,41.4-69.3,87.6-117.5,173.3-18.2,32.3-35.4,62.1-38.2,66.1l-5.2,7.3,7.3-1.4c4-.8,29.5-4,56.7-7.3l49.3-5.8,1.5-7.5c4.3-21.3,44.6-181.7,52.1-207.6,10.5-35.8,10.7-35.2-6-17.1m-30.5,810.6a68.28,68.28,0,0,0,15,0c3.8-.6.1-1-8.2-1s-11.3.4-6.8,1m-6.3,20a276.67,276.67,0,0,0,28.8,0c7.9-.5,1.4-.9-14.4-.9s-22.3.4-14.4.9"/><path id="path2" class="cls-3" d="M42.5,10.3c0,6.2,1.2,10.1,3.1,10.3,1.7.2-.8,1.1-5.6,1.9s57.7,1.6,138.8,1.7,138-.6,126.3-1.5-18.7-1.8-15.6-2c4.8-.4,5.6-1.9,5.6-10.5V.2H42.5V10.3m397.7,0c0,6.1,1.2,10.2,3.1,10.4,1.7.2-3.1,1.1-10.6,2S464,24.3,519,24.2s96.7-.5,92.5-.9c-7.3-.7-7.5-1.1-6.6-11.9L605.8.3H440.2v10m315.2,1.1c0,9.5-.8,11.2-5.6,12.2-9.6,1.8,38.4,1.3,55.7-.6,8.9-1,14.5-2,12.4-2.2-2.9-.3-3.6-2.8-2.9-10.4l1-10H755.4v11m128-1.1c.8,8.6.2,10.1-4.1,10.4-2.8.2,3.4,1.2,13.7,2.2,25.4,2.4,79,2.3,67.5-.1-4.8-1-7.3-2-5.6-2.2,1.9-.2,3.1-4.2,3.1-10.3V.3H882.4l1,10m265.1,1.2c.9,11.1.8,11.2-7.9,12.2-4.8.6,11,.9,35.2.7,34-.3,45,.4,48.2,3.1,6.4,5.3,6.4,1191.1,0,1196.4-3.2,2.7-14.1,3.4-48.2,3.1-24.2-.2-40.1.1-35.2.7,8.7,1.1,8.8,1.2,7.9,12.2l-.9,11.1h83.6l9.7-9.7c6.3-6.3,9.6-11.8,9.4-15.6-.3-5.9-.4-5.9-1.4-.3-.6,3.1-2.2,5.6-3.6,5.6s-1.9.9-1.2,2-2.2,4.1-6.5,6.6-7,3.4-6.1,1.9,1.6-279.1,1.6-616.9c0-544.3.4-614.1,3.7-612.8,5.4,2.1,4.6-1.5-1.6-6.9-4.8-4.2-10-4.7-46.5-4.7h-41.1l.9,11.3M826.2,27.2c13.5.5,34.9.4,47.5,0s1.6-.8-24.5-.8-36.5.3-23,.8m398.2,598.5c0,328.1.3,462.4.6,298.3s.4-432.5,0-596.6-.6-29.8-.6,298.3M51.9,42.2l-9.4,1V1207.8l15.4,1.6c20.1,2.1,179.1,1.6,221-.8,20-1.1,27.2-2.1,18.8-2.6-7.6-.4-11.3-1.2-8.4-1.8,8.7-1.7,9.6-15.6,1.1-16.3-3.5-.3,4.2-1.2,17.3-2s-35.6-1.8-108.2-2l-132-.5V67.9l132-.5c72.6-.3,121.3-1.2,108.2-2s-20.9-1.8-17.3-2c8.5-.6,7.6-14.6-1.1-16.3-3-.6.8-1.4,8.4-1.8,8.5-.5,1.3-1.5-18.8-2.6-33.6-1.9-210.4-2.3-227-.5m393.3.6c-11.5,1-14.9,1.8-8.8,2.1,5.5.3,8.8,1.3,7.3,2.3-4.9,3.2-5.8,15.5-1.3,16,2.2.2-2.7,1.2-11,2.1S462,67,517.7,67.1s97.4-.7,92.6-1.8-7.5-2-5.9-2.2c2-.2,2.2-3.1.9-9.1-1.8-7.8-1.4-8.8,3.4-9.1,3-.2-.8-1.2-8.4-2.3-16.3-2.1-128.2-2.1-155.1.2m311.5,0c-5.5,1-7.9,2-5.4,2.1,7.8.6,4.9,18.6-3.3,20.7-3.5.9,8.3,1.6,26.2,1.7,37.4.1,40-.6,40-10.8,0-4.1,1.1-8.3,2.5-9.3s-1.4-2.1-6.3-2.3.3-1.2,11.3-2.1c16.3-1.3,13-1.6-17.5-1.7-20.6,0-42,.8-47.5,1.7m118.8,0c14,.9,19.1,1.8,12.5,2.2-6.4.4-9.6,1.4-7.5,2.4s3.8,5,3.8,9.2c0,10.2,2.8,10.8,48.8,10.7,23.6-.1,34.9-.8,28.8-1.9-5.5-1-8.5-2-6.6-2.1,2.4-.3,3.1-3,2.4-9.1-.8-6.6-.1-8.8,2.9-9.1,16.1-1.4-29.6-4.2-64.9-4-37,.1-40.2.4-20.2,1.7m276.4,0c-6.9.9-10.1,1.9-7.1,2.1,4.8.4,5.2,1.3,3.4,9.1-1.4,6-1.1,8.9.9,9.1,1.6.2-2.2,1.2-8.4,2.1-8.5,1.3-4.7,1.8,15.6,2.1l26.9.4V1183.3l-26.9.4c-20.3.3-24.1.8-15.6,2.1,6.2,1,10,1.9,8.4,2.1-2,.3-2.2,3.1-.9,9.1,1.8,7.8,1.4,8.8-3.4,9.1-10.3.7,24.8,4.1,45.3,4.4l20.6.3V40.3l-23.1.4c-12.8.2-28.8,1.2-35.7,2.1M133.2,44.6a35.69,35.69,0,0,1-11.3,0c-3.1-.6-.6-1.1,5.6-1.1s8.8.5,5.7,1.1M46.9,508.7c-.4,60.9-.7,11.1-.7-110.7s.3-171.6.7-110.7.3,160.6,0,221.4m-.1,649.1c-.5,8-.9,2.1-.9-13s.4-21.6.9-14.5a252.15,252.15,0,0,1,0,27.5M431.5,1186c8.3.9,13.2,1.9,11,2.1-4.6.5-3.6,12.8,1.3,16,1.5,1-1.7,2-7.3,2.3-26.8,1.1,39.5,4.2,91.3,4.2,48.1,0,102-2.8,80.9-4.2-4.8-.3-5.2-1.3-3.4-9.1,1.4-6,1.1-8.9-.9-9.1-1.6-.2,1.1-1.2,5.9-2.2s-36.8-1.8-92.6-1.8-94.5.9-86.2,1.8m316.5-.3c8.2,2.1,11,20.1,3.3,20.7-17,1.2,24.7,4.3,54.2,4,30.9-.2,33.3-.5,16.3-1.9-11-.9-16.1-1.8-11.3-2.1s7.6-1.3,6.3-2.3-2.4-5.2-2.4-9.3c.2-10.2-2.5-10.9-40.2-10.8-17.9.1-29.7.8-26.2,1.7m141.1,0c-3.7,1.2-5.1,3.7-5,9.1.1,4.3-1.5,8.2-3.6,9.2s1.1,2,7.5,2.4c6.2.4,0,1.3-13.8,2.2-21.3,1.3-18.4,1.6,20,1.8,36.3.2,82.5-2.6,66.2-4-2.9-.3-3.6-2.5-2.9-9.1.7-6.1,0-8.9-2.4-9.1-1.9-.2,1.1-1.2,6.6-2.1,6.1-1.1-5.2-1.8-28.8-1.9-21.2-.1-40.9.6-43.8,1.5m-755.9,22.1a35.7,35.7,0,0,1-11.3,0c-3.1-.6-.6-1.1,5.6-1.1s8.8.5,5.7,1.1m693,17.6c13.5.5,34.9.4,47.5,0s1.6-.8-24.5-.8-36.5.4-23,.8M40,1228.8c4.8.9,7.3,1.8,5.6,1.9-1.9.2-3.1,4.2-3.1,10.3v10H295.1v-10c0-8.6-.8-10.1-5.6-10.5-3.1-.3,3.9-1.2,15.6-2s-45.2-1.5-126.3-1.5-143.6.9-138.8,1.8m392.7-.2c7.6.9,12.4,1.8,10.6,2s-3.1,4.3-3.1,10.4v10H605.8l-.9-11.1c-.9-10.8-.6-11.2,6.6-11.9,4.1-.4-37.5-.8-92.5-.9s-93.8.6-86.3,1.5m317.1-.8c4.8.9,5.6,2.7,5.6,12.2v11.1H816l-1-10c-.7-7.6,0-10.1,2.9-10.4,2.1-.2-3.5-1.2-12.4-2.2-17.3-2-65.3-2.5-55.7-.7m142,.8c-9.6.9-15.1,1.8-12.3,2.1,4.6.4,5.1,1.7,4.3,10.4l-1,10H958v-10c0-6.2-1.2-10.1-3.1-10.3-1.7-.2.8-1.2,5.6-2.2,11-2.3-43.9-2.3-68.7,0"/><path id="path3" class="cls-4" d="M13.9,2.6C15.7,4.4,4.4,15.3,2.1,13.9,1,13.1,0,288.6,0,626s.8,612.7,1.7,611.7c1.9-1.9,13.6,8.3,12.2,10.7-.5.9,5.7,1.9,13.8,2.3l14.8.7v-10.2c0-6.3,1.2-10.3,3.1-10.5,1.7-.2-.8-1.2-5.6-2.2-5.4-1.1,9.2-2.2,37.5-2.7l46.3-.9-47.5-1.3-47.5-1.3V29.1L75,27.7l46.3-1.3-45-.9C48.5,25,34.6,24,40,22.8c4.8-1,7.3-2,5.6-2.2-1.9-.2-3.1-4.2-3.1-10.5V0L27.6.7C19.5,1.1,13.3,2,13.9,2.6m281.2,7.5c0,8.2-.9,10-5.6,10.9-3.1.6,3.9,1.5,15.6,2s-23.8,1.5-78.8,2.3c-68.5.9-34.6,1.3,107.6,1.4,114.2,0,180-.6,146.3-1.4s-55.1-1.7-47.5-2.1,12.4-1.3,10.6-2-3.1-5.6-3.1-11.1V.3h-145v9.8m309.7,1.5c-.9,11-.7,11.3,6.6,11.8,4.1.3-9.4,1.2-30,2s21,1.4,92.6,1.4,116.6-.7,100.1-1.5-27.5-1.7-24.4-2c4.9-.4,5.6-1.9,5.6-11.8V.3H605.8l-.9,11.3M958,10.1c0,5.5-1.4,10.4-3.1,11.1s.8,1.6,5.6,2-8.1,1.4-28.8,2.1,35.6,1.4,125.1,1.4,142.9-.6,118.8-1.4-39.8-1.6-35-1.9l8.8-.5-.9-11.3L1147.6.3H958v9.8M40,625.7V1211l11.9-.4,11.9-.4-10.6-1-10.6-1V43.1l9.4-1,9.4-1-10.6-.4L40,40.3V625.7M282.6,42.8c19.8,1,24.5,1.8,15,2.3-7.6.5-11.3,1.3-8.4,1.9,8.7,1.7,9.6,15.6,1.1,16.2-14.9,1,49.1,4,84.9,4,32.8,0,80.1-2.8,67.3-4-4.6-.4-3.6-12.7,1.3-16,1.5-1-1.7-2.1-7.3-2.3-6.2-.3-2.8-1.1,8.8-2.1,10.3-.9-28.5-1.6-86.3-1.6s-92.2.8-76.4,1.6m319,0c6.9.9,10.1,1.9,7.1,2.1-4.8.4-5.2,1.3-3.4,9.1,1.4,6,1.1,8.8-.9,9-16.5,1.7,29.4,4.5,74.7,4.5,74.4.2,75.2,0,75.9-12.6.5-7.8-.3-9.8-3.9-10.1-2.5-.2,0-1.2,5.5-2.1s-30-1.8-78.8-1.8c-48.8.2-83.1,1-76.2,1.9m351.4,0c6.2,1,9.5,1.9,7.4,2.1-2.9.3-3.6,2.6-2.9,9.1.7,6.1,0,8.8-2.4,9.1-20,1.8,35,4.3,95.4,4.3,60.9,0,114.8-2.4,98.4-4.3-2-.2-2.2-3.1-.9-9.1,1.8-7.8,1.4-8.8-3.4-9.1-3-.2.3-1.2,7.1-2.1s-37.6-1.7-98.8-1.7-106,.8-99.9,1.7M46.2,398.1c0,121.8.3,171.6.7,110.7s.4-160.5,0-221.4-.7-11.1-.7,110.7M631,201.7c0,5.5.5,7.5,1.1,4.3a25.69,25.69,0,0,0-.1-10c-.6-2.4-1,.2-1,5.7m136.4,68.1a208.4,208.4,0,0,0,25,0c6.5-.5.5-.9-13.2-.9s-19.1.4-11.8.9m-43.9,62.4a21.73,21.73,0,0,0,8.8,0c2.4-.6.4-1.1-4.4-1.1s-6.8.5-4.4,1.1m50.1,2.6a43.55,43.55,0,0,0,12.5,0c3.1-.6,0-1.1-6.9-1-6.9-.1-9.4.4-5.6,1m99.3,57.6-8.6,9.4,9.4-8.6c5.2-4.7,9.4-9,9.4-9.4-.1-1.9-2.2-.1-10.2,8.6M512.6,607.6,504,617l9.4-8.6c8.7-8,10.5-10.1,8.6-10.1-.4-.1-4.6,4.1-9.4,9.3M948.7,605a43.55,43.55,0,0,0,12.5,0c3.1-.6,0-1.1-6.9-1-6.9-.1-9.4.4-5.6,1m48,116.4L986.8,732l10.6-9.9c9.9-9.2,11.8-11.4,9.9-11.4-.4,0-5.2,4.8-10.6,10.7M808.5,735.8c0,4.8.5,6.8,1.1,4.4a21.74,21.74,0,0,0,0-8.8c-.5-2.4-1.1-.5-1.1,4.4M806,768.3c0,4.8.5,6.8,1.1,4.4a21.74,21.74,0,0,0,0-8.8c-.5-2.4-1.1-.4-1.1,4.4m97.6,21.2c0,5.5.5,7.5,1.1,4.3a25.69,25.69,0,0,0-.1-10c-.5-2.3-1,.2-1,5.7M803.5,800.8c0,4.8.5,6.8,1.1,4.4a21.74,21.74,0,0,0,0-8.8c-.6-2.4-1.1-.4-1.1,4.4M801,833.3c0,4.8.5,6.8,1.1,4.4a21.74,21.74,0,0,0,0-8.8c-.6-2.4-1.1-.4-1.1,4.4M215.8,869.6c0,6.9.5,9.4,1.1,5.6a43.55,43.55,0,0,0,0-12.5c-.6-3.1-1.1,0-1.1,6.9m583,12.5c0,11,.5,15.2,1,9.3a133.4,133.4,0,0,0,0-20c-.6-5.1-1-.3-1,10.7m104.8,23.8c0,4.8.5,6.8,1.1,4.4a21.74,21.74,0,0,0,0-8.8c-.6-2.4-1.1-.5-1.1,4.4m52.6,64.3a43.55,43.55,0,0,0,12.5,0c3.1-.6,0-1.1-6.9-1-6.9-.1-9.4.4-5.6,1m-631.7,7.5a35.7,35.7,0,0,0,11.3,0c3.1-.6.6-1.1-5.6-1.1s-8.8.5-5.7,1.1m711,35.1-8.6,9.4,9.4-8.6c8.7-8,10.5-10.1,8.6-10.1-.5-.1-4.7,4.1-9.4,9.3m-687.2,47.4a21.74,21.74,0,0,0,8.8,0c2.4-.6.4-1.1-4.4-1.1s-6.8.4-4.4,1.1M45.9,1144.8c0,15.1.4,21,.9,13a252.15,252.15,0,0,0,0-27.5c-.5-7.2-.9-.7-.9,14.5M307.7,1186c-13.1.9-20.9,1.8-17.3,2,8.5.6,7.6,14.6-1.1,16.3-3,.6.8,1.4,8.4,1.9,9.5.6,4.8,1.3-15,2.3-15.8.8,18.5,1.5,76.3,1.6s96.6-.7,86.3-1.6c-11.5-1-14.9-1.8-8.8-2.1,5.5-.3,8.8-1.3,7.3-2.3-4.9-3.2-5.8-15.5-1.3-16,32.3-3-90.6-4.9-134.8-2.1m302.6,0c-4.8,1-7.5,2-5.9,2.2,2,.2,2.2,3.1.9,9.1-1.8,7.8-1.4,8.8,3.4,9.1,3,.2-.3,1.2-7.1,2.1s27.5,1.7,76.3,1.8,84.3-.8,78.8-1.8-8-2-5.5-2.1c9.7-.8,4.8-19.6-5.6-21.3-12.5-2.1-124.6-1.3-135.3.9m351.5,0c-5.5,1-8.5,2-6.6,2.1,2.4.3,3.1,3,2.4,9.1-.8,6.6-.1,8.8,2.9,9.1,2.1.2-1.2,1.2-7.4,2.1s39.4,1.7,101.3,1.7,106.4-.8,98.8-1.7-11.3-1.9-8.4-2.1c4.8-.4,5.2-1.3,3.4-9.2-1.4-6-1.1-8.9.9-9.1,1.6-.2-2.8-1.2-9.6-2.3-15.7-2.2-164.1-2.1-177.7.3m-734.2,40.1c54.3.7,89.2,1.8,77.5,2.3s-18.7,1.4-15.6,2c4.7.9,5.6,2.7,5.6,10.9v9.8h145v-9.8c0-5.5,1.4-10.4,3.1-11.1s-3.1-1.6-10.6-2,13.8-1.4,47.5-2.1-31.6-1.4-145.1-1.4c-140.4,0-174.7.4-107.4,1.4m354,0c20.6.8,34.1,1.7,30,2-7.3.5-7.5.8-6.6,11.8l.9,11.3H755.5v-11.3c0-9.9-.7-11.3-5.6-11.8-3.1-.3,7.9-1.2,24.4-2s-28.5-1.5-100.1-1.5-113.3.7-92.6,1.5m350.2,0c20.6.8,33.6,1.7,28.8,2.1s-7.3,1.3-5.6,2,3.1,5.6,3.1,11.1v9.8h189.6l.9-11.3.9-11.3-8.8-.5c-4.8-.3,10.9-1.2,35-1.9s-29.4-1.4-118.8-1.4-145.8.6-125.1,1.4"/><path id="path4" class="cls-5" d="M815,10.3c-.7,7.6,0,10.1,2.9,10.4,2.1.2-2.9,1.1-11.2,1.9s11.4,1.5,43.8,1.5,50.9-.6,41.3-1.4-15.2-1.6-12.4-1.9c4.4-.4,4.9-1.9,4.1-10.4l-1-10H816l-1,9.9m418.2,614.8c0,337.7-.7,615.1-1.6,616.6s1.9.6,6.1-1.9,7.2-5.4,6.6-6.4.3-2.3,2-2.9c3.3-1.1,6.2-1200.1,2.9-1208.6-.8-2.2-2.4-3.4-3.6-2.7s-2.9,0-3.9-1.7c-1.2-1.9-.7-2.3,1.4-.9s2.8.8,2.1-1.3c-.6-1.8-3.6-3.5-6.6-3.7l-5.5-.4V625.1M119.5,24.7c8.7.5,22.2.5,30,0s.8-.9-15.7-.9-22.9.4-14.3.9m407.7,0a151.42,151.42,0,0,0,21.3,0c5.8-.5,1.1-1-10.6-1s-16.6.4-10.7,1m684.8,0c4.1.6,8.9,2.3,10.6,3.7,4.5,3.7,4.6,1190.2.1,1194.7-1.7,1.7-6.4,3.2-10.6,3.4l-7.6.4,7.1,1.1c18.3,2.7,16.7,63.4,16.7-602.2,0-663.7,1.6-603.4-16.5-602.5l-7.3.4,7.5,1M121.9,44.6a35.69,35.69,0,0,0,11.3,0c3.1-.6.6-1.1-5.6-1.1s-8.8.5-5.7,1.1m688.6,1c4.8.9,7.6,1.8,6.3,1.9s-2.5,4-2.4,8.5c0,4.9-1.4,8.7-3.7,9.6-2,.8,15.9,1.5,40,1.5s41.4-.6,38.6-1.5c-3.7-1.1-5-3.7-5-9.7,0-5.4-1.2-8.3-3.7-8.5-2.1-.2,1.3-1.1,7.5-2s-10.7-1.6-37.5-1.6-45,.9-40.1,1.8m.3,1140.2c2.6,1,3.8,4.3,3.7,9.6-.1,4.5.9,8.3,2.2,8.5s-1.4,1.1-6.3,1.9,13.2,1.6,40,1.7,43.7-.7,37.5-1.6-9.6-1.8-7.5-2c2.6-.3,3.7-3,3.5-8.5-.2-6.2,1-8.5,5-9.7,2.9-.8-14.4-1.5-38.4-1.5s-41.8.8-39.7,1.6m-688.9,22a35.7,35.7,0,0,0,11.3,0c3.1-.6.6-1.1-5.6-1.1s-8.8.5-5.7,1.1m-2.4,20.1c8.7.5,22.2.5,30,0s.8-.9-15.7-.9-22.9.4-14.3.9m410.2,0a133.4,133.4,0,0,0,20,0c5.1-.5.3-1-10.7-1s-15.2.5-9.3,1m277,.9c8.3.8,13.3,1.6,11.2,1.9-2.9.3-3.6,2.8-2.9,10.4l1,10h33.5c30.2,0,33.5-.4,33.7-4.4.1-2.4.5-6.9.8-10,.5-4.1-.8-5.7-4.6-6.1-2.9-.2,2.7-1.1,12.3-1.9s-8.9-1.4-41.3-1.4-51.9.7-43.7,1.5"/></g><g id="txt"><path d="M1414.82,336.4a169.68,169.68,0,0,1,12.5-65,174.3,174.3,0,0,1,34-53.5,163.88,163.88,0,0,1,50-36.5,138.48,138.48,0,0,1,60-13.5q43.5,0,76,13.75t53.75,37a152.24,152.24,0,0,1,31.75,53.75,195.26,195.26,0,0,1,10.5,64q0,39.5-13,70.75t-35.75,53a155.06,155.06,0,0,1-53.5,33.25,186.25,186.25,0,0,1-65.75,11.5q-35.51,0-65-12a144.48,144.48,0,0,1-50.75-34.25q-21.26-22.24-33-53.25T1414.82,336.4Zm172,144.5a101.38,101.38,0,0,0,43-9,99.23,99.23,0,0,0,33.5-25,115.13,115.13,0,0,0,21.75-38,143.58,143.58,0,0,0,7.75-48q0-36-7.5-66.75t-22.75-53.5a111.32,111.32,0,0,0-38.5-35.75q-23.25-13-54.25-13a101.79,101.79,0,0,0-39.25,7.75,97.07,97.07,0,0,0-33,22.5q-14.25,14.75-22.75,36.25t-8.5,49.5q0,37,8,68.75t23.25,55q15.25,23.25,37.75,36.25T1586.82,480.9Z"/><path d="M1815.32,308.9h-30v-9q0-5.5,4.75-6.75a86.7,86.7,0,0,1,10.25-2,27.74,27.74,0,0,0,10.25-3.5q4.75-2.74,4.75-11.75v-23q0-27.49,7.75-47t19.75-32.25a77,77,0,0,1,55.5-24.75,125.27,125.27,0,0,1,29.75,3.25,86.75,86.75,0,0,1,22.75,8.75,50.39,50.39,0,0,1,14.75,12.25q5.25,6.75,5.25,13.75,0,3-4.25,5.75a50.17,50.17,0,0,1-9.5,4.75,63.81,63.81,0,0,1-10.25,3,41.67,41.67,0,0,1-7,1,11.39,11.39,0,0,1-10.5-6,86,86,0,0,0-13.25-19.5q-7.76-8.5-23.25-8.5-18,0-26.75,14.75t-8.75,42.25v63.5h59q0,10-1.5,15.5t-8.5,5.5h-49v153q0,13,11.5,17.75t37.5,7.25q5.5,1,5.5,6.5a30.8,30.8,0,0,1-.5,4.5c-.34,2-.5,3.16-.5,3.5-1,0-3.92-.17-8.75-.5s-10.59-.67-17.25-1-13.84-.59-21.5-.75-14.84-.25-21.5-.25q-8.51,0-17.25.25t-16.75.75q-8,.49-13.75,1c-3.84.33-6.25.5-7.25.5,0-.34-.17-1.5-.5-3.5a29.73,29.73,0,0,1-.5-4.5q0-5,4.5-6a61.75,61.75,0,0,0,18-5.75,12.45,12.45,0,0,0,7-11.75Z"/><path d="M1969.81,308.9h-30v-9q0-5.5,4.75-6.75a86.7,86.7,0,0,1,10.25-2,27.74,27.74,0,0,0,10.25-3.5q4.75-2.74,4.75-11.75v-23q0-27.49,7.75-47t19.75-32.25a77,77,0,0,1,55.5-24.75,125.27,125.27,0,0,1,29.75,3.25,86.75,86.75,0,0,1,22.75,8.75,50.39,50.39,0,0,1,14.75,12.25q5.25,6.75,5.25,13.75,0,3-4.25,5.75a50.17,50.17,0,0,1-9.5,4.75,63.81,63.81,0,0,1-10.25,3,41.67,41.67,0,0,1-7,1,11.39,11.39,0,0,1-10.5-6,86,86,0,0,0-13.25-19.5q-7.76-8.5-23.25-8.5-18,0-26.75,14.75t-8.75,42.25v63.5h59q0,10-1.5,15.5t-8.5,5.5h-49v153q0,13,11.5,17.75t37.5,7.25q5.5,1,5.5,6.5a30.8,30.8,0,0,1-.5,4.5c-.34,2-.5,3.16-.5,3.5-1,0-3.92-.17-8.75-.5s-10.59-.67-17.25-1-13.84-.59-21.5-.75-14.84-.25-21.5-.25q-8.51,0-17.25.25t-16.75.75q-8,.49-13.75,1c-3.84.33-6.25.5-7.25.5,0-.34-.17-1.5-.5-3.5a29.73,29.73,0,0,1-.5-4.5q0-5,4.5-6a61.75,61.75,0,0,0,18-5.75,12.45,12.45,0,0,0,7-11.75Z"/><path d="M2147.06,498.9q-8.6,0-17.43.25t-16.32.75q-7.5.49-13,1c-3.67.33-6,.5-7,.5,0-.34-.17-1.5-.5-3.5a29.73,29.73,0,0,1-.5-4.5q0-5,4.5-6a101.11,101.11,0,0,0,21-6q8-3.49,8-11.5v-136q0-15-5.25-21.5t-22.75-8q-6.5-1-6.5-7a27.88,27.88,0,0,1,1-6.5q6.49,0,18.25-.75t19.3-1.75q11.63-2,20.73-4.25t13.15-2.25q7.08,0,7.08,7.5a112.51,112.51,0,0,1-1.5,16.75,176.48,176.48,0,0,0-1.5,25.75v138q0,8,7.75,11.5t21.75,6q4,1,4,6,0,1.5-.25,4.5c-.17,2-.42,3.16-.75,3.5-1,0-3.25-.17-6.75-.5s-7.75-.67-12.75-1-10.45-.59-16.33-.75S2152.79,498.9,2147.06,498.9Zm-29.25-300.5a29.23,29.23,0,0,1,8.25-20.75,27.33,27.33,0,0,1,20.75-8.75,26,26,0,0,1,20,8.75,29.75,29.75,0,0,1,8,20.75q0,13-8,21a27.13,27.13,0,0,1-20,8q-12.5,0-20.75-8T2117.81,198.4Z"/><path d="M2329.81,300.9q-23.51,0-38.25,20.5t-14.75,55.5q0,48.5,21.75,75.5t57.75,27q16,0,26.75-5a173.18,173.18,0,0,0,18.75-10q1.5-1,3.5-2.25a7.52,7.52,0,0,1,4-1.25c1.66,0,3.5,1.17,5.5,3.5a31.13,31.13,0,0,1,4,5.5,86.83,86.83,0,0,1-12.5,12,101.23,101.23,0,0,1-18,11.25,110.43,110.43,0,0,1-24.75,8.5,145.74,145.74,0,0,1-32.25,3.25,110.77,110.77,0,0,1-38.75-6.75,89.36,89.36,0,0,1-32-20.25q-13.76-13.5-21.75-33.75t-8-47.25q0-25.5,9.75-46.75a120.94,120.94,0,0,1,25-36.25,117.38,117.38,0,0,1,34-23.5q18.75-8.5,36.75-8.5a130.17,130.17,0,0,1,33.5,4,95,95,0,0,1,25.5,10.5,51.4,51.4,0,0,1,16.25,15.25,32.81,32.81,0,0,1,5.75,18.25q0,3-5,5a63.71,63.71,0,0,1-11.25,3.25,108.25,108.25,0,0,1-12,1.75q-5.75.5-6.75.5-6.5,0-10.25-6.25t-8.25-13.5a54.5,54.5,0,0,0-12.25-13.5Q2343.8,300.9,2329.81,300.9Z"/><path d="M2623.36,452.4a10.49,10.49,0,0,1,7.48-3.5q5,0,9.47,8.5a144.49,144.49,0,0,1-15,17.5,96.25,96.25,0,0,1-20.25,15.25,110.7,110.7,0,0,1-26.75,10.75q-15,4-34.5,4a111.13,111.13,0,0,1-38-6.5,86.92,86.92,0,0,1-31.75-20q-13.76-13.5-22-33.5t-8.25-47a112.47,112.47,0,0,1,9.75-47,121.14,121.14,0,0,1,25.25-36.75,118.38,118.38,0,0,1,34.25-23.75q18.75-8.5,36.25-8.5,46.5,0,67.75,27t21.25,70.5a2.65,2.65,0,0,1-3,3l-144.5,6.5a113.52,113.52,0,0,0,5.48,36,87,87,0,0,0,15.45,28.5,70.18,70.18,0,0,0,24.17,18.75q14.2,6.75,32.14,6.75a66.63,66.63,0,0,0,30.65-7.5A80.64,80.64,0,0,0,2623.36,452.4Zm-80.81-152.5q-24.89,0-38.81,19.5t-13.93,51l94-4.5q7.45,0,7.46-6.5a73.4,73.4,0,0,0-3-20,65.84,65.84,0,0,0-9-19.25,50.75,50.75,0,0,0-15.17-14.5Q2555,299.91,2542.55,299.9Z"/><path d="M2780.3,393.4a109.64,109.64,0,0,1,8.75-43.5,110.43,110.43,0,0,1,59-59.25,109.18,109.18,0,0,1,43.75-8.75,119.5,119.5,0,0,1,45,8.25,106.26,106.26,0,0,1,35.25,22.75,101.22,101.22,0,0,1,23,35.25,121.42,121.42,0,0,1,8.25,45.25,109.18,109.18,0,0,1-8.75,43.75,111.08,111.08,0,0,1-59,59,109.2,109.2,0,0,1-43.75,8.75q-24.5,0-45-8.25a106,106,0,0,1-35.25-22.75,101.44,101.44,0,0,1-23-35Q2780.3,418.4,2780.3,393.4Zm47-16.5a188.49,188.49,0,0,0,4,38,133.2,133.2,0,0,0,12.25,35.25,79.51,79.51,0,0,0,21.25,26q13,10.25,31.5,10.25,28.5,0,44.25-20t15.75-51.5a213,213,0,0,0-3.75-38.75,141.78,141.78,0,0,0-12-37,83.46,83.46,0,0,0-21.5-27.75q-13.25-11-32.75-11-26.51,0-42.75,18.25T2827.3,376.9Z"/><path d="M3069.3,308.9h-30v-9q0-5.5,4.75-6.75a86.7,86.7,0,0,1,10.25-2,27.74,27.74,0,0,0,10.25-3.5q4.75-2.74,4.75-11.75v-23q0-27.49,7.75-47t19.75-32.25a77,77,0,0,1,55.5-24.75,125.27,125.27,0,0,1,29.75,3.25,86.75,86.75,0,0,1,22.75,8.75,50.39,50.39,0,0,1,14.75,12.25q5.25,6.75,5.25,13.75,0,3-4.25,5.75a50.17,50.17,0,0,1-9.5,4.75,63.81,63.81,0,0,1-10.25,3,41.67,41.67,0,0,1-7,1,11.39,11.39,0,0,1-10.5-6,86,86,0,0,0-13.25-19.5q-7.76-8.5-23.25-8.5-18,0-26.75,14.75t-8.75,42.25v63.5h59q0,10-1.5,15.5t-8.5,5.5h-49v153q0,13,11.5,17.75t37.5,7.25q5.5,1,5.5,6.5a30.8,30.8,0,0,1-.5,4.5c-.34,2-.5,3.16-.5,3.5-1,0-3.92-.17-8.75-.5s-10.59-.67-17.25-1-13.84-.59-21.5-.75-14.84-.25-21.5-.25q-8.51,0-17.25.25t-16.75.75q-8,.49-13.75,1c-3.84.33-6.25.5-7.25.5,0-.34-.17-1.5-.5-3.5a29.73,29.73,0,0,1-.5-4.5q0-5,4.5-6a61.75,61.75,0,0,0,18-5.75,12.45,12.45,0,0,0,7-11.75Z"/><path d="M3388.29,463.9q0,10,7,13.75t26,7.75q5,1,5,8a43.19,43.19,0,0,1-1,8q-15.5-1-31-1.75t-29.5-.75q-13.5,0-29.75.75t-30.75,1.75a42.53,42.53,0,0,1-1-8q0-7,5-8,19-3.49,26-7.5t7-14V209.4q0-10-7-14.25t-26-7.25a4.79,4.79,0,0,1-4-3,14.57,14.57,0,0,1-1-5.5,42.6,42.6,0,0,1,1-8q15,1,31.25,1.75t29.25.75q12.49,0,28.75-.75t31.75-1.75a43.27,43.27,0,0,1,1,8q0,7.5-5,8.5-19,3-26,7.25t-7,14.25Z"/><path d="M3686.79,470.4q0,7.5,9,11.25a96.7,96.7,0,0,0,20,5.75q4.5,1,4.5,6a43.19,43.19,0,0,1-1,8q-13-1-25.5-1.75t-27-.75q-13.5,0-26.75.75t-26.25,1.75a42.53,42.53,0,0,1-1-8q0-5,4.5-6a87.38,87.38,0,0,0,19-5.75q8.5-3.75,8.5-11.25v-98a164.48,164.48,0,0,0-1.49-23,53.7,53.7,0,0,0-5.73-18.25,30.64,30.64,0,0,0-11.45-12q-7.22-4.24-18.66-4.25a72.34,72.34,0,0,0-24.38,4.25,63.08,63.08,0,0,0-21.15,12.5,60.47,60.47,0,0,0-14.68,20.25q-5.47,12-5.47,27.5v91q0,7.5,8.75,11.25a94,94,0,0,0,18.75,5.75q4.5,1,4.5,6a43.19,43.19,0,0,1-1,8q-13-1-25.55-1.75t-26.7-.75q-14.68,0-27.72.75t-25.53,1.75a42.53,42.53,0,0,1-1-8q0-5,4.5-6a96.84,96.84,0,0,0,20-5.75q9-3.75,9-11.75v-136q0-15-5.25-21.5t-22.75-8q-6.5-1-6.5-7a27.88,27.88,0,0,1,1-6.5q6.49,0,18.25-.75t19.3-1.75q11.63-2,20.73-4.25t13.15-2.25q7.08,0,7.08,7.5a112.51,112.51,0,0,1-1.5,16.75,176.48,176.48,0,0,0-1.5,25.75q21.42-24,41.11-37a76.61,76.61,0,0,1,43.1-13q30.39,0,45.59,17.75t15.2,49.25Z"/><path d="M3885.28,343.4c-2.67,0-4.59-.58-5.75-1.75a8,8,0,0,1-2.25-3.75q-3.5-20.5-16.25-29.25t-31.75-8.75a42.41,42.41,0,0,0-25.75,8.25q-11.25,8.25-11.25,22.75,0,13,10.25,21.75t37.25,17.25a237.52,237.52,0,0,1,26.75,10,82.43,82.43,0,0,1,21,13.25,54.81,54.81,0,0,1,13.75,19q5,11.25,5,26.75a67.35,67.35,0,0,1-4.75,25,56.74,56.74,0,0,1-14.5,21q-9.75,9-24.5,14.5t-35.25,5.5a193.25,193.25,0,0,1-35.75-3.75,116.73,116.73,0,0,1-35.75-12.75q-1-13-1.75-27.25t-.75-28.75h5a18.91,18.91,0,0,1,8.5,1.75,7,7,0,0,1,4,5.75q2,21,16.25,33.75t39.75,12.75q20.5,0,31.5-9.25t11-25.25q0-16.5-12-25.25t-35.5-15.75q-29.51-9-46.25-23.5t-16.75-42.5a60.78,60.78,0,0,1,19-44.5,66.24,66.24,0,0,1,22-13.5,80.3,80.3,0,0,1,29-5,132.5,132.5,0,0,1,37.75,5.25q17.74,5.25,27.75,11.25.49,4,1,9.75t.75,12q.25,6.26.5,12.5t.25,11.25Z"/><path d="M4060.78,469.4a11.1,11.1,0,0,1,4.25-3,10.9,10.9,0,0,1,2.75-.5q4.5,0,8,6.5a122.08,122.08,0,0,1-28,23.5,61.18,61.18,0,0,1-32,9,78.05,78.05,0,0,1-19-2.25,32.7,32.7,0,0,1-15.5-8.75q-6.5-6.49-10.25-17.75t-3.75-29.25v-138h-30v-5.5a16.7,16.7,0,0,1,1.25-6.5q1.24-3,5.25-3,13.5,0,22-7a54.51,54.51,0,0,0,14-18q6-12,10.5-22.5t10-10.5h9v52h58.5q0,10.5-2.25,15.75t-8.25,5.25h-48v124a176.41,176.41,0,0,0,1.5,25.75q1.5,9.75,4.5,15t7,6.75a25.46,25.46,0,0,0,9,1.5,33.79,33.79,0,0,0,15.75-3.75A91.51,91.51,0,0,0,4060.78,469.4Z"/><path d="M4150.52,498.9q-8.6,0-17.43.25t-16.32.75q-7.5.49-13,1c-3.67.33-6,.5-7,.5,0-.34-.17-1.5-.5-3.5a29.73,29.73,0,0,1-.5-4.5q0-5,4.5-6a101.11,101.11,0,0,0,21-6q8-3.49,8-11.5v-136q0-15-5.25-21.5t-22.75-8q-6.5-1-6.5-7a27.88,27.88,0,0,1,1-6.5q6.49,0,18.25-.75t19.3-1.75q11.63-2,20.73-4.25t13.15-2.25q7.08,0,7.08,7.5a112.51,112.51,0,0,1-1.5,16.75,176.48,176.48,0,0,0-1.5,25.75v138q0,8,7.75,11.5t21.75,6q4,1,4,6,0,1.5-.25,4.5c-.17,2-.42,3.16-.75,3.5-1,0-3.25-.17-6.75-.5s-7.75-.67-12.75-1-10.45-.59-16.33-.75S4156.26,498.9,4150.52,498.9Zm-29.25-300.5a29.23,29.23,0,0,1,8.25-20.75,27.33,27.33,0,0,1,20.75-8.75,26,26,0,0,1,20,8.75,29.75,29.75,0,0,1,8,20.75q0,13-8,21a27.13,27.13,0,0,1-20,8q-12.5,0-20.75-8T4121.27,198.4Z"/><path d="M4350.77,469.4a11.1,11.1,0,0,1,4.25-3,10.9,10.9,0,0,1,2.75-.5q4.5,0,8,6.5a122.08,122.08,0,0,1-28,23.5,61.18,61.18,0,0,1-32,9,78.05,78.05,0,0,1-19-2.25,32.7,32.7,0,0,1-15.5-8.75q-6.5-6.49-10.25-17.75t-3.75-29.25v-138h-30v-5.5a16.7,16.7,0,0,1,1.25-6.5q1.24-3,5.25-3,13.5,0,22-7a54.51,54.51,0,0,0,14-18q6-12,10.5-22.5t10-10.5h9v52h58.5q0,10.5-2.25,15.75t-8.25,5.25h-48v124a176.41,176.41,0,0,0,1.5,25.75q1.5,9.75,4.5,15t7,6.75a25.46,25.46,0,0,0,9,1.5,33.79,33.79,0,0,0,15.75-3.75A91.51,91.51,0,0,0,4350.77,469.4Z"/><path d="M4414.27,333.9q0-16.5-4.75-22.25t-21.75-7.25q-6.5-1-6.5-6.5a29.15,29.15,0,0,1,1-7q6.49,0,17.25-.75a147.17,147.17,0,0,0,18.25-2.25,152.08,152.08,0,0,0,19.25-3.75q8.25-2.25,12.25-2.25,7,0,7,7.5v125a163.16,163.16,0,0,0,1.5,23,57.1,57.1,0,0,0,5.5,18.25,28.46,28.46,0,0,0,11.5,12q7.5,4.25,19,4.25a72.84,72.84,0,0,0,24.5-4.25,63.33,63.33,0,0,0,21.25-12.5,60.65,60.65,0,0,0,14.75-20.25q5.5-12,5.5-28v-73q0-16-4.75-22t-22.25-7.5q-6.5-1-6.5-6.5a29.15,29.15,0,0,1,1-7q6.49,0,17.25-.75a165.76,165.76,0,0,0,18.75-2.25,145.48,145.48,0,0,0,19.25-3.75q8.1-2.25,12.16-2.25,7.09,0,7.09,7.5V451.9a75.69,75.69,0,0,0,1,13.75,16.84,16.84,0,0,0,4,8.5,19.17,19.17,0,0,0,8.25,5,54.27,54.27,0,0,0,13.75,2.25q6.49,1,6.5,6.5a29.5,29.5,0,0,1-1,7,141.58,141.58,0,0,0-20,1.5q-10.5,1.5-20.1,3t-16.95,3a60.5,60.5,0,0,1-10.37,1.5q-7.09,0-7.09-7.5V454.9q-1.5,1.5-8.5,9.5a143.27,143.27,0,0,1-18.25,17,140.93,140.93,0,0,1-26,16.25,71.1,71.1,0,0,1-31.75,7.25q-30.5,0-45.75-17.5t-15.25-49.5Z"/><path d="M4781.27,469.4a11.1,11.1,0,0,1,4.25-3,10.9,10.9,0,0,1,2.75-.5q4.5,0,8,6.5a122.08,122.08,0,0,1-28,23.5,61.18,61.18,0,0,1-32,9,78.05,78.05,0,0,1-19-2.25,32.7,32.7,0,0,1-15.5-8.75q-6.5-6.49-10.25-17.75t-3.75-29.25v-138h-30v-5.5a16.7,16.7,0,0,1,1.25-6.5q1.24-3,5.25-3,13.5,0,22-7a54.51,54.51,0,0,0,14-18q6-12,10.5-22.5t10-10.5h9v52h58.5q0,10.5-2.25,15.75t-8.25,5.25h-48v124a176.41,176.41,0,0,0,1.5,25.75q1.5,9.75,4.5,15t7,6.75a25.46,25.46,0,0,0,9,1.5,33.79,33.79,0,0,0,15.75-3.75A91.51,91.51,0,0,0,4781.27,469.4Z"/><path d="M4871,498.9q-8.6,0-17.43.25t-16.32.75q-7.5.49-13,1c-3.67.33-6,.5-7,.5,0-.34-.17-1.5-.5-3.5a29.73,29.73,0,0,1-.5-4.5q0-5,4.5-6a101.11,101.11,0,0,0,21-6q8-3.49,8-11.5v-136q0-15-5.25-21.5t-22.75-8q-6.5-1-6.5-7a27.88,27.88,0,0,1,1-6.5q6.49,0,18.25-.75t19.3-1.75q11.63-2,20.73-4.25t13.15-2.25q7.08,0,7.08,7.5a112.51,112.51,0,0,1-1.5,16.75,176.48,176.48,0,0,0-1.5,25.75v138q0,8,7.75,11.5t21.75,6q4,1,4,6,0,1.5-.25,4.5c-.17,2-.42,3.16-.75,3.5-1,0-3.25-.17-6.75-.5s-7.75-.67-12.75-1-10.45-.59-16.33-.75S4876.75,498.9,4871,498.9Zm-29.25-300.5a29.23,29.23,0,0,1,8.25-20.75,27.33,27.33,0,0,1,20.75-8.75,26,26,0,0,1,20,8.75,29.75,29.75,0,0,1,8,20.75q0,13-8,21a27.13,27.13,0,0,1-20,8q-12.5,0-20.75-8T4841.76,198.4Z"/><path d="M4954.26,393.4a109.64,109.64,0,0,1,8.75-43.5,110.43,110.43,0,0,1,59-59.25,109.18,109.18,0,0,1,43.75-8.75,119.5,119.5,0,0,1,45,8.25A106.26,106.26,0,0,1,5146,312.9a101.22,101.22,0,0,1,23,35.25,121.42,121.42,0,0,1,8.25,45.25,109.18,109.18,0,0,1-8.75,43.75,111.08,111.08,0,0,1-59,59,109.2,109.2,0,0,1-43.75,8.75q-24.5,0-45-8.25a106,106,0,0,1-35.25-22.75,101.44,101.44,0,0,1-23-35Q4954.26,418.4,4954.26,393.4Zm47-16.5a188.49,188.49,0,0,0,4,38,133.2,133.2,0,0,0,12.25,35.25,79.51,79.51,0,0,0,21.25,26q13,10.25,31.5,10.25,28.5,0,44.25-20t15.75-51.5a213,213,0,0,0-3.75-38.75,141.78,141.78,0,0,0-12-37A83.46,83.46,0,0,0,5093,311.4q-13.25-11-32.75-11-26.51,0-42.75,18.25T5001.26,376.9Z"/><path d="M5431.76,470.4q0,7.5,9,11.25a96.7,96.7,0,0,0,20,5.75q4.5,1,4.5,6a43.19,43.19,0,0,1-1,8q-13-1-25.5-1.75t-27-.75q-13.5,0-26.75.75t-26.25,1.75a42.53,42.53,0,0,1-1-8q0-5,4.5-6a87.38,87.38,0,0,0,19-5.75q8.5-3.75,8.5-11.25v-98a164.48,164.48,0,0,0-1.49-23,53.7,53.7,0,0,0-5.73-18.25,30.64,30.64,0,0,0-11.45-12q-7.22-4.24-18.66-4.25a72.34,72.34,0,0,0-24.38,4.25,63.08,63.08,0,0,0-21.15,12.5,60.47,60.47,0,0,0-14.68,20.25q-5.47,12-5.47,27.5v91q0,7.5,8.75,11.25a94,94,0,0,0,18.75,5.75q4.5,1,4.5,6a43.19,43.19,0,0,1-1,8q-13-1-25.55-1.75t-26.7-.75q-14.68,0-27.72.75t-25.53,1.75a42.53,42.53,0,0,1-1-8q0-5,4.5-6a96.84,96.84,0,0,0,20-5.75q9-3.75,9-11.75v-136q0-15-5.25-21.5t-22.75-8q-6.5-1-6.5-7a27.88,27.88,0,0,1,1-6.5q6.49,0,18.25-.75t19.3-1.75q11.63-2,20.73-4.25t13.15-2.25q7.08,0,7.08,7.5a112.51,112.51,0,0,1-1.5,16.75,176.48,176.48,0,0,0-1.5,25.75q21.42-24,41.11-37a76.61,76.61,0,0,1,43.1-13q30.39,0,45.59,17.75t15.2,49.25Z"/><path d="M5703.75,485.4q5.5,0,6,10.5-13,9-33,9a51.41,51.41,0,0,1-19.16-3.25,40.71,40.71,0,0,1-13.67-8.75,39.39,39.39,0,0,1-8.61-12.5,54.25,54.25,0,0,1-4.05-14.5q-12.5,22.5-29.75,30.75t-39.75,8.25a138.81,138.81,0,0,1-21.25-1.75,64.42,64.42,0,0,1-21.25-7.25,45.7,45.7,0,0,1-16.5-15.5q-6.5-10-6.5-26.5,0-18.49,8.75-31.25a71.4,71.4,0,0,1,22.5-21,135.5,135.5,0,0,1,30-13.25q16.24-5,31.25-8.5,8.5-1.5,15.75-3.25a119.54,119.54,0,0,0,12.75-3.75q7-2,8.75-5.5t1.75-13.5q0-23.5-9-38.75t-32-15.25a46.28,46.28,0,0,0-14.5,2,23.85,23.85,0,0,0-10,6.25,38.21,38.21,0,0,0-7,11.25q-3,7-6,16.5a12,12,0,0,1-6.75,8q-5.25,2.51-17.75,6a75.12,75.12,0,0,1-7.5,2,35.44,35.44,0,0,1-7.5,1q-5,0-5-10.5,0-11,8.5-22A85.43,85.43,0,0,1,5535,300.9a130.54,130.54,0,0,1,28.75-13.75,91.93,91.93,0,0,1,29.5-5.25,151.82,151.82,0,0,1,31.56,3,57.9,57.9,0,0,1,24.19,11q10.13,8,15.44,21.5t5.31,35v86q0,17.51,1.25,25.25a37.77,37.77,0,0,0,3.75,12.25q3.49,7,7.75,9.25a18.47,18.47,0,0,0,8.75,2.25c3.66,0,6.25-.33,7.75-1A11.59,11.59,0,0,1,5703.75,485.4Zm-76-97.5-16.09,2.5q-13.08,2.51-25.41,6a79.28,79.28,0,0,0-21.87,9.75A49.36,49.36,0,0,0,5549,421.9q-5.79,9.5-5.78,23.5,0,19,9.8,29t24.4,10a45,45,0,0,0,18.86-4.25,47.21,47.21,0,0,0,16.09-12,64,64,0,0,0,11.07-18.25,60.54,60.54,0,0,0,4.27-23Z"/><path d="M5840.75,501.4q-13-1-26.55-1.75t-27.2-.75q-13.66,0-28,.75t-26.8,1.75a42.53,42.53,0,0,1-1-8q0-5,4.5-6a108.43,108.43,0,0,0,20.5-5.75q9.49-3.75,9.5-11.75v-269q0-16-6.25-21.75t-23.75-7.25q-6.5-1-6.5-7a29.15,29.15,0,0,1,1-7q6.49,0,18-.75t21-1.75a151.38,151.38,0,0,0,20.73-4q9.09-2.5,13.15-2.5c3,0,5.05.67,6.07,2a9,9,0,0,1,1.52,5.5,151.67,151.67,0,0,1-1.5,19.75,201.2,201.2,0,0,0-1.5,26.25V469.9q0,8,9.25,11.75a101,101,0,0,0,20.75,5.75q4,1,4,6A43.19,43.19,0,0,1,5840.75,501.4Z"/><path d="M1539.82,952.9h-37v110q0,11,10.25,15t31.25,6.5q6,1,6,8.5a44.63,44.63,0,0,1-1,8.5q-13.5-1-32.75-1.75t-37.75-.75q-13,0-30,.75t-32,1.75a42.53,42.53,0,0,1-1-8q0-7,5.5-8,19-3,26.75-7.25t7.75-14.25V809.4q0-9.49-7.25-14.25t-28.25-7.25q-5-.49-5-8.5a42.6,42.6,0,0,1,1-8q15,1,31,1.75t30.5.75h67.5q54,0,81.5,23.75t27.5,64.25a77,77,0,0,1-3.75,23,90.23,90.23,0,0,1-11.5,23.5,95.66,95.66,0,0,1-20,21.25,101.45,101.45,0,0,1-28.75,15.75l83.5,116q9.49,13,21,18a138,138,0,0,0,21.5,7.5q4.5,1,4.5,7a46.53,46.53,0,0,1-1,9q-11.51-1-28-1.75t-30.5-.75q-10.5,0-21.25-9a110.59,110.59,0,0,1-20.25-23Zm-10.5-20.5q35,0,54-14.75t19-51.75a96.68,96.68,0,0,0-4-28.5,58,58,0,0,0-12.75-22.5q-8.75-9.49-23-15t-34.75-5.5h-25v138Z"/><path d="M1910.37,1052.4a10.49,10.49,0,0,1,7.48-3.5q5,0,9.47,8.5a144.49,144.49,0,0,1-15,17.5,96.25,96.25,0,0,1-20.25,15.25,110.7,110.7,0,0,1-26.75,10.75q-15,4-34.5,4a111.13,111.13,0,0,1-38-6.5,86.92,86.92,0,0,1-31.75-20q-13.76-13.5-22-33.5t-8.25-47a112.47,112.47,0,0,1,9.75-47,121.14,121.14,0,0,1,25.25-36.75,118.38,118.38,0,0,1,34.25-23.75q18.75-8.5,36.25-8.5,46.5,0,67.75,27t21.25,70.5a2.65,2.65,0,0,1-3,3l-144.5,6.5a113.52,113.52,0,0,0,5.48,36,87,87,0,0,0,15.45,28.5,70.18,70.18,0,0,0,24.17,18.75q14.2,6.75,32.14,6.75a66.63,66.63,0,0,0,30.65-7.5A80.64,80.64,0,0,0,1910.37,1052.4Zm-80.81-152.5q-24.89,0-38.81,19.5t-13.93,51l94-4.5q7.45,0,7.46-6.5a73.4,73.4,0,0,0-3-20,65.84,65.84,0,0,0-9-19.25,50.75,50.75,0,0,0-15.17-14.5Q1842,899.91,1829.56,899.9Z"/><path d="M2097.32,943.4c-2.67,0-4.59-.58-5.75-1.75a8,8,0,0,1-2.25-3.75q-3.5-20.5-16.25-29.25t-31.75-8.75a42.41,42.41,0,0,0-25.75,8.25q-11.25,8.25-11.25,22.75,0,13,10.25,21.75t37.25,17.25a237.52,237.52,0,0,1,26.75,10,82.43,82.43,0,0,1,21,13.25,54.81,54.81,0,0,1,13.75,19q5,11.25,5,26.75a67.35,67.35,0,0,1-4.75,25,56.74,56.74,0,0,1-14.5,21q-9.75,9-24.5,14.5t-35.25,5.5a193.25,193.25,0,0,1-35.75-3.75,116.73,116.73,0,0,1-35.75-12.75q-1-13-1.75-27.25t-.75-28.75h5a18.91,18.91,0,0,1,8.5,1.75,7,7,0,0,1,4,5.75q2,21,16.25,33.75t39.75,12.75q20.5,0,31.5-9.25t11-25.25q0-16.5-12-25.25t-35.5-15.75q-29.51-9-46.25-23.5t-16.75-42.5a60.78,60.78,0,0,1,19-44.5,66.24,66.24,0,0,1,22-13.5,80.3,80.3,0,0,1,29-5,132.5,132.5,0,0,1,37.75,5.25q17.74,5.25,27.75,11.25.49,4,1,9.75t.75,12q.25,6.26.5,12.5t.25,11.25Z"/><path d="M2336.37,1052.4a10.49,10.49,0,0,1,7.48-3.5q5,0,9.47,8.5a144.49,144.49,0,0,1-15,17.5,96.25,96.25,0,0,1-20.25,15.25,110.7,110.7,0,0,1-26.75,10.75q-15,4-34.5,4a111.13,111.13,0,0,1-38-6.5,86.92,86.92,0,0,1-31.75-20q-13.76-13.5-22-33.5t-8.25-47a112.47,112.47,0,0,1,9.75-47,121.14,121.14,0,0,1,25.25-36.75,118.38,118.38,0,0,1,34.25-23.75q18.75-8.5,36.25-8.5,46.5,0,67.75,27t21.25,70.5a2.65,2.65,0,0,1-3,3l-144.5,6.5a113.52,113.52,0,0,0,5.48,36,87,87,0,0,0,15.45,28.5,70.18,70.18,0,0,0,24.17,18.75q14.2,6.75,32.14,6.75a66.63,66.63,0,0,0,30.65-7.5A80.64,80.64,0,0,0,2336.37,1052.4Zm-80.81-152.5q-24.89,0-38.81,19.5t-13.93,51l94-4.5q7.45,0,7.46-6.5a73.4,73.4,0,0,0-3-20,65.84,65.84,0,0,0-9-19.25,50.75,50.75,0,0,0-15.17-14.5Q2268,899.91,2255.56,899.9Z"/><path d="M2596.81,1085.4q5.5,0,6,10.5-13,9-33,9a51.41,51.41,0,0,1-19.16-3.25,40.71,40.71,0,0,1-13.67-8.75,39.39,39.39,0,0,1-8.61-12.5,54.25,54.25,0,0,1-4.05-14.5q-12.5,22.5-29.75,30.75t-39.75,8.25a138.81,138.81,0,0,1-21.25-1.75,64.42,64.42,0,0,1-21.25-7.25,45.7,45.7,0,0,1-16.5-15.5q-6.5-10-6.5-26.5,0-18.49,8.75-31.25a71.4,71.4,0,0,1,22.5-21,135.5,135.5,0,0,1,30-13.25q16.24-5,31.25-8.5,8.5-1.5,15.75-3.25a119.54,119.54,0,0,0,12.75-3.75q7-2,8.75-5.5t1.75-13.5q0-23.5-9-38.75t-32-15.25a46.28,46.28,0,0,0-14.5,2,23.85,23.85,0,0,0-10,6.25,38.21,38.21,0,0,0-7,11.25q-3,7-6,16.5a12,12,0,0,1-6.75,8q-5.25,2.51-17.75,6a75.12,75.12,0,0,1-7.5,2,35.44,35.44,0,0,1-7.5,1q-5,0-5-10.5,0-11,8.5-22a85.43,85.43,0,0,1,21.75-19.5,130.54,130.54,0,0,1,28.75-13.75,91.93,91.93,0,0,1,29.5-5.25,151.82,151.82,0,0,1,31.56,3,57.9,57.9,0,0,1,24.19,11q10.13,8,15.44,21.5t5.31,35v86q0,17.51,1.25,25.25a37.77,37.77,0,0,0,3.75,12.25q3.49,7,7.75,9.25a18.47,18.47,0,0,0,8.75,2.25c3.66,0,6.25-.33,7.75-1A11.59,11.59,0,0,1,2596.81,1085.4Zm-76-97.5-16.09,2.5q-13.08,2.51-25.41,6a79.28,79.28,0,0,0-21.87,9.75,49.36,49.36,0,0,0-15.34,15.75q-5.79,9.5-5.78,23.5,0,19,9.8,29t24.4,10a45,45,0,0,0,18.86-4.25,47.21,47.21,0,0,0,16.09-12,64,64,0,0,0,11.07-18.25,60.54,60.54,0,0,0,4.27-23Z"/><path d="M2767.81,882.4q14.5,0,21.5,7t7,15.5a14.72,14.72,0,0,1-1,5.5q-1,2.51-4.75,5.25a102.63,102.63,0,0,1-10.5,6.5q-6.75,3.75-18.75,9.25a45.58,45.58,0,0,0-10.75-9.5,25,25,0,0,0-13.75-4,27,27,0,0,0-15.5,4.75,41.09,41.09,0,0,0-12,13,69.62,69.62,0,0,0-7.75,19,89.35,89.35,0,0,0-2.75,22.25v86q0,11,11.5,16.25t33,8.25q5,1,5,6a43.19,43.19,0,0,1-1,8q-5.51-.5-13.75-.75t-17.25-.75q-9-.5-18.56-.75t-17.66-.25q-13.66,0-28.22.75t-27.55,1.75a42.53,42.53,0,0,1-1-8q0-5,4.5-6a82.4,82.4,0,0,0,20.25-6q8.74-4,8.75-11.5v-127a102.66,102.66,0,0,0-1.25-17.5,27.93,27.93,0,0,0-4.25-11.25,17.32,17.32,0,0,0-8.75-6.25,69.81,69.81,0,0,0-14.75-3q-6.5-1-6.5-6.5a29.15,29.15,0,0,1,1-7q6.49,0,18.25-.75t19.29-1.75q11.13-2,19.48-4.25t12.4-2.25q7.08,0,7.09,7.5v33.5a214.3,214.3,0,0,1,32.25-29.25A61.18,61.18,0,0,1,2767.81,882.4Z"/><path d="M2901.31,900.9q-23.51,0-38.25,20.5t-14.75,55.5q0,48.5,21.75,75.5t57.75,27q16,0,26.75-5a173.18,173.18,0,0,0,18.75-10q1.5-1,3.5-2.25a7.52,7.52,0,0,1,4-1.25c1.66,0,3.5,1.17,5.5,3.5a31.13,31.13,0,0,1,4,5.5,86.83,86.83,0,0,1-12.5,12,101.23,101.23,0,0,1-18,11.25,110.43,110.43,0,0,1-24.75,8.5,145.74,145.74,0,0,1-32.25,3.25,110.77,110.77,0,0,1-38.75-6.75,89.36,89.36,0,0,1-32-20.25q-13.76-13.5-21.75-33.75t-8-47.25q0-25.5,9.75-46.75a120.94,120.94,0,0,1,25-36.25,117.38,117.38,0,0,1,34-23.5q18.75-8.5,36.75-8.5a130.17,130.17,0,0,1,33.5,4,95,95,0,0,1,25.5,10.5,51.4,51.4,0,0,1,16.25,15.25,32.81,32.81,0,0,1,5.75,18.25q0,3-5,5a63.71,63.71,0,0,1-11.25,3.25,108.25,108.25,0,0,1-12,1.75q-5.75.5-6.75.5-6.5,0-10.25-6.25t-8.25-13.5a54.5,54.5,0,0,0-12.25-13.5Q2915.3,900.9,2901.31,900.9Z"/><path d="M3095.31,931.4q1.5-1,8.5-9a148.32,148.32,0,0,1,44-33.25,70.59,70.59,0,0,1,32-7.25,75.57,75.57,0,0,1,23,3.5,48.46,48.46,0,0,1,19.25,11.5,58.25,58.25,0,0,1,13.25,20.5q5,12.5,5,31v122q0,7.5,9,11.25a95.74,95.74,0,0,0,20.5,5.75q4,1,4,6a43.19,43.19,0,0,1-1,8q-13-1-25.28-1.75t-27.46-.75q-13.16,0-26.46.75t-26.3,1.75a42.53,42.53,0,0,1-1-8q0-5,4.5-6a48.21,48.21,0,0,0,9.25-2,59.89,59.89,0,0,0,8.75-3.5,25.6,25.6,0,0,0,6.75-4.75,9.18,9.18,0,0,0,2.75-6.75v-98a164.48,164.48,0,0,0-1.49-23,53.7,53.7,0,0,0-5.73-18.25,30.64,30.64,0,0,0-11.45-12q-7.22-4.24-18.66-4.25a72.34,72.34,0,0,0-24.38,4.25,63.08,63.08,0,0,0-21.15,12.5,60.47,60.47,0,0,0-14.68,20.25q-5.47,12-5.47,27.5v91q0,7.5,8.5,11.25a87.24,87.24,0,0,0,19,5.75q4.5,1,4.5,6a43.19,43.19,0,0,1-1,8q-13-1-25.55-1.75t-26.7-.75q-14.68,0-27.72.75t-25.53,1.75a42.53,42.53,0,0,1-1-8q0-5,4-6a95.87,95.87,0,0,0,20.5-5.75q9-3.75,9-11.75v-269q0-16-6-21.5t-24-7.5q-6.5-1-6.5-7a29.15,29.15,0,0,1,1-7q6.49,0,18-.75t21-1.75a152,152,0,0,0,20.75-4q9.11-2.5,13.16-2.5c3,0,5.05.67,6.07,2a8.9,8.9,0,0,1,1.52,5.5,151.67,151.67,0,0,1-1.5,19.75,201.2,201.2,0,0,0-1.5,26.25Z"/><path d="M3617.8,1085.4q5.5,0,6,10.5-13,9-33,9a51.41,51.41,0,0,1-19.16-3.25,40.71,40.71,0,0,1-13.67-8.75,39.39,39.39,0,0,1-8.61-12.5,54.25,54.25,0,0,1-4.05-14.5q-12.5,22.5-29.75,30.75t-39.75,8.25a138.81,138.81,0,0,1-21.25-1.75,64.42,64.42,0,0,1-21.25-7.25,45.7,45.7,0,0,1-16.5-15.5q-6.5-10-6.5-26.5,0-18.49,8.75-31.25a71.4,71.4,0,0,1,22.5-21,135.5,135.5,0,0,1,30-13.25q16.24-5,31.25-8.5,8.5-1.5,15.75-3.25a119.54,119.54,0,0,0,12.75-3.75q7-2,8.75-5.5t1.75-13.5q0-23.5-9-38.75t-32-15.25a46.28,46.28,0,0,0-14.5,2,23.85,23.85,0,0,0-10,6.25,38.21,38.21,0,0,0-7,11.25q-3,7-6,16.5a12,12,0,0,1-6.75,8q-5.25,2.51-17.75,6a75.12,75.12,0,0,1-7.5,2,35.44,35.44,0,0,1-7.5,1q-5,0-5-10.5,0-11,8.5-22A85.43,85.43,0,0,1,3449,900.9a130.54,130.54,0,0,1,28.75-13.75,91.93,91.93,0,0,1,29.5-5.25,151.82,151.82,0,0,1,31.56,3,57.9,57.9,0,0,1,24.19,11q10.13,8,15.44,21.5t5.31,35v86q0,17.51,1.25,25.25a37.77,37.77,0,0,0,3.75,12.25q3.49,7,7.75,9.25a18.47,18.47,0,0,0,8.75,2.25c3.66,0,6.25-.33,7.75-1A11.59,11.59,0,0,1,3617.8,1085.4Zm-76-97.5-16.09,2.5q-13.08,2.51-25.41,6a79.28,79.28,0,0,0-21.87,9.75,49.36,49.36,0,0,0-15.34,15.75q-5.79,9.5-5.78,23.5,0,19,9.8,29t24.4,10a45,45,0,0,0,18.86-4.25,47.21,47.21,0,0,0,16.09-12,64,64,0,0,0,11.07-18.25,60.54,60.54,0,0,0,4.27-23Z"/><path d="M3864.79,1070.4q0,7.5,9,11.25a96.7,96.7,0,0,0,20,5.75q4.5,1,4.5,6a43.19,43.19,0,0,1-1,8q-13-1-25.5-1.75t-27-.75q-13.5,0-26.75.75t-26.25,1.75a42.53,42.53,0,0,1-1-8q0-5,4.5-6a87.38,87.38,0,0,0,19-5.75q8.5-3.75,8.5-11.25v-98a164.48,164.48,0,0,0-1.49-23,53.7,53.7,0,0,0-5.73-18.25,30.64,30.64,0,0,0-11.45-12q-7.22-4.24-18.66-4.25a72.34,72.34,0,0,0-24.38,4.25,63.08,63.08,0,0,0-21.15,12.5,60.47,60.47,0,0,0-14.68,20.25q-5.47,12-5.47,27.5v91q0,7.5,8.75,11.25a94,94,0,0,0,18.75,5.75q4.5,1,4.5,6a43.19,43.19,0,0,1-1,8q-13-1-25.55-1.75t-26.7-.75q-14.68,0-27.72.75t-25.53,1.75a42.53,42.53,0,0,1-1-8q0-5,4.5-6a96.84,96.84,0,0,0,20-5.75q9-3.75,9-11.75v-136q0-15-5.25-21.5t-22.75-8q-6.5-1-6.5-7a27.88,27.88,0,0,1,1-6.5q6.49,0,18.25-.75t19.3-1.75q11.63-2,20.73-4.25t13.15-2.25q7.08,0,7.08,7.5a112.51,112.51,0,0,1-1.5,16.75,176.48,176.48,0,0,0-1.5,25.75q21.42-24,41.11-37a76.61,76.61,0,0,1,43.1-13q30.39,0,45.59,17.75t15.2,49.25Z"/><path d="M4136.79,1054.4a45,45,0,0,0,1,10.25,14.82,14.82,0,0,0,4,7.25,20.69,20.69,0,0,0,8.25,4.75,70.28,70.28,0,0,0,13.75,2.75q6.49,1,6.5,6.5a29.5,29.5,0,0,1-1,7q-6.5,0-17.25.75t-18.25,1.75q-11.14,2-19.5,4.25t-12.41,2.25q-7.1,0-7.09-7.5v-38q-7,9.5-14,18.25a84.57,84.57,0,0,1-16.25,15.5,77.15,77.15,0,0,1-21.25,10.75q-12,4-29,4a78.1,78.1,0,0,1-32.5-7,80,80,0,0,1-27.5-20.75q-12-13.75-19.25-33.75t-7.25-45.5q0-27.49,10.5-49.25t26-36.5a112.87,112.87,0,0,1,33.75-22.5q18.25-7.75,33.75-7.75a137.52,137.52,0,0,1,33.75,3.75,215.47,215.47,0,0,1,29.25,9.75V800.9q0-15-5.25-21.25t-22.75-7.75q-6.5-1-6.5-7a29.15,29.15,0,0,1,1-7q6.49,0,18.25-.75t19.3-1.75a151.61,151.61,0,0,0,20.73-4q9.09-2.5,13.15-2.5,7.08,0,7.08,7.5a146.07,146.07,0,0,1-1.5,19.5,204.56,204.56,0,0,0-1.5,27Zm-42-126.5a100.44,100.44,0,0,0-27.5-20.5q-15-7.5-34-7.5-29,0-43.75,24t-14.75,61.5a150.87,150.87,0,0,0,4.25,36.25,101.06,101.06,0,0,0,12.5,30.25,65.29,65.29,0,0,0,20,20.5,47.74,47.74,0,0,0,26.25,7.5q10,0,20-6a78.57,78.57,0,0,0,18.25-15.25,80.8,80.8,0,0,0,13.5-21,56.62,56.62,0,0,0,5.25-23.25Z"/><path d="M4502.78,979.9h-111.5l-32,80.5a27.12,27.12,0,0,0-2.5,10q0,10.5,30.5,15,3.49.5,4.75,2.75a10.69,10.69,0,0,1,1.25,5.25,43.19,43.19,0,0,1-1,8q-13.5-1-28.5-1.75t-29.5-.75q-10,0-20.5.5t-22,2a32.58,32.58,0,0,1-1-8,13.29,13.29,0,0,1,1.25-6q1.24-2.5,5.25-3,15.49-2.5,23.25-6.25a22.78,22.78,0,0,0,11.25-11.75l120.5-290q3.49-8.5,9.5-8.5a27.61,27.61,0,0,1,6,1l121,299q3,7,13.5,11a98.38,98.38,0,0,0,20.5,5.5,12.05,12.05,0,0,1,4.75,2.75c1.16,1.17,1.75,3.25,1.75,6.25a43.19,43.19,0,0,1-1,8q-16-1-31.5-1.75t-29-.75q-14,0-32,.75t-32.5,1.75a42.53,42.53,0,0,1-1-8c0-3,.58-5.08,1.75-6.25a4.88,4.88,0,0,1,3.25-1.75,114.42,114.42,0,0,0,21-5.75q8-3.25,8-9.75a19.47,19.47,0,0,0-2-7.5Zm-8-20.5-46.5-122.5-48.5,122.5Z"/><path d="M4784.78,943.4c-2.67,0-4.59-.58-5.75-1.75a8,8,0,0,1-2.25-3.75q-3.5-20.5-16.25-29.25t-31.75-8.75a42.41,42.41,0,0,0-25.75,8.25q-11.25,8.25-11.25,22.75,0,13,10.25,21.75t37.25,17.25a237.52,237.52,0,0,1,26.75,10,82.43,82.43,0,0,1,21,13.25,54.81,54.81,0,0,1,13.75,19q5,11.25,5,26.75a67.35,67.35,0,0,1-4.75,25,56.74,56.74,0,0,1-14.5,21q-9.75,9-24.5,14.5t-35.25,5.5a193.25,193.25,0,0,1-35.75-3.75,116.73,116.73,0,0,1-35.75-12.75q-1-13-1.75-27.25t-.75-28.75h5a18.91,18.91,0,0,1,8.5,1.75,7,7,0,0,1,4,5.75q2,21,16.25,33.75t39.75,12.75q20.5,0,31.5-9.25t11-25.25q0-16.5-12-25.25t-35.5-15.75q-29.51-9-46.25-23.5t-16.75-42.5a60.78,60.78,0,0,1,19-44.5,66.24,66.24,0,0,1,22-13.5,80.3,80.3,0,0,1,29-5,132.5,132.5,0,0,1,37.75,5.25q17.74,5.25,27.75,11.25.49,4,1,9.75t.75,12q.25,6.26.5,12.5t.25,11.25Z"/><path d="M4978.27,943.4c-2.67,0-4.59-.58-5.75-1.75a8,8,0,0,1-2.25-3.75q-3.5-20.5-16.25-29.25t-31.75-8.75a42.41,42.41,0,0,0-25.75,8.25q-11.25,8.25-11.25,22.75,0,13,10.25,21.75t37.25,17.25a237.52,237.52,0,0,1,26.75,10,82.43,82.43,0,0,1,21,13.25,54.81,54.81,0,0,1,13.75,19q5,11.25,5,26.75a67.35,67.35,0,0,1-4.75,25,56.74,56.74,0,0,1-14.5,21q-9.75,9-24.5,14.5t-35.25,5.5a193.25,193.25,0,0,1-35.75-3.75,116.73,116.73,0,0,1-35.75-12.75q-1-13-1.75-27.25t-.75-28.75h5a18.91,18.91,0,0,1,8.5,1.75,7,7,0,0,1,4,5.75q2,21,16.25,33.75t39.75,12.75q20.5,0,31.5-9.25t11-25.25q0-16.5-12-25.25t-35.5-15.75q-29.51-9-46.25-23.5t-16.75-42.5a60.78,60.78,0,0,1,19-44.5,66.24,66.24,0,0,1,22-13.5,80.3,80.3,0,0,1,29-5,132.5,132.5,0,0,1,37.75,5.25q17.74,5.25,27.75,11.25.49,4,1,9.75t.75,12q.25,6.26.5,12.5t.25,11.25Z"/><path d="M5217.33,1052.4a10.49,10.49,0,0,1,7.48-3.5q5,0,9.47,8.5a144.49,144.49,0,0,1-15,17.5,96.25,96.25,0,0,1-20.25,15.25,110.7,110.7,0,0,1-26.75,10.75q-15,4-34.5,4a111.13,111.13,0,0,1-38-6.5,86.92,86.92,0,0,1-31.75-20q-13.76-13.5-22-33.5t-8.25-47a112.47,112.47,0,0,1,9.75-47,121.14,121.14,0,0,1,25.25-36.75A118.38,118.38,0,0,1,5107,890.4q18.75-8.5,36.25-8.5,46.5,0,67.75,27t21.25,70.5a2.65,2.65,0,0,1-3,3l-144.5,6.5a113.52,113.52,0,0,0,5.48,36,87,87,0,0,0,15.45,28.5,70.18,70.18,0,0,0,24.17,18.75q14.2,6.75,32.14,6.75a66.63,66.63,0,0,0,30.65-7.5A80.64,80.64,0,0,0,5217.33,1052.4Zm-80.81-152.5q-24.89,0-38.81,19.5t-13.93,51l94-4.5q7.45,0,7.46-6.5a73.4,73.4,0,0,0-3-20,65.84,65.84,0,0,0-9-19.25,50.75,50.75,0,0,0-15.17-14.5Q5148.94,899.91,5136.51,899.9Z"/><path d="M5404.27,943.4c-2.67,0-4.59-.58-5.75-1.75a8,8,0,0,1-2.25-3.75q-3.5-20.5-16.25-29.25t-31.75-8.75a42.41,42.41,0,0,0-25.75,8.25q-11.25,8.25-11.25,22.75,0,13,10.25,21.75t37.25,17.25a237.52,237.52,0,0,1,26.75,10,82.43,82.43,0,0,1,21,13.25,54.81,54.81,0,0,1,13.75,19q5,11.25,5,26.75a67.35,67.35,0,0,1-4.75,25,56.74,56.74,0,0,1-14.5,21q-9.75,9-24.5,14.5t-35.25,5.5a193.25,193.25,0,0,1-35.75-3.75,116.73,116.73,0,0,1-35.75-12.75q-1-13-1.75-27.25t-.75-28.75h5a18.91,18.91,0,0,1,8.5,1.75,7,7,0,0,1,4,5.75q2,21,16.25,33.75t39.75,12.75q20.5,0,31.5-9.25t11-25.25q0-16.5-12-25.25t-35.5-15.75q-29.51-9-46.25-23.5t-16.75-42.5a60.78,60.78,0,0,1,19-44.5,66.24,66.24,0,0,1,22-13.5,80.3,80.3,0,0,1,29-5,132.5,132.5,0,0,1,37.75,5.25q17.74,5.25,27.75,11.25.49,4,1,9.75t.75,12q.25,6.26.5,12.5t.25,11.25Z"/><path d="M5597.77,943.4c-2.67,0-4.59-.58-5.75-1.75a8,8,0,0,1-2.25-3.75q-3.5-20.5-16.25-29.25t-31.75-8.75a42.41,42.41,0,0,0-25.75,8.25q-11.25,8.25-11.25,22.75,0,13,10.25,21.75t37.25,17.25a237.52,237.52,0,0,1,26.75,10,82.43,82.43,0,0,1,21,13.25,54.81,54.81,0,0,1,13.75,19q5,11.25,5,26.75a67.35,67.35,0,0,1-4.75,25,56.74,56.74,0,0,1-14.5,21q-9.75,9-24.5,14.5t-35.25,5.5a193.25,193.25,0,0,1-35.75-3.75,116.73,116.73,0,0,1-35.75-12.75q-1-13-1.75-27.25t-.75-28.75h5a18.91,18.91,0,0,1,8.5,1.75,7,7,0,0,1,4,5.75q2,21,16.25,33.75t39.75,12.75q20.5,0,31.5-9.25t11-25.25q0-16.5-12-25.25t-35.5-15.75q-29.51-9-46.25-23.5t-16.75-42.5a60.78,60.78,0,0,1,19-44.5,66.24,66.24,0,0,1,22-13.5,80.3,80.3,0,0,1,29-5,132.5,132.5,0,0,1,37.75,5.25q17.74,5.25,27.75,11.25.49,4,1,9.75t.75,12q.25,6.26.5,12.5t.25,11.25Z"/><path d="M5868.26,932.4q2-1.5,9-9.5a143.19,143.19,0,0,1,18.31-17,152,152,0,0,1,26.09-16.5,69.51,69.51,0,0,1,31.87-7.5q30.11,0,42.65,17.75t12.55,49.25v121.5q0,7.5,9,11.25a96.7,96.7,0,0,0,20,5.75q4.5,1,4.5,6a43.19,43.19,0,0,1-1,8q-13-1-25.53-1.75t-27.21-.75q-13.16,0-26.71.75t-26,1.75a42.53,42.53,0,0,1-1-8q0-5,4.5-6a48.21,48.21,0,0,0,9.25-2,59.89,59.89,0,0,0,8.75-3.5,25.6,25.6,0,0,0,6.75-4.75,9.18,9.18,0,0,0,2.75-6.75v-103q0-31-7.5-41.75t-24.5-10.75a72.28,72.28,0,0,0-24.75,4.25,61.17,61.17,0,0,0-20.75,12.5,62.24,62.24,0,0,0-14.5,20.25q-5.51,12-5.5,27.5v91q0,7.5,8.5,11.25a87.24,87.24,0,0,0,19,5.75q4.5,1,4.5,6a43.19,43.19,0,0,1-1,8q-13-1-25.25-1.75t-25.75-.75q-13.5,0-26.75.75t-26.25,1.75a42.53,42.53,0,0,1-1-8q0-5,4.5-6a86.45,86.45,0,0,0,18.25-5.25q9.25-3.75,9.25-11.75v-103q0-31-7.21-41.75t-24.12-10.75a71.61,71.61,0,0,0-24.62,4.25,63.49,63.49,0,0,0-20.89,12.5,60.47,60.47,0,0,0-14.68,20.25q-5.47,12-5.47,27.5v91q0,7.5,8.75,11.25a94,94,0,0,0,18.75,5.75q4.5,1,4.5,6a43.19,43.19,0,0,1-1,8q-13-1-25.55-1.75t-26.7-.75q-14.68,0-27.72.75t-25.53,1.75a42.53,42.53,0,0,1-1-8q0-5,4.5-6a96.84,96.84,0,0,0,20-5.75q9-3.75,9-11.75v-136q0-15-5.25-21.5t-22.75-8q-6.5-1-6.5-7a27.88,27.88,0,0,1,1-6.5q6.49,0,18.25-.75t19.3-1.75q11.63-2,20.73-4.25t13.15-2.25q7.08,0,7.08,7.5a112.51,112.51,0,0,1-1.5,16.75,176.48,176.48,0,0,0-1.5,25.75q1.49-1.5,8.47-9.5a147.75,147.75,0,0,1,43.84-33.25,70.17,70.17,0,0,1,31.89-7.25q25.9,0,38.61,13.25T5868.26,932.4Z"/><path d="M6252.81,1052.4a10.49,10.49,0,0,1,7.48-3.5q5,0,9.47,8.5a144.49,144.49,0,0,1-15,17.5,96.25,96.25,0,0,1-20.25,15.25,110.7,110.7,0,0,1-26.75,10.75q-15,4-34.5,4a111.13,111.13,0,0,1-38-6.5,86.92,86.92,0,0,1-31.75-20q-13.76-13.5-22-33.5t-8.25-47a112.47,112.47,0,0,1,9.75-47,121.14,121.14,0,0,1,25.25-36.75,118.38,118.38,0,0,1,34.25-23.75q18.75-8.5,36.25-8.5,46.5,0,67.75,27t21.25,70.5a2.65,2.65,0,0,1-3,3l-144.5,6.5a113.52,113.52,0,0,0,5.48,36,87,87,0,0,0,15.45,28.5,70.18,70.18,0,0,0,24.17,18.75q14.2,6.75,32.14,6.75a66.63,66.63,0,0,0,30.65-7.5A80.64,80.64,0,0,0,6252.81,1052.4ZM6172,899.9q-24.89,0-38.81,19.5t-13.93,51l94-4.5q7.45,0,7.46-6.5a73.4,73.4,0,0,0-3-20,65.84,65.84,0,0,0-9-19.25,50.75,50.75,0,0,0-15.17-14.5Q6184.43,899.91,6172,899.9Z"/><path d="M6523.75,1070.4q0,7.5,9,11.25a96.7,96.7,0,0,0,20,5.75q4.5,1,4.5,6a43.19,43.19,0,0,1-1,8q-13-1-25.5-1.75t-27-.75q-13.5,0-26.75.75t-26.25,1.75a42.53,42.53,0,0,1-1-8q0-5,4.5-6a87.38,87.38,0,0,0,19-5.75q8.5-3.75,8.5-11.25v-98a164.48,164.48,0,0,0-1.49-23,53.7,53.7,0,0,0-5.73-18.25,30.64,30.64,0,0,0-11.45-12q-7.22-4.24-18.66-4.25a72.34,72.34,0,0,0-24.38,4.25,63.08,63.08,0,0,0-21.15,12.5,60.47,60.47,0,0,0-14.68,20.25q-5.47,12-5.47,27.5v91q0,7.5,8.75,11.25a94,94,0,0,0,18.75,5.75q4.5,1,4.5,6a43.19,43.19,0,0,1-1,8q-13-1-25.55-1.75t-26.7-.75q-14.68,0-27.72.75t-25.53,1.75a42.53,42.53,0,0,1-1-8q0-5,4.5-6a96.84,96.84,0,0,0,20-5.75q9-3.75,9-11.75v-136q0-15-5.25-21.5t-22.75-8q-6.5-1-6.5-7a27.88,27.88,0,0,1,1-6.5q6.49,0,18.25-.75t19.3-1.75q11.63-2,20.73-4.25t13.15-2.25q7.08,0,7.08,7.5a112.51,112.51,0,0,1-1.5,16.75,176.48,176.48,0,0,0-1.5,25.75q21.42-24,41.11-37a76.61,76.61,0,0,1,43.1-13q30.39,0,45.59,17.75t15.2,49.25Z"/><path d="M6699.25,1069.4a11.1,11.1,0,0,1,4.25-3,10.9,10.9,0,0,1,2.75-.5q4.5,0,8,6.5a122.08,122.08,0,0,1-28,23.5,61.18,61.18,0,0,1-32,9,78.05,78.05,0,0,1-19-2.25,32.7,32.7,0,0,1-15.5-8.75q-6.5-6.49-10.25-17.75t-3.75-29.25v-138h-30v-5.5a16.7,16.7,0,0,1,1.25-6.5q1.24-3,5.25-3,13.5,0,22-7a54.51,54.51,0,0,0,14-18q6-12,10.5-22.5t10-10.5h9v52h58.5q0,10.5-2.25,15.75t-8.25,5.25h-48v124a176.41,176.41,0,0,0,1.5,25.75q1.5,9.75,4.5,15t7,6.75a25.46,25.46,0,0,0,9,1.5,33.79,33.79,0,0,0,15.75-3.75A91.51,91.51,0,0,0,6699.25,1069.4Z"/></g></svg>