<svg id="svg" xmlns="http://www.w3.org/2000/svg" viewBox="0 0 7214.3 1251.4"><defs><style>.cls-1{fill:#fff;}.cls-2{fill:#950000;}.cls-3{fill:#6a5e5a;}.cls-4{fill:#b0a9a7;}.cls-5{fill:#402a1e;}</style></defs><title>Artboard 1</title><g id="svgg"><path id="path0" class="cls-1" d="M356.4,27.8,28.7,29.1l-.6,595.2c-.3,327.4.3,596.1,1.4,597.2,2.3,2.3,1187.7,3,1191.3.7,4-2.5,3.2-1191.8-.8-1193.3-4.9-1.8-495.8-2.5-863.6-1.1m854.3,597.9V1211H40V40.3H1210.8V625.7M953.4,211.8c-65.7,49.1-90,57.1-174.2,57.1-97.9,0-148.7-23.6-148.8-69,0-6.4-.4-6.7-6.9-4.2-22.9,8.7-33.6,47.4-20.9,76.1,19,43,52,55.7,159.2,61.2,28.7,1.5,52.5,3.1,53,3.5s-20,28.7-45.5,62.7c-49.2,65.6-115.7,163.5-152.5,224.6l-22.2,36.9H582.8c-25,0-41-20.5-41.2-52.9l-.1-19.1-8.9,4.5C473.3,623.4,479.8,728,542,743.6c13.4,3.4,14.3-1-9.7,43.2-81.5,150.3-140.8,200.9-221.5,189-64.2-9.5-113.7-85.2-88.2-135.1,16.9-33.2-15.4-33.6-40.6-.6-70.6,92.6,15.1,220.4,146.9,219.1,118.3-1.2,210.6-83.1,310.9-276,10.4-20,19-36.5,19.1-36.7.7-1.2,149.7-23.6,150.7-22.6.6.6-1.1,30.4-4,66.2-11.1,140.6-2.5,196.6,36.5,238.3,59,63.1,212.5,13.9,222.6-71.2,2.2-19-1.2-19.8-28.6-6.9-65.3,30.7-114.6,25.3-128.5-14.1-4.6-13-4.5-156.2.1-196.1l3.4-29.2,12.3-2.6c30.5-6.5,49.6,1,49.6,19.5,0,12.7,4.4,11.4,22.4-6.5,19.6-19.6,23.1-28.3,23.4-57.3.3-40.9-18.5-57.2-66.1-57.2-25.1,0-29.4-.6-28.5-3.8.6-2.1,4.6-20.1,8.9-40,29.9-137.3,62.4-240.1,99.1-313.3,7.4-14.8,13.5-27.5,13.5-28.3,0-1.2-61.2-31.3-63.1-31-.5.2-13.6,9.7-29.2,21.4M878.2,414.6c-9.7,33.7-36.8,140.3-47.9,188.5-3,13.1-6.3,24.7-7.4,25.8-2.8,3-112.6,16.1-112.6,13.5,0-1.2,2.1-5.2,4.6-8.9s20-33.9,38.8-67.1c49.7-87.8,77.9-129.1,119.1-174.1,17.2-18.6,17.2-18.5,5.4,22.3"/><path id="path1" class="cls-2" d="M833.6,24.7a276.67,276.67,0,0,0,28.8,0c7.9-.5,1.4-.9-14.4-.9s-22.3.4-14.4.9m6.3,19.9a68.28,68.28,0,0,0,15,0c3.8-.6.1-1-8.2-1s-11.3.5-6.8,1M452.1,67.1l-384.6.8V1183.5l390.9.7c215,.4,466,.4,557.8,0l167-.7V67.9H1024.7c-87.2,0-165.1-.3-173.2-.8s-187.8-.4-399.4,0m560.6,135.5c16.4,8.1,31.4,15.2,33.3,15.9,2.5.9,1.1,5.5-5.8,18.4-25.6,47.9-53.3,122-74.6,199.4C956.5,469.5,925.5,599,925.5,604c0,.3,11.6.4,25.8.4,50.1-.1,70.9,19.7,68.6,65.4-1.3,26.5-6.5,38-25.1,55.1-16.3,15-21.8,17.5-21.8,10,0-23-12.8-31.2-41.4-26.5l-18.4,3-1.4,10.3c-10.7,78.6-10.9,194.9-.4,220,13.6,32.6,64.8,35.4,125.9,6.8,29-13.6,32.8-11.7,28.1,13.7-15.8,84.4-162.4,129.1-223.3,68.1-38.9-38.9-48.9-95.9-39.2-224.4,3.2-42.8,5.1-78.5,4.3-79.3-1.3-1.3-127,16.9-143.1,20.8-3.5.8-8.9,8.8-17.1,25.5-77.2,155.8-164.2,251.4-255.4,280.7-24.7,7.9-85.9,10-112.1,3.8-108-25.6-159.7-153.2-91.4-225.4,27.5-29,52.4-22.3,36.2,9.8-23.5,46.4,21.6,120.8,79.7,131.5,82.1,15.2,141.6-32.2,221.3-176.1l27.7-50-8.1-1.4c-64.1-11.2-74.4-121.8-14.2-152.5,13.4-6.8,13.7-6.7,12.7,9.7-1.6,27.8,10,49.9,29.3,55.6,17.9,5.4,19.1,4.3,44.7-37.7,49-80.5,112.7-173.4,167.9-245.1l27.9-36.3-10.7-1.7c-5.9-.9-32.1-2.9-58.2-4.4-112-6.3-157.4-37.3-147.8-100.9,4.1-27.3,36.4-53.8,36.5-29.9.2,42.1,53.2,65.7,147.5,65.6,79.1-.1,111.1-10.8,173.9-58.6,15.1-11.5,27.7-21,28-21.2.2-.4,13.8,6.1,30.3,14.2M870.4,397.3c-37.9,41.4-69.3,87.6-117.5,173.3-18.2,32.3-35.4,62.1-38.2,66.1l-5.2,7.3,7.3-1.4c4-.8,29.5-4,56.7-7.3l49.3-5.8,1.5-7.5c4.3-21.3,44.6-181.7,52.1-207.6,10.5-35.8,10.7-35.2-6-17.1m-30.5,810.6a68.28,68.28,0,0,0,15,0c3.8-.6.1-1-8.2-1s-11.3.4-6.8,1m-6.3,20a276.67,276.67,0,0,0,28.8,0c7.9-.5,1.4-.9-14.4-.9s-22.3.4-14.4.9"/><path id="path2" class="cls-3" d="M42.5,10.3c0,6.2,1.2,10.1,3.1,10.3,1.7.2-.8,1.1-5.6,1.9s57.7,1.6,138.8,1.7,138-.6,126.3-1.5-18.7-1.8-15.6-2c4.8-.4,5.6-1.9,5.6-10.5V.2H42.5V10.3m397.7,0c0,6.1,1.2,10.2,3.1,10.4,1.7.2-3.1,1.1-10.6,2S464,24.3,519,24.2s96.7-.5,92.5-.9c-7.3-.7-7.5-1.1-6.6-11.9L605.8.3H440.2v10m315.2,1.1c0,9.5-.8,11.2-5.6,12.2-9.6,1.8,38.4,1.3,55.7-.6,8.9-1,14.5-2,12.4-2.2-2.9-.3-3.6-2.8-2.9-10.4l1-10H755.4v11m128-1.1c.8,8.6.2,10.1-4.1,10.4-2.8.2,3.4,1.2,13.7,2.2,25.4,2.4,79,2.3,67.5-.1-4.8-1-7.3-2-5.6-2.2,1.9-.2,3.1-4.2,3.1-10.3V.3H882.4l1,10m265.1,1.2c.9,11.1.8,11.2-7.9,12.2-4.8.6,11,.9,35.2.7,34-.3,45,.4,48.2,3.1,6.4,5.3,6.4,1191.1,0,1196.4-3.2,2.7-14.1,3.4-48.2,3.1-24.2-.2-40.1.1-35.2.7,8.7,1.1,8.8,1.2,7.9,12.2l-.9,11.1h83.6l9.7-9.7c6.3-6.3,9.6-11.8,9.4-15.6-.3-5.9-.4-5.9-1.4-.3-.6,3.1-2.2,5.6-3.6,5.6s-1.9.9-1.2,2-2.2,4.1-6.5,6.6-7,3.4-6.1,1.9,1.6-279.1,1.6-616.9c0-544.3.4-614.1,3.7-612.8,5.4,2.1,4.6-1.5-1.6-6.9-4.8-4.2-10-4.7-46.5-4.7h-41.1l.9,11.3M826.2,27.2c13.5.5,34.9.4,47.5,0s1.6-.8-24.5-.8-36.5.3-23,.8m398.2,598.5c0,328.1.3,462.4.6,298.3s.4-432.5,0-596.6-.6-29.8-.6,298.3M51.9,42.2l-9.4,1V1207.8l15.4,1.6c20.1,2.1,179.1,1.6,221-.8,20-1.1,27.2-2.1,18.8-2.6-7.6-.4-11.3-1.2-8.4-1.8,8.7-1.7,9.6-15.6,1.1-16.3-3.5-.3,4.2-1.2,17.3-2s-35.6-1.8-108.2-2l-132-.5V67.9l132-.5c72.6-.3,121.3-1.2,108.2-2s-20.9-1.8-17.3-2c8.5-.6,7.6-14.6-1.1-16.3-3-.6.8-1.4,8.4-1.8,8.5-.5,1.3-1.5-18.8-2.6-33.6-1.9-210.4-2.3-227-.5m393.3.6c-11.5,1-14.9,1.8-8.8,2.1,5.5.3,8.8,1.3,7.3,2.3-4.9,3.2-5.8,15.5-1.3,16,2.2.2-2.7,1.2-11,2.1S462,67,517.7,67.1s97.4-.7,92.6-1.8-7.5-2-5.9-2.2c2-.2,2.2-3.1.9-9.1-1.8-7.8-1.4-8.8,3.4-9.1,3-.2-.8-1.2-8.4-2.3-16.3-2.1-128.2-2.1-155.1.2m311.5,0c-5.5,1-7.9,2-5.4,2.1,7.8.6,4.9,18.6-3.3,20.7-3.5.9,8.3,1.6,26.2,1.7,37.4.1,40-.6,40-10.8,0-4.1,1.1-8.3,2.5-9.3s-1.4-2.1-6.3-2.3.3-1.2,11.3-2.1c16.3-1.3,13-1.6-17.5-1.7-20.6,0-42,.8-47.5,1.7m118.8,0c14,.9,19.1,1.8,12.5,2.2-6.4.4-9.6,1.4-7.5,2.4s3.8,5,3.8,9.2c0,10.2,2.8,10.8,48.8,10.7,23.6-.1,34.9-.8,28.8-1.9-5.5-1-8.5-2-6.6-2.1,2.4-.3,3.1-3,2.4-9.1-.8-6.6-.1-8.8,2.9-9.1,16.1-1.4-29.6-4.2-64.9-4-37,.1-40.2.4-20.2,1.7m276.4,0c-6.9.9-10.1,1.9-7.1,2.1,4.8.4,5.2,1.3,3.4,9.1-1.4,6-1.1,8.9.9,9.1,1.6.2-2.2,1.2-8.4,2.1-8.5,1.3-4.7,1.8,15.6,2.1l26.9.4V1183.3l-26.9.4c-20.3.3-24.1.8-15.6,2.1,6.2,1,10,1.9,8.4,2.1-2,.3-2.2,3.1-.9,9.1,1.8,7.8,1.4,8.8-3.4,9.1-10.3.7,24.8,4.1,45.3,4.4l20.6.3V40.3l-23.1.4c-12.8.2-28.8,1.2-35.7,2.1M133.2,44.6a35.69,35.69,0,0,1-11.3,0c-3.1-.6-.6-1.1,5.6-1.1s8.8.5,5.7,1.1M46.9,508.7c-.4,60.9-.7,11.1-.7-110.7s.3-171.6.7-110.7.3,160.6,0,221.4m-.1,649.1c-.5,8-.9,2.1-.9-13s.4-21.6.9-14.5a252.15,252.15,0,0,1,0,27.5M431.5,1186c8.3.9,13.2,1.9,11,2.1-4.6.5-3.6,12.8,1.3,16,1.5,1-1.7,2-7.3,2.3-26.8,1.1,39.5,4.2,91.3,4.2,48.1,0,102-2.8,80.9-4.2-4.8-.3-5.2-1.3-3.4-9.1,1.4-6,1.1-8.9-.9-9.1-1.6-.2,1.1-1.2,5.9-2.2s-36.8-1.8-92.6-1.8-94.5.9-86.2,1.8m316.5-.3c8.2,2.1,11,20.1,3.3,20.7-17,1.2,24.7,4.3,54.2,4,30.9-.2,33.3-.5,16.3-1.9-11-.9-16.1-1.8-11.3-2.1s7.6-1.3,6.3-2.3-2.4-5.2-2.4-9.3c.2-10.2-2.5-10.9-40.2-10.8-17.9.1-29.7.8-26.2,1.7m141.1,0c-3.7,1.2-5.1,3.7-5,9.1.1,4.3-1.5,8.2-3.6,9.2s1.1,2,7.5,2.4c6.2.4,0,1.3-13.8,2.2-21.3,1.3-18.4,1.6,20,1.8,36.3.2,82.5-2.6,66.2-4-2.9-.3-3.6-2.5-2.9-9.1.7-6.1,0-8.9-2.4-9.1-1.9-.2,1.1-1.2,6.6-2.1,6.1-1.1-5.2-1.8-28.8-1.9-21.2-.1-40.9.6-43.8,1.5m-755.9,22.1a35.7,35.7,0,0,1-11.3,0c-3.1-.6-.6-1.1,5.6-1.1s8.8.5,5.7,1.1m693,17.6c13.5.5,34.9.4,47.5,0s1.6-.8-24.5-.8-36.5.4-23,.8M40,1228.8c4.8.9,7.3,1.8,5.6,1.9-1.9.2-3.1,4.2-3.1,10.3v10H295.1v-10c0-8.6-.8-10.1-5.6-10.5-3.1-.3,3.9-1.2,15.6-2s-45.2-1.5-126.3-1.5-143.6.9-138.8,1.8m392.7-.2c7.6.9,12.4,1.8,10.6,2s-3.1,4.3-3.1,10.4v10H605.8l-.9-11.1c-.9-10.8-.6-11.2,6.6-11.9,4.1-.4-37.5-.8-92.5-.9s-93.8.6-86.3,1.5m317.1-.8c4.8.9,5.6,2.7,5.6,12.2v11.1H816l-1-10c-.7-7.6,0-10.1,2.9-10.4,2.1-.2-3.5-1.2-12.4-2.2-17.3-2-65.3-2.5-55.7-.7m142,.8c-9.6.9-15.1,1.8-12.3,2.1,4.6.4,5.1,1.7,4.3,10.4l-1,10H958v-10c0-6.2-1.2-10.1-3.1-10.3-1.7-.2.8-1.2,5.6-2.2,11-2.3-43.9-2.3-68.7,0"/><path id="path3" class="cls-4" d="M13.9,2.6C15.7,4.4,4.4,15.3,2.1,13.9,1,13.1,0,288.6,0,626s.8,612.7,1.7,611.7c1.9-1.9,13.6,8.3,12.2,10.7-.5.9,5.7,1.9,13.8,2.3l14.8.7v-10.2c0-6.3,1.2-10.3,3.1-10.5,1.7-.2-.8-1.2-5.6-2.2-5.4-1.1,9.2-2.2,37.5-2.7l46.3-.9-47.5-1.3-47.5-1.3V29.1L75,27.7l46.3-1.3-45-.9C48.5,25,34.6,24,40,22.8c4.8-1,7.3-2,5.6-2.2-1.9-.2-3.1-4.2-3.1-10.5V0L27.6.7C19.5,1.1,13.3,2,13.9,2.6m281.2,7.5c0,8.2-.9,10-5.6,10.9-3.1.6,3.9,1.5,15.6,2s-23.8,1.5-78.8,2.3c-68.5.9-34.6,1.3,107.6,1.4,114.2,0,180-.6,146.3-1.4s-55.1-1.7-47.5-2.1,12.4-1.3,10.6-2-3.1-5.6-3.1-11.1V.3h-145v9.8m309.7,1.5c-.9,11-.7,11.3,6.6,11.8,4.1.3-9.4,1.2-30,2s21,1.4,92.6,1.4,116.6-.7,100.1-1.5-27.5-1.7-24.4-2c4.9-.4,5.6-1.9,5.6-11.8V.3H605.8l-.9,11.3M958,10.1c0,5.5-1.4,10.4-3.1,11.1s.8,1.6,5.6,2-8.1,1.4-28.8,2.1,35.6,1.4,125.1,1.4,142.9-.6,118.8-1.4-39.8-1.6-35-1.9l8.8-.5-.9-11.3L1147.6.3H958v9.8M40,625.7V1211l11.9-.4,11.9-.4-10.6-1-10.6-1V43.1l9.4-1,9.4-1-10.6-.4L40,40.3V625.7M282.6,42.8c19.8,1,24.5,1.8,15,2.3-7.6.5-11.3,1.3-8.4,1.9,8.7,1.7,9.6,15.6,1.1,16.2-14.9,1,49.1,4,84.9,4,32.8,0,80.1-2.8,67.3-4-4.6-.4-3.6-12.7,1.3-16,1.5-1-1.7-2.1-7.3-2.3-6.2-.3-2.8-1.1,8.8-2.1,10.3-.9-28.5-1.6-86.3-1.6s-92.2.8-76.4,1.6m319,0c6.9.9,10.1,1.9,7.1,2.1-4.8.4-5.2,1.3-3.4,9.1,1.4,6,1.1,8.8-.9,9-16.5,1.7,29.4,4.5,74.7,4.5,74.4.2,75.2,0,75.9-12.6.5-7.8-.3-9.8-3.9-10.1-2.5-.2,0-1.2,5.5-2.1s-30-1.8-78.8-1.8c-48.8.2-83.1,1-76.2,1.9m351.4,0c6.2,1,9.5,1.9,7.4,2.1-2.9.3-3.6,2.6-2.9,9.1.7,6.1,0,8.8-2.4,9.1-20,1.8,35,4.3,95.4,4.3,60.9,0,114.8-2.4,98.4-4.3-2-.2-2.2-3.1-.9-9.1,1.8-7.8,1.4-8.8-3.4-9.1-3-.2.3-1.2,7.1-2.1s-37.6-1.7-98.8-1.7-106,.8-99.9,1.7M46.2,398.1c0,121.8.3,171.6.7,110.7s.4-160.5,0-221.4-.7-11.1-.7,110.7M631,201.7c0,5.5.5,7.5,1.1,4.3a25.69,25.69,0,0,0-.1-10c-.6-2.4-1,.2-1,5.7m136.4,68.1a208.4,208.4,0,0,0,25,0c6.5-.5.5-.9-13.2-.9s-19.1.4-11.8.9m-43.9,62.4a21.73,21.73,0,0,0,8.8,0c2.4-.6.4-1.1-4.4-1.1s-6.8.5-4.4,1.1m50.1,2.6a43.55,43.55,0,0,0,12.5,0c3.1-.6,0-1.1-6.9-1-6.9-.1-9.4.4-5.6,1m99.3,57.6-8.6,9.4,9.4-8.6c5.2-4.7,9.4-9,9.4-9.4-.1-1.9-2.2-.1-10.2,8.6M512.6,607.6,504,617l9.4-8.6c8.7-8,10.5-10.1,8.6-10.1-.4-.1-4.6,4.1-9.4,9.3M948.7,605a43.55,43.55,0,0,0,12.5,0c3.1-.6,0-1.1-6.9-1-6.9-.1-9.4.4-5.6,1m48,116.4L986.8,732l10.6-9.9c9.9-9.2,11.8-11.4,9.9-11.4-.4,0-5.2,4.8-10.6,10.7M808.5,735.8c0,4.8.5,6.8,1.1,4.4a21.74,21.74,0,0,0,0-8.8c-.5-2.4-1.1-.5-1.1,4.4M806,768.3c0,4.8.5,6.8,1.1,4.4a21.74,21.74,0,0,0,0-8.8c-.5-2.4-1.1-.4-1.1,4.4m97.6,21.2c0,5.5.5,7.5,1.1,4.3a25.69,25.69,0,0,0-.1-10c-.5-2.3-1,.2-1,5.7M803.5,800.8c0,4.8.5,6.8,1.1,4.4a21.74,21.74,0,0,0,0-8.8c-.6-2.4-1.1-.4-1.1,4.4M801,833.3c0,4.8.5,6.8,1.1,4.4a21.74,21.74,0,0,0,0-8.8c-.6-2.4-1.1-.4-1.1,4.4M215.8,869.6c0,6.9.5,9.4,1.1,5.6a43.55,43.55,0,0,0,0-12.5c-.6-3.1-1.1,0-1.1,6.9m583,12.5c0,11,.5,15.2,1,9.3a133.4,133.4,0,0,0,0-20c-.6-5.1-1-.3-1,10.7m104.8,23.8c0,4.8.5,6.8,1.1,4.4a21.74,21.74,0,0,0,0-8.8c-.6-2.4-1.1-.5-1.1,4.4m52.6,64.3a43.55,43.55,0,0,0,12.5,0c3.1-.6,0-1.1-6.9-1-6.9-.1-9.4.4-5.6,1m-631.7,7.5a35.7,35.7,0,0,0,11.3,0c3.1-.6.6-1.1-5.6-1.1s-8.8.5-5.7,1.1m711,35.1-8.6,9.4,9.4-8.6c8.7-8,10.5-10.1,8.6-10.1-.5-.1-4.7,4.1-9.4,9.3m-687.2,47.4a21.74,21.74,0,0,0,8.8,0c2.4-.6.4-1.1-4.4-1.1s-6.8.4-4.4,1.1M45.9,1144.8c0,15.1.4,21,.9,13a252.15,252.15,0,0,0,0-27.5c-.5-7.2-.9-.7-.9,14.5M307.7,1186c-13.1.9-20.9,1.8-17.3,2,8.5.6,7.6,14.6-1.1,16.3-3,.6.8,1.4,8.4,1.9,9.5.6,4.8,1.3-15,2.3-15.8.8,18.5,1.5,76.3,1.6s96.6-.7,86.3-1.6c-11.5-1-14.9-1.8-8.8-2.1,5.5-.3,8.8-1.3,7.3-2.3-4.9-3.2-5.8-15.5-1.3-16,32.3-3-90.6-4.9-134.8-2.1m302.6,0c-4.8,1-7.5,2-5.9,2.2,2,.2,2.2,3.1.9,9.1-1.8,7.8-1.4,8.8,3.4,9.1,3,.2-.3,1.2-7.1,2.1s27.5,1.7,76.3,1.8,84.3-.8,78.8-1.8-8-2-5.5-2.1c9.7-.8,4.8-19.6-5.6-21.3-12.5-2.1-124.6-1.3-135.3.9m351.5,0c-5.5,1-8.5,2-6.6,2.1,2.4.3,3.1,3,2.4,9.1-.8,6.6-.1,8.8,2.9,9.1,2.1.2-1.2,1.2-7.4,2.1s39.4,1.7,101.3,1.7,106.4-.8,98.8-1.7-11.3-1.9-8.4-2.1c4.8-.4,5.2-1.3,3.4-9.2-1.4-6-1.1-8.9.9-9.1,1.6-.2-2.8-1.2-9.6-2.3-15.7-2.2-164.1-2.1-177.7.3m-734.2,40.1c54.3.7,89.2,1.8,77.5,2.3s-18.7,1.4-15.6,2c4.7.9,5.6,2.7,5.6,10.9v9.8h145v-9.8c0-5.5,1.4-10.4,3.1-11.1s-3.1-1.6-10.6-2,13.8-1.4,47.5-2.1-31.6-1.4-145.1-1.4c-140.4,0-174.7.4-107.4,1.4m354,0c20.6.8,34.1,1.7,30,2-7.3.5-7.5.8-6.6,11.8l.9,11.3H755.5v-11.3c0-9.9-.7-11.3-5.6-11.8-3.1-.3,7.9-1.2,24.4-2s-28.5-1.5-100.1-1.5-113.3.7-92.6,1.5m350.2,0c20.6.8,33.6,1.7,28.8,2.1s-7.3,1.3-5.6,2,3.1,5.6,3.1,11.1v9.8h189.6l.9-11.3.9-11.3-8.8-.5c-4.8-.3,10.9-1.2,35-1.9s-29.4-1.4-118.8-1.4-145.8.6-125.1,1.4"/><path id="path4" class="cls-5" d="M815,10.3c-.7,7.6,0,10.1,2.9,10.4,2.1.2-2.9,1.1-11.2,1.9s11.4,1.5,43.8,1.5,50.9-.6,41.3-1.4-15.2-1.6-12.4-1.9c4.4-.4,4.9-1.9,4.1-10.4l-1-10H816l-1,9.9m418.2,614.8c0,337.7-.7,615.1-1.6,616.6s1.9.6,6.1-1.9,7.2-5.4,6.6-6.4.3-2.3,2-2.9c3.3-1.1,6.2-1200.1,2.9-1208.6-.8-2.2-2.4-3.4-3.6-2.7s-2.9,0-3.9-1.7c-1.2-1.9-.7-2.3,1.4-.9s2.8.8,2.1-1.3c-.6-1.8-3.6-3.5-6.6-3.7l-5.5-.4V625.1M119.5,24.7c8.7.5,22.2.5,30,0s.8-.9-15.7-.9-22.9.4-14.3.9m407.7,0a151.42,151.42,0,0,0,21.3,0c5.8-.5,1.1-1-10.6-1s-16.6.4-10.7,1m684.8,0c4.1.6,8.9,2.3,10.6,3.7,4.5,3.7,4.6,1190.2.1,1194.7-1.7,1.7-6.4,3.2-10.6,3.4l-7.6.4,7.1,1.1c18.3,2.7,16.7,63.4,16.7-602.2,0-663.7,1.6-603.4-16.5-602.5l-7.3.4,7.5,1M121.9,44.6a35.69,35.69,0,0,0,11.3,0c3.1-.6.6-1.1-5.6-1.1s-8.8.5-5.7,1.1m688.6,1c4.8.9,7.6,1.8,6.3,1.9s-2.5,4-2.4,8.5c0,4.9-1.4,8.7-3.7,9.6-2,.8,15.9,1.5,40,1.5s41.4-.6,38.6-1.5c-3.7-1.1-5-3.7-5-9.7,0-5.4-1.2-8.3-3.7-8.5-2.1-.2,1.3-1.1,7.5-2s-10.7-1.6-37.5-1.6-45,.9-40.1,1.8m.3,1140.2c2.6,1,3.8,4.3,3.7,9.6-.1,4.5.9,8.3,2.2,8.5s-1.4,1.1-6.3,1.9,13.2,1.6,40,1.7,43.7-.7,37.5-1.6-9.6-1.8-7.5-2c2.6-.3,3.7-3,3.5-8.5-.2-6.2,1-8.5,5-9.7,2.9-.8-14.4-1.5-38.4-1.5s-41.8.8-39.7,1.6m-688.9,22a35.7,35.7,0,0,0,11.3,0c3.1-.6.6-1.1-5.6-1.1s-8.8.5-5.7,1.1m-2.4,20.1c8.7.5,22.2.5,30,0s.8-.9-15.7-.9-22.9.4-14.3.9m410.2,0a133.4,133.4,0,0,0,20,0c5.1-.5.3-1-10.7-1s-15.2.5-9.3,1m277,.9c8.3.8,13.3,1.6,11.2,1.9-2.9.3-3.6,2.8-2.9,10.4l1,10h33.5c30.2,0,33.5-.4,33.7-4.4.1-2.4.5-6.9.8-10,.5-4.1-.8-5.7-4.6-6.1-2.9-.2,2.7-1.1,12.3-1.9s-8.9-1.4-41.3-1.4-51.9.7-43.7,1.5"/></g><g id="txt"><path d="M1689.5,620.5q-22.86,4.06-46.74,6.35t-55.88,2.29q-43.7,0-75.95-13.21t-53.59-36.07a145.62,145.62,0,0,1-31.75-54.1q-10.42-31.24-10.41-67.82a187.46,187.46,0,0,1,10.41-61,164.26,164.26,0,0,1,31.5-54.86q21.07-24.38,53.09-39.88t74.68-15.49q15.24,0,29.21.76t27.69,2.79q13.72,2,27.69,4.83t30.23,6.86q1,17.79,3.81,36.83t7.37,37.34c-.68.68-2,1.19-4.06,1.52a31.63,31.63,0,0,1-5.08.51q-8.13,0-10.16-6.6-9.14-34-31-48.77t-62.48-14.73q-32.52,0-56.9,10.67T1500.78,348q-16,18.55-24.13,44.2a183.21,183.21,0,0,0-8.13,55.63q0,35.05,10.41,64.52t28.45,50.8a126,126,0,0,0,42.67,33,123.39,123.39,0,0,0,53.59,11.68,220.57,220.57,0,0,0,29.72-2,167.16,167.16,0,0,0,25.15-5.08V523q0-13.72-8.13-19T1623,496c-2.71-.33-4.57-1.52-5.59-3.56a13.52,13.52,0,0,1-1.52-6.1,33.19,33.19,0,0,1,1-8.13q14.73,1,32.51,1.78t31,.76q13.2,0,30.23-.76t29.72-1.78a44,44,0,0,1,1,8.13q0,5.08-1.78,6.86a8.21,8.21,0,0,1-4.32,2.29q-16.26,2-22.61,6.86t-6.35,15V607.8a11.51,11.51,0,0,1-2.54,7.62Q1701.18,618.47,1689.5,620.5Z"/><path d="M1772.3,515.85a111.39,111.39,0,0,1,8.89-44.2,112.19,112.19,0,0,1,59.94-60.2,110.92,110.92,0,0,1,44.45-8.89q24.88,0,45.72,8.38a108,108,0,0,1,35.81,23.11,102.84,102.84,0,0,1,23.37,35.81,123.37,123.37,0,0,1,8.38,46A110.92,110.92,0,0,1,1990,560.3,112.86,112.86,0,0,1,1930,620.25a110.94,110.94,0,0,1-44.45,8.89q-24.9,0-45.72-8.38a107.67,107.67,0,0,1-35.81-23.11,103.07,103.07,0,0,1-23.37-35.56Q1772.3,541.26,1772.3,515.85Zm47.75-16.76a191.49,191.49,0,0,0,4.06,38.61,135.34,135.34,0,0,0,12.45,35.81,80.79,80.79,0,0,0,21.59,26.42q13.2,10.42,32,10.41,29,0,45-20.32t16-52.32a216.37,216.37,0,0,0-3.81-39.37,144,144,0,0,0-12.19-37.59,84.78,84.78,0,0,0-21.84-28.19q-13.47-11.17-33.27-11.18-26.93,0-43.43,18.54T1820.05,499.09Z"/><path d="M2034.94,515.85a111.39,111.39,0,0,1,8.89-44.2,112.19,112.19,0,0,1,59.94-60.2,110.92,110.92,0,0,1,44.45-8.89q24.88,0,45.72,8.38a108,108,0,0,1,35.81,23.11,102.84,102.84,0,0,1,23.37,35.81,123.37,123.37,0,0,1,8.38,46,110.92,110.92,0,0,1-8.89,44.45,112.86,112.86,0,0,1-59.94,59.94,110.94,110.94,0,0,1-44.45,8.89q-24.9,0-45.72-8.38a107.67,107.67,0,0,1-35.81-23.11,103.07,103.07,0,0,1-23.37-35.56Q2034.94,541.26,2034.94,515.85Zm47.75-16.76a191.49,191.49,0,0,0,4.06,38.61,135.34,135.34,0,0,0,12.45,35.81,80.79,80.79,0,0,0,21.59,26.42q13.2,10.42,32,10.41,29,0,45-20.32t16-52.32a216.37,216.37,0,0,0-3.81-39.37,144,144,0,0,0-12.19-37.59,84.78,84.78,0,0,0-21.84-28.19q-13.47-11.17-33.27-11.18-26.93,0-43.43,18.54T2082.69,499.09Z"/><path d="M2509.41,577.83a45.76,45.76,0,0,0,1,10.41,15,15,0,0,0,4.06,7.37,21,21,0,0,0,8.38,4.83,71.43,71.43,0,0,0,14,2.79q6.6,1,6.6,6.6a30,30,0,0,1-1,7.11q-6.61,0-17.53.76t-18.54,1.78q-11.32,2-19.81,4.32t-12.6,2.29q-7.22,0-7.21-7.62V579.86q-7.12,9.66-14.22,18.54A85.9,85.9,0,0,1,2436,614.15a78.39,78.39,0,0,1-21.59,10.92q-12.19,4.06-29.46,4.06a79.35,79.35,0,0,1-33-7.11A81.22,81.22,0,0,1,2324,600.94q-12.19-14-19.56-34.29t-7.37-46.23q0-27.93,10.67-50t26.42-37.08a114.68,114.68,0,0,1,34.29-22.86q18.54-7.87,34.29-7.87a139.72,139.72,0,0,1,34.29,3.81,218.93,218.93,0,0,1,29.72,9.91v-96q0-15.24-5.33-21.59t-23.11-7.87q-6.61-1-6.6-7.11a29.62,29.62,0,0,1,1-7.11q6.6,0,18.54-.76t19.61-1.78a154,154,0,0,0,21.06-4.06q9.24-2.54,13.36-2.54,7.19,0,7.19,7.62a148.38,148.38,0,0,1-1.52,19.81,207.82,207.82,0,0,0-1.52,27.43Zm-42.67-128.52a102,102,0,0,0-27.94-20.83q-15.24-7.62-34.54-7.62-29.47,0-44.45,24.38t-15,62.48a153.29,153.29,0,0,0,4.32,36.83,102.67,102.67,0,0,0,12.7,30.73,66.35,66.35,0,0,0,20.32,20.83,48.51,48.51,0,0,0,26.67,7.62q10.16,0,20.32-6.1a79.82,79.82,0,0,0,18.54-15.49,82.09,82.09,0,0,0,13.72-21.34,57.53,57.53,0,0,0,5.33-23.62Z"/><path d="M3025,457.94a177.34,177.34,0,0,1-10.41,59.44,158.34,158.34,0,0,1-31.5,53.09q-21.09,23.62-53.34,38.1T2854.33,623H2750.19q-13.22,0-30,.76t-32.51,1.78a43.21,43.21,0,0,1-1-8.13q0-7.11,5.59-8.13,18.79-4.57,26.92-8.64t8.13-13.21V328.91q0-10.16-7.62-14.22t-27.43-7.62a5.5,5.5,0,0,1-4.32-3,12.27,12.27,0,0,1-1.27-5.59,43.28,43.28,0,0,1,1-8.13q10.67,1,18.54,1.27t15,.76q7.11.51,14,.51h118.62q42.67,0,74.93,13.21t53.59,35.56a145.54,145.54,0,0,1,32,52.32A189.51,189.51,0,0,1,3025,457.94Zm-53.34,9.65q0-78.22-38.86-116.08t-113.54-37.85h-44.2V583.93a14.42,14.42,0,0,0,2.54,8.64q2.54,3.56,8.64,5.59a78.46,78.46,0,0,0,16.76,3q10.67,1,26.92,1,39.11,0,66-9.4t43.69-26.92q16.76-17.53,24.38-42.42T2971.68,467.59Z"/><path d="M3272.92,609.33q5.58,0,6.1,10.67-13.22,9.14-33.53,9.14a52.23,52.23,0,0,1-19.47-3.3,41.36,41.36,0,0,1-13.89-8.89,40,40,0,0,1-8.75-12.7,55.13,55.13,0,0,1-4.12-14.73q-12.7,22.86-30.23,31.24t-40.39,8.38a141,141,0,0,1-21.59-1.78,65.45,65.45,0,0,1-21.59-7.37,46.43,46.43,0,0,1-16.76-15.75q-6.61-10.16-6.6-26.92,0-18.79,8.89-31.75a72.54,72.54,0,0,1,22.86-21.34,137.67,137.67,0,0,1,30.48-13.46q16.5-5.07,31.75-8.64,8.63-1.52,16-3.3a121.44,121.44,0,0,0,13-3.81q7.11-2,8.89-5.59t1.78-13.72q0-23.87-9.14-39.37T3154,420.86a47,47,0,0,0-14.73,2,24.23,24.23,0,0,0-10.16,6.35,38.81,38.81,0,0,0-7.11,11.43q-3,7.12-6.1,16.76a12.18,12.18,0,0,1-6.86,8.13q-5.33,2.55-18,6.1a76.34,76.34,0,0,1-7.62,2,36,36,0,0,1-7.62,1q-5.08,0-5.08-10.67,0-11.17,8.64-22.35a86.8,86.8,0,0,1,22.1-19.81,132.64,132.64,0,0,1,29.21-14,93.42,93.42,0,0,1,30-5.33,154.23,154.23,0,0,1,32.07,3,58.83,58.83,0,0,1,24.57,11.18q10.29,8.13,15.68,21.84t5.4,35.56v87.38q0,17.79,1.27,25.65a38.37,38.37,0,0,0,3.81,12.45q3.55,7.12,7.87,9.4a18.76,18.76,0,0,0,8.89,2.29c3.72,0,6.35-.33,7.87-1A11.78,11.78,0,0,1,3272.92,609.33Zm-77.22-99.06-16.35,2.54q-13.29,2.55-25.81,6.1a80.54,80.54,0,0,0-22.23,9.91,50.15,50.15,0,0,0-15.59,16q-5.88,9.66-5.87,23.88,0,19.31,10,29.46t24.79,10.16a45.68,45.68,0,0,0,19.16-4.32,48,48,0,0,0,16.35-12.19,65,65,0,0,0,11.25-18.54,61.51,61.51,0,0,0,4.34-23.37Z"/><path d="M3417.7,593.07a11.28,11.28,0,0,1,4.32-3,11.07,11.07,0,0,1,2.79-.51q4.57,0,8.13,6.6A124,124,0,0,1,3404.49,620a62.16,62.16,0,0,1-32.51,9.14,79.33,79.33,0,0,1-19.3-2.29,33.23,33.23,0,0,1-15.75-8.89q-6.61-6.6-10.41-18t-3.81-29.72V430h-30.48v-5.59a17,17,0,0,1,1.27-6.6q1.26-3,5.33-3,13.72,0,22.35-7.11a55.38,55.38,0,0,0,14.22-18.29q6.1-12.19,10.67-22.86t10.16-10.67h9.14v52.83h59.44q0,10.67-2.29,16t-8.38,5.33h-48.77V556a179.28,179.28,0,0,0,1.52,26.16q1.52,9.91,4.57,15.24t7.11,6.86a25.87,25.87,0,0,0,9.14,1.52,34.33,34.33,0,0,0,16-3.81A93,93,0,0,0,3417.7,593.07Z"/><path d="M3666.62,609.33q5.58,0,6.1,10.67-13.22,9.14-33.53,9.14a52.22,52.22,0,0,1-19.47-3.3,41.36,41.36,0,0,1-13.89-8.89,40,40,0,0,1-8.75-12.7,55.13,55.13,0,0,1-4.12-14.73q-12.7,22.86-30.23,31.24t-40.39,8.38a141,141,0,0,1-21.59-1.78,65.45,65.45,0,0,1-21.59-7.37,46.43,46.43,0,0,1-16.76-15.75q-6.61-10.16-6.6-26.92,0-18.79,8.89-31.75a72.54,72.54,0,0,1,22.86-21.34A137.67,137.67,0,0,1,3518,510.77q16.5-5.07,31.75-8.64,8.63-1.52,16-3.3a121.44,121.44,0,0,0,13-3.81q7.11-2,8.89-5.59t1.78-13.72q0-23.87-9.14-39.37t-32.51-15.49a47,47,0,0,0-14.73,2,24.23,24.23,0,0,0-10.16,6.35,38.81,38.81,0,0,0-7.11,11.43q-3,7.12-6.1,16.76a12.18,12.18,0,0,1-6.86,8.13q-5.33,2.55-18,6.1a76.34,76.34,0,0,1-7.62,2,36,36,0,0,1-7.62,1q-5.08,0-5.08-10.67,0-11.17,8.64-22.35a86.8,86.8,0,0,1,22.1-19.81,132.64,132.64,0,0,1,29.21-14,93.42,93.42,0,0,1,30-5.33,154.23,154.23,0,0,1,32.07,3A58.82,58.82,0,0,1,3611,416.79q10.29,8.13,15.68,21.84t5.4,35.56v87.38q0,17.79,1.27,25.65a38.37,38.37,0,0,0,3.81,12.45q3.55,7.12,7.87,9.4a18.76,18.76,0,0,0,8.89,2.29c3.72,0,6.35-.33,7.87-1A11.79,11.79,0,0,1,3666.62,609.33Zm-77.22-99.06L3573,512.81q-13.29,2.55-25.81,6.1a80.54,80.54,0,0,0-22.23,9.91,50.15,50.15,0,0,0-15.59,16q-5.88,9.66-5.87,23.88,0,19.31,10,29.46t24.79,10.16a45.68,45.68,0,0,0,19.16-4.32,48,48,0,0,0,16.35-12.19,65,65,0,0,0,11.25-18.54,61.51,61.51,0,0,0,4.34-23.37Z"/><path d="M3708.27,695.69q-7.62-5.6-7.62-12.19a9.74,9.74,0,0,1,3-7.11q14.22-14.23,20.07-24.89t5.84-19.3q0-11.69-7.87-18a82.28,82.28,0,0,0-16.51-10.41q-8.64-4.06-8.64-13.21,0-7.11,5.84-16t19-16a76.65,76.65,0,0,1,16,8.38,72.51,72.51,0,0,1,14.22,12.7,60.09,60.09,0,0,1,10.16,16.76,52.91,52.91,0,0,1,3.81,20.07q0,17.78-12.7,37.85T3708.27,695.69Z"/><path d="M4191.88,620.5q-22.86,4.06-46.74,6.35t-55.88,2.29q-43.7,0-75.95-13.21t-53.59-36.07a145.6,145.6,0,0,1-31.75-54.1q-10.42-31.24-10.41-67.82A187.46,187.46,0,0,1,3928,397a164.25,164.25,0,0,1,31.5-54.86q21.07-24.38,53.09-39.88t74.68-15.49q15.24,0,29.21.76t27.69,2.79q13.72,2,27.69,4.83T4202,302q1,17.79,3.81,36.83t7.37,37.34c-.68.68-2,1.19-4.06,1.52a31.63,31.63,0,0,1-5.08.51q-8.13,0-10.16-6.6-9.14-34-31-48.77t-62.48-14.73q-32.52,0-56.9,10.67T4003.15,348q-16,18.55-24.13,44.2a183.2,183.2,0,0,0-8.13,55.63q0,35.05,10.41,64.52t28.45,50.8a126,126,0,0,0,42.67,33A123.39,123.39,0,0,0,4106,607.8a220.57,220.57,0,0,0,29.72-2,167.19,167.19,0,0,0,25.15-5.08V523q0-13.72-8.13-19T4125.33,496c-2.71-.33-4.57-1.52-5.59-3.56a13.53,13.53,0,0,1-1.52-6.1,33.19,33.19,0,0,1,1-8.13q14.73,1,32.51,1.78t31,.76q13.2,0,30.23-.76t29.72-1.78a44,44,0,0,1,1,8.13q0,5.08-1.78,6.86a8.21,8.21,0,0,1-4.32,2.29q-16.26,2-22.61,6.86t-6.35,15V607.8a11.52,11.52,0,0,1-2.54,7.62Q4203.55,618.47,4191.88,620.5Z"/><path d="M4274.68,515.85a111.4,111.4,0,0,1,8.89-44.2,112.19,112.19,0,0,1,59.94-60.2,110.92,110.92,0,0,1,44.45-8.89q24.88,0,45.72,8.38a108,108,0,0,1,35.81,23.11,102.84,102.84,0,0,1,23.37,35.81,123.35,123.35,0,0,1,8.38,46,110.92,110.92,0,0,1-8.89,44.45,112.86,112.86,0,0,1-59.94,59.94,111,111,0,0,1-44.45,8.89q-24.9,0-45.72-8.38a107.67,107.67,0,0,1-35.81-23.11,103.07,103.07,0,0,1-23.37-35.56Q4274.68,541.26,4274.68,515.85Zm47.75-16.76a191.55,191.55,0,0,0,4.06,38.61,135.36,135.36,0,0,0,12.45,35.81,80.78,80.78,0,0,0,21.59,26.42q13.2,10.42,32,10.41,29,0,45-20.32t16-52.32a216.37,216.37,0,0,0-3.81-39.37,144,144,0,0,0-12.19-37.59,84.78,84.78,0,0,0-21.84-28.19q-13.47-11.17-33.27-11.18-26.93,0-43.43,18.54T4322.43,499.09Z"/><path d="M4537.31,515.85a111.4,111.4,0,0,1,8.89-44.2,112.19,112.19,0,0,1,59.94-60.2,110.92,110.92,0,0,1,44.45-8.89q24.88,0,45.72,8.38a108,108,0,0,1,35.81,23.11,102.84,102.84,0,0,1,23.37,35.81,123.35,123.35,0,0,1,8.38,46A110.92,110.92,0,0,1,4755,560.3,112.86,112.86,0,0,1,4695,620.25a111,111,0,0,1-44.45,8.89q-24.9,0-45.72-8.38a107.67,107.67,0,0,1-35.81-23.11,103.07,103.07,0,0,1-23.37-35.56Q4537.31,541.26,4537.31,515.85Zm47.75-16.76a191.55,191.55,0,0,0,4.06,38.61,135.36,135.36,0,0,0,12.45,35.81,80.78,80.78,0,0,0,21.59,26.42q13.2,10.42,32,10.41,29,0,45-20.32t16-52.32a216.37,216.37,0,0,0-3.81-39.37,144,144,0,0,0-12.19-37.59,84.78,84.78,0,0,0-21.84-28.19q-13.47-11.17-33.27-11.18-26.93,0-43.43,18.54T4585.06,499.09Z"/><path d="M5011.78,577.83a45.76,45.76,0,0,0,1,10.41,15.05,15.05,0,0,0,4.06,7.37,21,21,0,0,0,8.38,4.83,71.42,71.42,0,0,0,14,2.79q6.6,1,6.6,6.6a30,30,0,0,1-1,7.11q-6.61,0-17.53.76t-18.54,1.78q-11.32,2-19.81,4.32t-12.6,2.29q-7.21,0-7.21-7.62V579.86q-7.12,9.66-14.22,18.54a85.88,85.88,0,0,1-16.51,15.75,78.39,78.39,0,0,1-21.59,10.92q-12.19,4.06-29.46,4.06a79.36,79.36,0,0,1-33-7.11,81.23,81.23,0,0,1-27.94-21.08q-12.19-14-19.56-34.29t-7.37-46.23q0-27.93,10.67-50t26.42-37.08a114.67,114.67,0,0,1,34.29-22.86q18.54-7.87,34.29-7.87a139.73,139.73,0,0,1,34.29,3.81,219,219,0,0,1,29.72,9.91v-96q0-15.24-5.33-21.59t-23.11-7.87q-6.61-1-6.6-7.11a29.62,29.62,0,0,1,1-7.11q6.6,0,18.54-.76t19.61-1.78a154.06,154.06,0,0,0,21.06-4.06q9.24-2.54,13.36-2.54,7.19,0,7.19,7.62a148.46,148.46,0,0,1-1.52,19.81,207.72,207.72,0,0,0-1.52,27.43Zm-42.67-128.52a102,102,0,0,0-27.94-20.83q-15.24-7.62-34.54-7.62-29.47,0-44.45,24.38t-15,62.48a153.31,153.31,0,0,0,4.32,36.83,102.69,102.69,0,0,0,12.7,30.73,66.33,66.33,0,0,0,20.32,20.83,48.51,48.51,0,0,0,26.67,7.62q10.16,0,20.32-6.1a79.83,79.83,0,0,0,18.54-15.49,82.08,82.08,0,0,0,13.72-21.34,57.53,57.53,0,0,0,5.33-23.62Z"/><path d="M5527.39,457.94A177.33,177.33,0,0,1,5517,517.38a158.35,158.35,0,0,1-31.5,53.09q-21.09,23.62-53.34,38.1T5356.7,623H5252.56q-13.22,0-30,.76t-32.51,1.78a43.21,43.21,0,0,1-1-8.13q0-7.11,5.59-8.13,18.79-4.57,26.92-8.64t8.13-13.21V328.91q0-10.16-7.62-14.22t-27.43-7.62a5.5,5.5,0,0,1-4.32-3,12.29,12.29,0,0,1-1.27-5.59,43.28,43.28,0,0,1,1-8.13q10.67,1,18.54,1.27t15,.76q7.11.51,14,.51H5356.2q42.67,0,74.93,13.21t53.59,35.56a145.55,145.55,0,0,1,32,52.32A189.54,189.54,0,0,1,5527.39,457.94Zm-53.34,9.65q0-78.22-38.86-116.08t-113.54-37.85h-44.2V583.93a14.42,14.42,0,0,0,2.54,8.64q2.54,3.56,8.64,5.59a78.47,78.47,0,0,0,16.76,3q10.67,1,26.92,1,39.11,0,66-9.4T5442,565.89q16.77-17.53,24.38-42.42T5474.05,467.59Z"/><path d="M5752,575.8a10.66,10.66,0,0,1,7.6-3.56q5.06,0,9.62,8.64A146.79,146.79,0,0,1,5754,598.66a97.81,97.81,0,0,1-20.57,15.49,112.46,112.46,0,0,1-27.18,10.92q-15.24,4.06-35.05,4.06a112.91,112.91,0,0,1-38.61-6.6,88.3,88.3,0,0,1-32.26-20.32q-14-13.72-22.35-34t-8.38-47.75a114.27,114.27,0,0,1,9.91-47.75,123.08,123.08,0,0,1,25.65-37.34,120.27,120.27,0,0,1,34.8-24.13q19.05-8.63,36.83-8.64,47.24,0,68.83,27.43t21.59,71.63q0,3-3,3l-146.81,6.6a115.33,115.33,0,0,0,5.56,36.58,88.37,88.37,0,0,0,15.7,29,71.3,71.3,0,0,0,24.56,19q14.43,6.86,32.66,6.86a67.7,67.7,0,0,0,31.14-7.62A81.93,81.93,0,0,0,5752,575.8Zm-82.11-154.94q-25.29,0-39.43,19.81t-14.15,51.82l95.54-4.57q7.57,0,7.58-6.6a74.56,74.56,0,0,0-3-20.32,66.89,66.89,0,0,0-9.1-19.56,51.55,51.55,0,0,0-15.41-14.73Q5682.5,420.87,5669.87,420.86Z"/><path d="M5905.84,421.87q-23.88,0-38.86,20.83t-15,56.39q0,49.28,22.1,76.71t58.67,27.43q16.25,0,27.18-5.08A176.06,176.06,0,0,0,5979,588q1.52-1,3.56-2.29a7.64,7.64,0,0,1,4.06-1.27q2.54,0,5.59,3.56a31.59,31.59,0,0,1,4.06,5.59,88.18,88.18,0,0,1-12.7,12.19,102.84,102.84,0,0,1-18.29,11.43,112.21,112.21,0,0,1-25.15,8.64,148,148,0,0,1-32.77,3.3,112.53,112.53,0,0,1-39.37-6.86,90.78,90.78,0,0,1-32.51-20.57q-14-13.72-22.1-34.29t-8.13-48q0-25.91,9.91-47.5a122.88,122.88,0,0,1,25.4-36.83,119.27,119.27,0,0,1,34.54-23.88q19-8.63,37.34-8.64a132.25,132.25,0,0,1,34,4.06,96.52,96.52,0,0,1,25.91,10.67,52.23,52.23,0,0,1,16.51,15.49,33.34,33.34,0,0,1,5.84,18.54c0,2-1.7,3.73-5.08,5.08a64.75,64.75,0,0,1-11.43,3.3A110,110,0,0,1,5966,461.5q-5.85.51-6.86.51-6.61,0-10.41-6.35t-8.38-13.72a55.36,55.36,0,0,0-12.45-13.72Q5920.06,421.88,5905.84,421.87Z"/><path d="M6079.83,623q-8.74,0-17.71.25t-16.58.76q-7.62.5-13.21,1c-3.73.33-6.1.51-7.11.51,0-.34-.17-1.52-.51-3.56a30.16,30.16,0,0,1-.51-4.57q0-5.07,4.57-6.1a102.72,102.72,0,0,0,21.34-6.1q8.12-3.55,8.13-11.68V455.4q0-15.24-5.33-21.84t-23.11-8.13q-6.61-1-6.6-7.11a28.33,28.33,0,0,1,1-6.6q6.6,0,18.54-.76t19.61-1.78q11.81-2,21.06-4.32t13.36-2.29q7.19,0,7.19,7.62a114.36,114.36,0,0,1-1.52,17,179.35,179.35,0,0,0-1.52,26.16V593.58q0,8.13,7.87,11.68t22.1,6.1q4.06,1,4.06,6.1,0,1.52-.25,4.57c-.17,2-.43,3.21-.76,3.56-1,0-3.3-.17-6.86-.51s-7.87-.68-13-1-10.61-.6-16.59-.76S6085.66,623,6079.83,623Zm-29.72-305.31a29.7,29.7,0,0,1,8.38-21.08,27.77,27.77,0,0,1,21.08-8.89,26.41,26.41,0,0,1,20.32,8.89,30.23,30.23,0,0,1,8.13,21.08q0,13.22-8.13,21.34t-20.32,8.13q-12.7,0-21.08-8.13T6050.11,317.73Z"/><path d="M6301.57,465.05c-2.71,0-4.66-.59-5.84-1.78a8.1,8.1,0,0,1-2.29-3.81q-3.56-20.82-16.51-29.72t-32.26-8.89a43.08,43.08,0,0,0-26.16,8.38q-11.43,8.38-11.43,23.11,0,13.22,10.41,22.1T6255.34,492a241.27,241.27,0,0,1,27.18,10.16,83.77,83.77,0,0,1,21.34,13.46,55.7,55.7,0,0,1,14,19.3q5.07,11.43,5.08,27.18a68.43,68.43,0,0,1-4.83,25.4,57.65,57.65,0,0,1-14.73,21.34q-9.91,9.14-24.89,14.73t-35.81,5.59a196.33,196.33,0,0,1-36.32-3.81,118.6,118.6,0,0,1-36.32-13q-1-13.2-1.78-27.69t-.76-29.21h5.08a19.21,19.21,0,0,1,8.64,1.78,7.16,7.16,0,0,1,4.06,5.84q2,21.34,16.51,34.29t40.39,13q20.82,0,32-9.4t11.18-25.65q0-16.76-12.19-25.65t-36.07-16q-30-9.14-47-23.88t-17-43.18a61.75,61.75,0,0,1,19.3-45.21,67.31,67.31,0,0,1,22.35-13.72,81.58,81.58,0,0,1,29.46-5.08,134.63,134.63,0,0,1,38.35,5.33q18,5.33,28.19,11.43.5,4.07,1,9.91t.76,12.19q.25,6.36.51,12.7t.25,11.43Z"/><path d="M6415.11,623q-8.74,0-17.71.25t-16.58.76q-7.62.5-13.21,1c-3.73.33-6.1.51-7.11.51,0-.34-.17-1.52-.51-3.56a30.16,30.16,0,0,1-.51-4.57q0-5.07,4.57-6.1a102.72,102.72,0,0,0,21.34-6.1q8.12-3.55,8.13-11.68V455.4q0-15.24-5.33-21.84t-23.11-8.13q-6.61-1-6.6-7.11a28.33,28.33,0,0,1,1-6.6q6.6,0,18.54-.76t19.61-1.78q11.81-2,21.06-4.32t13.36-2.29q7.19,0,7.19,7.62a114.36,114.36,0,0,1-1.52,17,179.35,179.35,0,0,0-1.52,26.16V593.58q0,8.13,7.87,11.68t22.1,6.1q4.06,1,4.06,6.1,0,1.52-.25,4.57c-.17,2-.43,3.21-.76,3.56-1,0-3.3-.17-6.86-.51s-7.87-.68-13-1-10.61-.6-16.59-.76S6420.93,623,6415.11,623Zm-29.72-305.31a29.7,29.7,0,0,1,8.38-21.08,27.77,27.77,0,0,1,21.08-8.89,26.41,26.41,0,0,1,20.32,8.89,30.23,30.23,0,0,1,8.13,21.08q0,13.22-8.13,21.34t-20.32,8.13q-12.7,0-21.08-8.13T6385.39,317.73Z"/><path d="M6499.69,515.85a111.4,111.4,0,0,1,8.89-44.2,112.19,112.19,0,0,1,59.94-60.2,110.92,110.92,0,0,1,44.45-8.89q24.88,0,45.72,8.38a108,108,0,0,1,35.81,23.11,102.84,102.84,0,0,1,23.37,35.81,123.35,123.35,0,0,1,8.38,46,110.92,110.92,0,0,1-8.89,44.45,112.86,112.86,0,0,1-59.94,59.94,111,111,0,0,1-44.45,8.89q-24.9,0-45.72-8.38a107.67,107.67,0,0,1-35.81-23.11,103.07,103.07,0,0,1-23.37-35.56Q6499.69,541.26,6499.69,515.85Zm47.75-16.76a191.55,191.55,0,0,0,4.06,38.61,135.36,135.36,0,0,0,12.45,35.81,80.78,80.78,0,0,0,21.59,26.42q13.2,10.42,32,10.41,29,0,45-20.32t16-52.32a216.37,216.37,0,0,0-3.81-39.37,144,144,0,0,0-12.19-37.59,84.78,84.78,0,0,0-21.84-28.19q-13.47-11.17-33.27-11.18-26.93,0-43.43,18.54T6547.44,499.09Z"/><path d="M6984.83,594.09q0,7.62,9.14,11.43a98.25,98.25,0,0,0,20.32,5.84q4.57,1,4.57,6.1a44,44,0,0,1-1,8.13q-13.22-1-25.91-1.78T6964.5,623q-13.72,0-27.18.76t-26.67,1.78a43.21,43.21,0,0,1-1-8.13q0-5.07,4.57-6.1a88.76,88.76,0,0,0,19.3-5.84q8.63-3.81,8.64-11.43V494.52a167,167,0,0,0-1.52-23.37,54.56,54.56,0,0,0-5.82-18.54,31.13,31.13,0,0,0-11.63-12.19q-7.33-4.31-19-4.32a73.49,73.49,0,0,0-24.77,4.32,64.1,64.1,0,0,0-21.49,12.7,61.44,61.44,0,0,0-14.91,20.57q-5.56,12.19-5.56,27.94v92.46q0,7.62,8.89,11.43a95.44,95.44,0,0,0,19,5.84q4.57,1,4.57,6.1a43.89,43.89,0,0,1-1,8.13q-13.22-1-26-1.78t-27.13-.76q-14.92,0-28.16.76t-25.94,1.78a43.22,43.22,0,0,1-1-8.13q0-5.07,4.57-6.1a98.39,98.39,0,0,0,20.32-5.84q9.14-3.81,9.14-11.94V455.4q0-15.24-5.33-21.84t-23.11-8.13q-6.61-1-6.6-7.11a28.33,28.33,0,0,1,1-6.6q6.6,0,18.54-.76t19.61-1.78q11.81-2,21.06-4.32t13.36-2.29q7.19,0,7.19,7.62a114.36,114.36,0,0,1-1.52,17,179.35,179.35,0,0,0-1.52,26.16q21.76-24.38,41.77-37.59a77.84,77.84,0,0,1,43.79-13.21q30.87,0,46.32,18t15.45,50Z"/><path d="M7186.5,465.05c-2.71,0-4.66-.59-5.84-1.78a8.1,8.1,0,0,1-2.29-3.81q-3.56-20.82-16.51-29.72t-32.26-8.89a43.08,43.08,0,0,0-26.16,8.38Q7092,437.62,7092,452.35q0,13.22,10.41,22.1T7140.27,492a241.27,241.27,0,0,1,27.18,10.16,83.77,83.77,0,0,1,21.34,13.46,55.7,55.7,0,0,1,14,19.3q5.07,11.43,5.08,27.18a68.43,68.43,0,0,1-4.83,25.4,57.65,57.65,0,0,1-14.73,21.34q-9.91,9.14-24.89,14.73t-35.81,5.59a196.33,196.33,0,0,1-36.32-3.81,118.6,118.6,0,0,1-36.32-13q-1-13.2-1.78-27.69t-.76-29.21h5.08a19.21,19.21,0,0,1,8.64,1.78,7.16,7.16,0,0,1,4.06,5.84q2,21.34,16.51,34.29t40.39,13q20.82,0,32-9.4t11.18-25.65q0-16.76-12.19-25.65t-36.07-16q-30-9.14-47-23.88t-17-43.18a61.75,61.75,0,0,1,19.3-45.21,67.31,67.31,0,0,1,22.35-13.72,81.58,81.58,0,0,1,29.46-5.08,134.63,134.63,0,0,1,38.35,5.33q18,5.33,28.19,11.43.5,4.07,1,9.91t.76,12.19q.25,6.36.51,12.7t.25,11.43Z"/><path d="M1405.55,880.29a99.77,99.77,0,0,1,7.35-38.22,102.5,102.5,0,0,1,20-31.46,96.37,96.37,0,0,1,29.4-21.46,81.42,81.42,0,0,1,35.28-7.94q25.58,0,44.69,8.08t31.6,21.76a89.52,89.52,0,0,1,18.67,31.61,114.8,114.8,0,0,1,6.17,37.63q0,23.23-7.64,41.6a89.23,89.23,0,0,1-52.48,50.71,109.51,109.51,0,0,1-38.66,6.76,100.5,100.5,0,0,1-38.22-7.06,85,85,0,0,1-29.84-20.14,91.71,91.71,0,0,1-19.4-31.31Q1405.55,902.64,1405.55,880.29Zm101.14,85A59.61,59.61,0,0,0,1532,960a58.35,58.35,0,0,0,19.7-14.7,67.71,67.71,0,0,0,12.79-22.34A84.43,84.43,0,0,0,1569,894.7a165.42,165.42,0,0,0-4.41-39.25A97.53,97.53,0,0,0,1551.23,824a65.46,65.46,0,0,0-22.64-21q-13.67-7.64-31.9-7.64a59.84,59.84,0,0,0-23.08,4.56,57.08,57.08,0,0,0-19.4,13.23,64.25,64.25,0,0,0-13.38,21.32q-5,12.64-5,29.11a165.05,165.05,0,0,0,4.7,40.42,105.33,105.33,0,0,0,13.67,32.34,65.73,65.73,0,0,0,22.2,21.32Q1489.64,965.26,1506.69,965.26Z"/><path d="M1641,864.12H1623.4v-5.29q0-3.23,2.79-4a51.09,51.09,0,0,1,6-1.18,16.32,16.32,0,0,0,6-2.06q2.79-1.61,2.79-6.91V831.19q0-16.16,4.56-27.64a59.17,59.17,0,0,1,11.61-19A45.27,45.27,0,0,1,1689.85,770a73.66,73.66,0,0,1,17.49,1.91,51,51,0,0,1,13.38,5.15,29.63,29.63,0,0,1,8.67,7.2,13.09,13.09,0,0,1,3.09,8.08c0,1.18-.84,2.31-2.5,3.38a29.55,29.55,0,0,1-5.59,2.79,37.58,37.58,0,0,1-6,1.76,24.45,24.45,0,0,1-4.12.59,6.7,6.7,0,0,1-6.17-3.53,50.51,50.51,0,0,0-7.79-11.47q-4.56-5-13.67-5-10.58,0-15.73,8.67t-5.15,24.84v37.34h34.69a36.42,36.42,0,0,1-.88,9.11q-.88,3.24-5,3.23h-28.81v90q0,7.65,6.76,10.44t22,4.26a3.52,3.52,0,0,1,3.23,3.82,18.05,18.05,0,0,1-.29,2.65q-.3,1.76-.29,2.06c-.59,0-2.31-.1-5.15-.29s-6.22-.39-10.14-.59-8.14-.34-12.64-.44-8.72-.15-12.64-.15q-5,0-10.14.15t-9.85.44q-4.71.29-8.08.59c-2.26.19-3.67.29-4.26.29,0-.2-.1-.88-.29-2.06a17.52,17.52,0,0,1-.29-2.65,3.2,3.2,0,0,1,2.65-3.53,36.32,36.32,0,0,0,10.58-3.38,7.32,7.32,0,0,0,4.12-6.91Z"/><path d="M1731.89,864.12h-17.64v-5.29q0-3.23,2.79-4a51.09,51.09,0,0,1,6-1.18,16.32,16.32,0,0,0,6-2.06q2.79-1.61,2.79-6.91V831.19q0-16.16,4.56-27.64a59.17,59.17,0,0,1,11.61-19A45.27,45.27,0,0,1,1780.69,770a73.66,73.66,0,0,1,17.49,1.91,51,51,0,0,1,13.38,5.15,29.63,29.63,0,0,1,8.67,7.2,13.09,13.09,0,0,1,3.09,8.08c0,1.18-.84,2.31-2.5,3.38a29.55,29.55,0,0,1-5.59,2.79,37.58,37.58,0,0,1-6,1.76,24.45,24.45,0,0,1-4.12.59,6.7,6.7,0,0,1-6.17-3.53,50.51,50.51,0,0,0-7.79-11.47q-4.56-5-13.67-5-10.58,0-15.73,8.67t-5.15,24.84v37.34h34.69a36.42,36.42,0,0,1-.88,9.11q-.88,3.24-5,3.23h-28.81v90q0,7.65,6.76,10.44t22,4.26a3.52,3.52,0,0,1,3.23,3.82,18.05,18.05,0,0,1-.29,2.65q-.3,1.76-.29,2.06c-.59,0-2.31-.1-5.15-.29s-6.22-.39-10.14-.59-8.14-.34-12.64-.44-8.72-.15-12.64-.15q-5,0-10.14.15t-9.85.44q-4.71.29-8.08.59c-2.26.19-3.67.29-4.26.29,0-.2-.1-.88-.29-2.06a17.52,17.52,0,0,1-.29-2.65,3.2,3.2,0,0,1,2.65-3.53,36.32,36.32,0,0,0,10.58-3.38,7.32,7.32,0,0,0,4.12-6.91Z"/><path d="M1836.11,975.84q-5.06,0-10.25.15t-9.6.44q-4.41.29-7.64.59c-2.16.19-3.53.29-4.12.29,0-.2-.1-.88-.29-2.06a17.46,17.46,0,0,1-.29-2.65,3.2,3.2,0,0,1,2.65-3.53,59.42,59.42,0,0,0,12.35-3.53q4.7-2.05,4.7-6.76v-80q0-8.82-3.09-12.64t-13.38-4.7q-3.82-.59-3.82-4.12a16.39,16.39,0,0,1,.59-3.82q3.82,0,10.73-.44t11.35-1q6.83-1.17,12.19-2.5a36.82,36.82,0,0,1,7.73-1.32q4.16,0,4.16,4.41a66.17,66.17,0,0,1-.88,9.85,103.79,103.79,0,0,0-.88,15.14v81.14a7,7,0,0,0,4.56,6.76,56,56,0,0,0,12.79,3.53q2.35.59,2.35,3.53,0,.88-.15,2.65a4.52,4.52,0,0,1-.44,2.06c-.59,0-1.91-.1-4-.29s-4.56-.39-7.5-.59-6.14-.34-9.6-.44S1839.48,975.84,1836.11,975.84Zm-17.2-176.69a17.19,17.19,0,0,1,4.85-12.2,16.07,16.07,0,0,1,12.2-5.14,15.28,15.28,0,0,1,11.76,5.14,17.49,17.49,0,0,1,4.7,12.2q0,7.65-4.7,12.35a16,16,0,0,1-11.76,4.7,16.81,16.81,0,0,1-12.2-4.7Q1818.91,806.8,1818.91,799.15Z"/><path d="M1943.56,859.42q-13.82,0-22.49,12.05t-8.67,32.63q0,28.52,12.79,44.39t34,15.88q9.41,0,15.73-2.94a101.75,101.75,0,0,0,11-5.88c.59-.39,1.27-.83,2.06-1.32a4.43,4.43,0,0,1,2.35-.73q1.47,0,3.23,2.06a18.3,18.3,0,0,1,2.35,3.23,51,51,0,0,1-7.35,7.06,59.51,59.51,0,0,1-10.58,6.62,65,65,0,0,1-14.55,5,85.7,85.7,0,0,1-19,1.91,65.12,65.12,0,0,1-22.79-4,52.53,52.53,0,0,1-18.82-11.91,56.31,56.31,0,0,1-12.79-19.85q-4.71-11.91-4.7-27.78a65.14,65.14,0,0,1,5.73-27.49,71.11,71.11,0,0,1,14.7-21.32,69,69,0,0,1,20-13.82,52.11,52.11,0,0,1,21.61-5,76.54,76.54,0,0,1,19.7,2.35,55.86,55.86,0,0,1,15,6.17,30.22,30.22,0,0,1,9.56,9,19.29,19.29,0,0,1,3.38,10.73q0,1.76-2.94,2.94a37.44,37.44,0,0,1-6.62,1.91,63.37,63.37,0,0,1-7.06,1q-3.38.3-4,.29a6.74,6.74,0,0,1-6-3.67q-2.21-3.67-4.85-7.94a32,32,0,0,0-7.2-7.94Q1951.79,859.42,1943.56,859.42Z"/><path d="M2116.17,948.5a6.17,6.17,0,0,1,4.4-2.06q2.93,0,5.57,5a84.88,84.88,0,0,1-8.82,10.29,56.61,56.61,0,0,1-11.91,9,65.1,65.1,0,0,1-15.73,6.32,79.09,79.09,0,0,1-20.29,2.35,65.35,65.35,0,0,1-22.34-3.82,51.11,51.11,0,0,1-18.67-11.76,58.32,58.32,0,0,1-12.94-19.7q-4.85-11.76-4.85-27.64a66.14,66.14,0,0,1,5.73-27.64,71.23,71.23,0,0,1,14.85-21.61,69.6,69.6,0,0,1,20.14-14,51.51,51.51,0,0,1,21.31-5q27.34,0,39.84,15.88t12.5,41.45a1.56,1.56,0,0,1-1.76,1.76l-85,3.82a66.76,66.76,0,0,0,3.22,21.17,51.15,51.15,0,0,0,9.09,16.76,41.27,41.27,0,0,0,14.21,11,43.5,43.5,0,0,0,18.9,4,39.19,39.19,0,0,0,18-4.41A47.42,47.42,0,0,0,2116.17,948.5Zm-47.52-89.67q-14.64,0-22.82,11.47t-8.19,30l55.29-2.65q4.38,0,4.39-3.82a43.15,43.15,0,0,0-1.75-11.76,38.71,38.71,0,0,0-5.27-11.32,29.84,29.84,0,0,0-8.92-8.53A23.55,23.55,0,0,0,2068.66,858.83Z"/><path d="M2208.46,913.81a64.47,64.47,0,0,1,5.15-25.58,64.93,64.93,0,0,1,34.69-34.84,64.2,64.2,0,0,1,25.73-5.14,70.28,70.28,0,0,1,26.46,4.85,62.49,62.49,0,0,1,20.73,13.38,59.53,59.53,0,0,1,13.52,20.73,71.39,71.39,0,0,1,4.85,26.61,64.2,64.2,0,0,1-5.15,25.73,65.32,65.32,0,0,1-34.69,34.69,64.21,64.21,0,0,1-25.73,5.15,70.22,70.22,0,0,1-26.46-4.85,62.3,62.3,0,0,1-20.73-13.38,59.65,59.65,0,0,1-13.52-20.58A71,71,0,0,1,2208.46,913.81Zm27.64-9.7a110.86,110.86,0,0,0,2.35,22.34,78.34,78.34,0,0,0,7.2,20.73,46.75,46.75,0,0,0,12.5,15.29q7.64,6,18.52,6,16.76,0,26-11.76t9.26-30.28a125.24,125.24,0,0,0-2.2-22.79,83.36,83.36,0,0,0-7.06-21.76A49.07,49.07,0,0,0,2290,865.59q-7.79-6.46-19.26-6.47-15.59,0-25.14,10.73T2236.09,904.11Z"/><path d="M2378.39,864.12h-17.64v-5.29q0-3.23,2.79-4a51.09,51.09,0,0,1,6-1.18,16.32,16.32,0,0,0,6-2.06q2.79-1.61,2.79-6.91V831.19q0-16.16,4.56-27.64a59.17,59.17,0,0,1,11.61-19A45.27,45.27,0,0,1,2427.19,770a73.66,73.66,0,0,1,17.49,1.91,51,51,0,0,1,13.38,5.15,29.63,29.63,0,0,1,8.67,7.2,13.09,13.09,0,0,1,3.09,8.08c0,1.18-.84,2.31-2.5,3.38a29.55,29.55,0,0,1-5.59,2.79,37.58,37.58,0,0,1-6,1.76,24.45,24.45,0,0,1-4.12.59,6.7,6.7,0,0,1-6.17-3.53,50.51,50.51,0,0,0-7.79-11.47q-4.56-5-13.67-5-10.58,0-15.73,8.67t-5.15,24.84v37.34h34.69a36.42,36.42,0,0,1-.88,9.11q-.88,3.24-5,3.23h-28.81v90q0,7.65,6.76,10.44t22,4.26a3.52,3.52,0,0,1,3.23,3.82,18.05,18.05,0,0,1-.29,2.65q-.3,1.76-.29,2.06c-.59,0-2.31-.1-5.15-.29s-6.22-.39-10.14-.59-8.14-.34-12.64-.44-8.72-.15-12.64-.15q-5,0-10.14.15t-9.85.44q-4.71.29-8.08.59c-2.26.19-3.67.29-4.26.29,0-.2-.1-.88-.29-2.06a17.52,17.52,0,0,1-.29-2.65,3.2,3.2,0,0,1,2.65-3.53,36.32,36.32,0,0,0,10.58-3.38,7.32,7.32,0,0,0,4.12-6.91Z"/><path d="M2566,955.26q0,5.88,4.12,8.08t15.29,4.56q2.93.59,2.94,4.7a25.39,25.39,0,0,1-.59,4.7q-9.12-.59-18.23-1t-17.35-.44q-7.94,0-17.49.44t-18.08,1a25,25,0,0,1-.59-4.7q0-4.11,2.94-4.7,11.17-2.05,15.29-4.41t4.12-8.23V805.62q0-5.88-4.12-8.38T2518.91,793a2.82,2.82,0,0,1-2.35-1.76A8.57,8.57,0,0,1,2516,788a25.06,25.06,0,0,1,.59-4.7q8.82.59,18.38,1t17.2.44q7.35,0,16.9-.44t18.67-1a25.44,25.44,0,0,1,.59,4.7q0,4.41-2.94,5-11.18,1.76-15.29,4.26t-4.12,8.38Z"/><path d="M2741.47,959.08q0,4.41,5.29,6.62a56.89,56.89,0,0,0,11.76,3.38,3.2,3.2,0,0,1,2.65,3.53,25.39,25.39,0,0,1-.59,4.7q-7.65-.59-15-1t-15.88-.44q-7.94,0-15.73.44t-15.44,1a25,25,0,0,1-.59-4.7,3.2,3.2,0,0,1,2.65-3.53,51.41,51.41,0,0,0,11.17-3.38q5-2.21,5-6.62V901.46a96.7,96.7,0,0,0-.88-13.52,31.57,31.57,0,0,0-3.37-10.73,18,18,0,0,0-6.73-7.06q-4.24-2.49-11-2.5a42.55,42.55,0,0,0-14.34,2.5,37.1,37.1,0,0,0-12.44,7.35,35.55,35.55,0,0,0-8.63,11.91,38.59,38.59,0,0,0-3.22,16.17v53.51q0,4.41,5.15,6.62a55.28,55.28,0,0,0,11,3.38,3.2,3.2,0,0,1,2.65,3.53,25.42,25.42,0,0,1-.59,4.7q-7.65-.59-15-1t-15.7-.44q-8.63,0-16.3.44t-15,1a25,25,0,0,1-.59-4.7,3.2,3.2,0,0,1,2.65-3.53,57,57,0,0,0,11.76-3.38q5.29-2.21,5.29-6.91v-80q0-8.82-3.09-12.64t-13.38-4.7q-3.82-.59-3.82-4.12a16.39,16.39,0,0,1,.59-3.82q3.82,0,10.73-.44t11.35-1q6.83-1.17,12.19-2.5a36.82,36.82,0,0,1,7.73-1.32q4.16,0,4.16,4.41a66.17,66.17,0,0,1-.88,9.85,103.79,103.79,0,0,0-.88,15.14q12.6-14.11,24.17-21.76a45,45,0,0,1,25.34-7.64q17.87,0,26.8,10.44t8.94,29Z"/><path d="M2858.18,884.41a4.63,4.63,0,0,1-3.38-1,4.7,4.7,0,0,1-1.32-2.21q-2.06-12.05-9.55-17.2t-18.67-5.14a24.94,24.94,0,0,0-15.14,4.85,15.68,15.68,0,0,0-6.62,13.38,16.13,16.13,0,0,0,6,12.79q6,5.15,21.9,10.14a139.44,139.44,0,0,1,15.73,5.88,48.46,48.46,0,0,1,12.35,7.79,32.23,32.23,0,0,1,8.08,11.17,38.57,38.57,0,0,1,2.94,15.73,39.61,39.61,0,0,1-2.79,14.7,33.36,33.36,0,0,1-8.53,12.35,43.2,43.2,0,0,1-14.41,8.53q-8.67,3.23-20.73,3.23a113.66,113.66,0,0,1-21-2.21,68.67,68.67,0,0,1-21-7.5q-.59-7.64-1-16t-.44-16.9h2.94a11.12,11.12,0,0,1,5,1,4.14,4.14,0,0,1,2.35,3.38q1.17,12.35,9.55,19.85t23.37,7.5q12.05,0,18.52-5.44t6.47-14.85q0-9.7-7.06-14.85t-20.87-9.26q-17.35-5.29-27.19-13.82t-9.85-25A35.74,35.74,0,0,1,2795,859.13a39,39,0,0,1,12.94-7.94,47.22,47.22,0,0,1,17.05-2.94,77.89,77.89,0,0,1,22.2,3.09,72.46,72.46,0,0,1,16.32,6.62q.29,2.36.59,5.73t.44,7.06q.14,3.68.29,7.35t.15,6.62Z"/><path d="M2961.37,958.5a6.54,6.54,0,0,1,2.5-1.76,6.44,6.44,0,0,1,1.62-.29q2.65,0,4.7,3.82a71.78,71.78,0,0,1-16.46,13.82,36,36,0,0,1-18.82,5.29,45.9,45.9,0,0,1-11.17-1.32,19.23,19.23,0,0,1-9.11-5.15,26.17,26.17,0,0,1-6-10.44q-2.2-6.62-2.21-17.2V864.12h-17.64v-3.23a9.82,9.82,0,0,1,.73-3.82,3,3,0,0,1,3.09-1.76q7.94,0,12.94-4.12a32,32,0,0,0,8.23-10.58q3.53-7.06,6.17-13.23t5.88-6.17h5.29v30.58h34.4q0,6.17-1.32,9.26a4.84,4.84,0,0,1-4.85,3.09h-28.22V937a103.75,103.75,0,0,0,.88,15.14,26.22,26.22,0,0,0,2.65,8.82,8.36,8.36,0,0,0,4.12,4,15,15,0,0,0,5.29.88,19.87,19.87,0,0,0,9.26-2.21A53.82,53.82,0,0,0,2961.37,958.5Z"/><path d="M3014.14,975.84q-5.06,0-10.25.15t-9.6.44q-4.41.29-7.64.59c-2.16.19-3.53.29-4.12.29,0-.2-.1-.88-.29-2.06a17.46,17.46,0,0,1-.29-2.65,3.2,3.2,0,0,1,2.65-3.53,59.42,59.42,0,0,0,12.35-3.53q4.7-2.05,4.7-6.76v-80q0-8.82-3.09-12.64t-13.38-4.7q-3.82-.59-3.82-4.12a16.39,16.39,0,0,1,.59-3.82q3.82,0,10.73-.44t11.35-1q6.83-1.17,12.19-2.5a36.82,36.82,0,0,1,7.73-1.32q4.16,0,4.16,4.41a66.17,66.17,0,0,1-.88,9.85,103.79,103.79,0,0,0-.88,15.14v81.14a7,7,0,0,0,4.56,6.76,56,56,0,0,0,12.79,3.53q2.35.59,2.35,3.53,0,.88-.15,2.65a4.52,4.52,0,0,1-.44,2.06c-.59,0-1.91-.1-4-.29s-4.56-.39-7.5-.59-6.14-.34-9.6-.44S3017.52,975.84,3014.14,975.84Zm-17.2-176.69a17.19,17.19,0,0,1,4.85-12.2,16.07,16.07,0,0,1,12.2-5.14,15.28,15.28,0,0,1,11.76,5.14,17.49,17.49,0,0,1,4.7,12.2q0,7.65-4.7,12.35a16,16,0,0,1-11.76,4.7,16.81,16.81,0,0,1-12.2-4.7Q2996.95,806.8,2996.95,799.15Z"/><path d="M3131.89,958.5a6.54,6.54,0,0,1,2.5-1.76,6.44,6.44,0,0,1,1.62-.29q2.65,0,4.7,3.82a71.78,71.78,0,0,1-16.46,13.82,36,36,0,0,1-18.82,5.29,45.9,45.9,0,0,1-11.17-1.32,19.23,19.23,0,0,1-9.11-5.15,26.17,26.17,0,0,1-6-10.44q-2.2-6.62-2.21-17.2V864.12h-17.64v-3.23a9.82,9.82,0,0,1,.73-3.82,3,3,0,0,1,3.09-1.76q7.94,0,12.94-4.12a32,32,0,0,0,8.23-10.58q3.53-7.06,6.17-13.23t5.88-6.17h5.29v30.58H3136q0,6.17-1.32,9.26a4.84,4.84,0,0,1-4.85,3.09h-28.22V937a103.75,103.75,0,0,0,.88,15.14,26.22,26.22,0,0,0,2.65,8.82,8.36,8.36,0,0,0,4.12,4,15,15,0,0,0,5.29.88,19.87,19.87,0,0,0,9.26-2.21A53.82,53.82,0,0,0,3131.89,958.5Z"/><path d="M3169.23,878.82q0-9.7-2.79-13.08t-12.79-4.26q-3.82-.59-3.82-3.82a17.13,17.13,0,0,1,.59-4.12q3.82,0,10.14-.44a86.54,86.54,0,0,0,10.73-1.32,89.25,89.25,0,0,0,11.32-2.21,30.57,30.57,0,0,1,7.2-1.32q4.11,0,4.12,4.41v73.5a96,96,0,0,0,.88,13.52,33.59,33.59,0,0,0,3.23,10.73,16.73,16.73,0,0,0,6.76,7.06A22.41,22.41,0,0,0,3216,960a42.82,42.82,0,0,0,14.41-2.5,37.25,37.25,0,0,0,12.5-7.35,35.66,35.66,0,0,0,8.67-11.91,39.18,39.18,0,0,0,3.23-16.46V878.82q0-9.41-2.79-12.94t-13.08-4.41q-3.82-.59-3.82-3.82a17.13,17.13,0,0,1,.59-4.12q3.82,0,10.14-.44a97.47,97.47,0,0,0,11-1.32,85.41,85.41,0,0,0,11.32-2.21,29.59,29.59,0,0,1,7.15-1.32q4.17,0,4.17,4.41v95.55a44.52,44.52,0,0,0,.59,8.08,9.91,9.91,0,0,0,2.35,5,11.28,11.28,0,0,0,4.85,2.94,31.91,31.91,0,0,0,8.08,1.32q3.82.59,3.82,3.82a17.35,17.35,0,0,1-.59,4.12,83.26,83.26,0,0,0-11.76.88q-6.17.88-11.82,1.76t-10,1.76a35.51,35.51,0,0,1-6.1.88q-4.17,0-4.17-4.41V950q-.88.88-5,5.59a84.27,84.27,0,0,1-10.73,10,82.86,82.86,0,0,1-15.29,9.55,41.81,41.81,0,0,1-18.67,4.26q-17.94,0-26.9-10.29t-9-29.11Z"/><path d="M3385,958.5a6.54,6.54,0,0,1,2.5-1.76,6.44,6.44,0,0,1,1.62-.29q2.65,0,4.7,3.82a71.78,71.78,0,0,1-16.46,13.82,36,36,0,0,1-18.82,5.29,45.9,45.9,0,0,1-11.17-1.32,19.23,19.23,0,0,1-9.11-5.15,26.17,26.17,0,0,1-6-10.44q-2.2-6.62-2.21-17.2V864.12H3312.4v-3.23a9.82,9.82,0,0,1,.73-3.82,3,3,0,0,1,3.09-1.76q7.94,0,12.94-4.12a32,32,0,0,0,8.23-10.58q3.53-7.06,6.17-13.23t5.88-6.17h5.29v30.58h34.4q0,6.17-1.32,9.26a4.84,4.84,0,0,1-4.85,3.09h-28.22V937a103.75,103.75,0,0,0,.88,15.14,26.22,26.22,0,0,0,2.65,8.82,8.36,8.36,0,0,0,4.12,4,15,15,0,0,0,5.29.88,19.87,19.87,0,0,0,9.26-2.21A53.82,53.82,0,0,0,3385,958.5Z"/><path d="M3437.79,975.84q-5.06,0-10.25.15t-9.6.44q-4.41.29-7.64.59c-2.16.19-3.53.29-4.12.29,0-.2-.1-.88-.29-2.06a17.46,17.46,0,0,1-.29-2.65,3.2,3.2,0,0,1,2.65-3.53,59.42,59.42,0,0,0,12.35-3.53q4.7-2.05,4.7-6.76v-80q0-8.82-3.09-12.64t-13.38-4.7q-3.82-.59-3.82-4.12a16.39,16.39,0,0,1,.59-3.82q3.82,0,10.73-.44t11.35-1q6.83-1.17,12.19-2.5a36.82,36.82,0,0,1,7.73-1.32q4.16,0,4.16,4.41a66.17,66.17,0,0,1-.88,9.85,103.79,103.79,0,0,0-.88,15.14v81.14a7,7,0,0,0,4.56,6.76,56,56,0,0,0,12.79,3.53q2.35.59,2.35,3.53,0,.88-.15,2.65a4.52,4.52,0,0,1-.44,2.06c-.59,0-1.91-.1-4-.29s-4.56-.39-7.5-.59-6.14-.34-9.6-.44S3441.16,975.84,3437.79,975.84Zm-17.2-176.69a17.19,17.19,0,0,1,4.85-12.2,16.07,16.07,0,0,1,12.2-5.14,15.28,15.28,0,0,1,11.76,5.14,17.49,17.49,0,0,1,4.7,12.2q0,7.65-4.7,12.35a16,16,0,0,1-11.76,4.7,16.81,16.81,0,0,1-12.2-4.7Q3420.59,806.8,3420.59,799.15Z"/><path d="M3486.74,913.81a64.47,64.47,0,0,1,5.15-25.58,64.93,64.93,0,0,1,34.69-34.84,64.2,64.2,0,0,1,25.73-5.14,70.28,70.28,0,0,1,26.46,4.85,62.49,62.49,0,0,1,20.73,13.38A59.52,59.52,0,0,1,3613,887.2a71.38,71.38,0,0,1,4.85,26.61,64.2,64.2,0,0,1-5.15,25.73A65.31,65.31,0,0,1,3578,974.23a64.21,64.21,0,0,1-25.73,5.15,70.22,70.22,0,0,1-26.46-4.85,62.3,62.3,0,0,1-20.73-13.38,59.65,59.65,0,0,1-13.52-20.58A71,71,0,0,1,3486.74,913.81Zm27.64-9.7a110.86,110.86,0,0,0,2.35,22.34,78.34,78.34,0,0,0,7.2,20.73,46.75,46.75,0,0,0,12.5,15.29q7.64,6,18.52,6,16.76,0,26-11.76t9.26-30.28a125.24,125.24,0,0,0-2.2-22.79,83.36,83.36,0,0,0-7.06-21.76,49.07,49.07,0,0,0-12.64-16.32q-7.79-6.46-19.26-6.47-15.59,0-25.14,10.73T3514.38,904.11Z"/><path d="M3767.51,959.08q0,4.41,5.29,6.62a56.88,56.88,0,0,0,11.76,3.38,3.2,3.2,0,0,1,2.65,3.53,25.38,25.38,0,0,1-.59,4.7q-7.65-.59-15-1t-15.88-.44q-7.94,0-15.73.44t-15.44,1a25,25,0,0,1-.59-4.7,3.2,3.2,0,0,1,2.65-3.53,51.4,51.4,0,0,0,11.17-3.38q5-2.21,5-6.62V901.46a96.63,96.63,0,0,0-.88-13.52,31.57,31.57,0,0,0-3.37-10.73,18,18,0,0,0-6.73-7.06q-4.25-2.49-11-2.5a42.55,42.55,0,0,0-14.34,2.5,37.09,37.09,0,0,0-12.44,7.35,35.56,35.56,0,0,0-8.63,11.91,38.58,38.58,0,0,0-3.22,16.17v53.51q0,4.41,5.15,6.62a55.28,55.28,0,0,0,11,3.38,3.2,3.2,0,0,1,2.65,3.53,25.38,25.38,0,0,1-.59,4.7q-7.65-.59-15-1t-15.7-.44q-8.63,0-16.3.44t-15,1a25,25,0,0,1-.59-4.7,3.2,3.2,0,0,1,2.65-3.53,57,57,0,0,0,11.76-3.38q5.29-2.21,5.29-6.91v-80q0-8.82-3.09-12.64t-13.38-4.7q-3.82-.59-3.82-4.12a16.41,16.41,0,0,1,.59-3.82q3.82,0,10.73-.44t11.35-1q6.84-1.17,12.19-2.5a36.81,36.81,0,0,1,7.73-1.32q4.16,0,4.16,4.41a66.05,66.05,0,0,1-.88,9.85,103.79,103.79,0,0,0-.88,15.14q12.6-14.11,24.17-21.76a45,45,0,0,1,25.34-7.64q17.87,0,26.8,10.44t8.94,29Z"/><path d="M3927.44,967.9q3.23,0,3.53,6.17-7.65,5.29-19.4,5.29a30.24,30.24,0,0,1-11.27-1.91,24,24,0,0,1-8-5.15,23.15,23.15,0,0,1-5.06-7.35,31.91,31.91,0,0,1-2.38-8.53q-7.35,13.23-17.49,18.08a53.56,53.56,0,0,1-23.37,4.85,81.59,81.59,0,0,1-12.49-1,37.89,37.89,0,0,1-12.5-4.26,26.87,26.87,0,0,1-9.7-9.11q-3.82-5.88-3.82-15.58,0-10.87,5.15-18.37a42,42,0,0,1,13.23-12.35,79.64,79.64,0,0,1,17.64-7.79q9.55-2.94,18.38-5,5-.88,9.26-1.91a70.41,70.41,0,0,0,7.5-2.21q4.11-1.17,5.14-3.23t1-7.94q0-13.82-5.29-22.79t-18.82-9a27.2,27.2,0,0,0-8.53,1.18,14,14,0,0,0-5.88,3.67,22.47,22.47,0,0,0-4.12,6.62q-1.76,4.12-3.53,9.7a7.05,7.05,0,0,1-4,4.7,71.83,71.83,0,0,1-10.44,3.53,44,44,0,0,1-4.41,1.18,20.87,20.87,0,0,1-4.41.59q-2.94,0-2.94-6.17,0-6.46,5-12.94a50.24,50.24,0,0,1,12.79-11.47,76.69,76.69,0,0,1,16.91-8.08,54,54,0,0,1,17.35-3.09A89.29,89.29,0,0,1,3881,850a34,34,0,0,1,14.22,6.47,29.48,29.48,0,0,1,9.08,12.64q3.12,7.94,3.12,20.58v50.57a104.55,104.55,0,0,0,.73,14.85,22.2,22.2,0,0,0,2.21,7.2q2.05,4.12,4.56,5.44a10.86,10.86,0,0,0,5.15,1.32,12.31,12.31,0,0,0,4.56-.59A6.82,6.82,0,0,1,3927.44,967.9Zm-44.69-57.33-9.46,1.47q-7.69,1.48-14.94,3.53a46.62,46.62,0,0,0-12.86,5.73,29,29,0,0,0-9,9.26q-3.4,5.59-3.4,13.82,0,11.18,5.77,17.05a19.27,19.27,0,0,0,14.35,5.88,26.43,26.43,0,0,0,11.09-2.5,27.75,27.75,0,0,0,9.46-7.06,37.62,37.62,0,0,0,6.51-10.73,35.61,35.61,0,0,0,2.51-13.52Z"/><path d="M4008,977.31q-7.65-.59-15.61-1t-16-.44q-8,0-16.44.44t-15.76,1a25,25,0,0,1-.59-4.7,3.2,3.2,0,0,1,2.65-3.53,63.79,63.79,0,0,0,12.05-3.38q5.58-2.21,5.59-6.91V800.62q0-9.41-3.67-12.79t-14-4.26q-3.82-.59-3.82-4.12a17.11,17.11,0,0,1,.59-4.12q3.82,0,10.58-.44t12.37-1a89.09,89.09,0,0,0,12.19-2.35,33.55,33.55,0,0,1,7.73-1.47q2.67,0,3.57,1.18a5.26,5.26,0,0,1,.89,3.23,89.19,89.19,0,0,1-.88,11.61,118.33,118.33,0,0,0-.88,15.44V958.79q0,4.71,5.44,6.91a59.45,59.45,0,0,0,12.2,3.38q2.35.59,2.35,3.53A25.38,25.38,0,0,1,4008,977.31Z"/><path d="M4164.4,890h-21.76v64.68a8.73,8.73,0,0,0,6,8.82q6,2.36,18.38,3.82,3.53.59,3.53,5a26.31,26.31,0,0,1-.59,5q-7.94-.59-19.26-1t-22.2-.44q-7.65,0-17.64.44t-18.82,1a25,25,0,0,1-.59-4.7q0-4.11,3.23-4.7,11.17-1.76,15.73-4.26t4.56-8.38V805.62a9.36,9.36,0,0,0-4.26-8.38q-4.27-2.79-16.61-4.26-2.94-.29-2.94-5a25,25,0,0,1,.59-4.7q8.82.59,18.23,1t17.93.44h39.69q31.75,0,47.92,14t16.17,37.78a45.28,45.28,0,0,1-2.21,13.52,53.06,53.06,0,0,1-6.76,13.82,56.25,56.25,0,0,1-11.76,12.5,59.68,59.68,0,0,1-16.91,9.26l49.1,68.21q5.58,7.65,12.35,10.58a81.21,81.21,0,0,0,12.64,4.41q2.65.59,2.65,4.12a27.34,27.34,0,0,1-.59,5.29q-6.77-.59-16.46-1t-17.93-.44q-6.17,0-12.5-5.29a65.07,65.07,0,0,1-11.91-13.52Zm-6.17-12.05q20.58,0,31.75-8.67t11.17-30.43a56.86,56.86,0,0,0-2.35-16.76,34.1,34.1,0,0,0-7.5-13.23,35.37,35.37,0,0,0-13.52-8.82q-8.38-3.23-20.43-3.23h-14.7v81.14Z"/><path d="M4382.28,948.5a6.17,6.17,0,0,1,4.4-2.06q2.93,0,5.57,5a84.88,84.88,0,0,1-8.82,10.29,56.62,56.62,0,0,1-11.91,9,65.11,65.11,0,0,1-15.73,6.32,79.09,79.09,0,0,1-20.29,2.35,65.35,65.35,0,0,1-22.34-3.82,51.11,51.11,0,0,1-18.67-11.76,58.32,58.32,0,0,1-12.94-19.7q-4.85-11.76-4.85-27.64a66.13,66.13,0,0,1,5.73-27.64,71.22,71.22,0,0,1,14.85-21.61,69.61,69.61,0,0,1,20.14-14,51.51,51.51,0,0,1,21.32-5q27.34,0,39.84,15.88t12.5,41.45a1.56,1.56,0,0,1-1.76,1.76l-85,3.82a66.74,66.74,0,0,0,3.22,21.17,51.14,51.14,0,0,0,9.09,16.76,41.27,41.27,0,0,0,14.21,11,43.5,43.5,0,0,0,18.9,4,39.19,39.19,0,0,0,18-4.41A47.43,47.43,0,0,0,4382.28,948.5Zm-47.52-89.67q-14.64,0-22.82,11.47t-8.19,30l55.29-2.65q4.38,0,4.39-3.82a43.15,43.15,0,0,0-1.75-11.76,38.73,38.73,0,0,0-5.27-11.32,29.84,29.84,0,0,0-8.92-8.53A23.55,23.55,0,0,0,4334.77,858.83Z"/><path d="M4492.21,884.41a4.63,4.63,0,0,1-3.38-1,4.7,4.7,0,0,1-1.32-2.21q-2.06-12.05-9.55-17.2t-18.67-5.14a24.94,24.94,0,0,0-15.14,4.85,15.68,15.68,0,0,0-6.61,13.38,16.13,16.13,0,0,0,6,12.79q6,5.15,21.9,10.14a139.48,139.48,0,0,1,15.73,5.88,48.47,48.47,0,0,1,12.35,7.79,32.23,32.23,0,0,1,8.08,11.17,38.57,38.57,0,0,1,2.94,15.73,39.59,39.59,0,0,1-2.79,14.7,33.34,33.34,0,0,1-8.53,12.35,43.19,43.19,0,0,1-14.41,8.53q-8.67,3.23-20.73,3.23a113.65,113.65,0,0,1-21-2.21,68.67,68.67,0,0,1-21-7.5q-.59-7.64-1-16t-.44-16.9h2.94a11.12,11.12,0,0,1,5,1,4.14,4.14,0,0,1,2.35,3.38q1.17,12.35,9.56,19.85t23.37,7.5q12.05,0,18.52-5.44t6.47-14.85q0-9.7-7.06-14.85t-20.87-9.26q-17.35-5.29-27.2-13.82t-9.85-25A35.74,35.74,0,0,1,4429,859.13a39,39,0,0,1,12.94-7.94,47.21,47.21,0,0,1,17.05-2.94,77.89,77.89,0,0,1,22.2,3.09,72.47,72.47,0,0,1,16.32,6.62q.29,2.36.59,5.73t.44,7.06q.15,3.68.29,7.35t.15,6.62Z"/><path d="M4632.77,948.5a6.17,6.17,0,0,1,4.4-2.06q2.93,0,5.57,5a84.88,84.88,0,0,1-8.82,10.29,56.62,56.62,0,0,1-11.91,9,65.11,65.11,0,0,1-15.73,6.32,79.09,79.09,0,0,1-20.29,2.35,65.35,65.35,0,0,1-22.34-3.82A51.11,51.11,0,0,1,4545,963.79a58.32,58.32,0,0,1-12.94-19.7q-4.85-11.76-4.85-27.64a66.13,66.13,0,0,1,5.73-27.64,71.22,71.22,0,0,1,14.85-21.61,69.61,69.61,0,0,1,20.14-14,51.51,51.51,0,0,1,21.32-5q27.34,0,39.84,15.88t12.5,41.45a1.56,1.56,0,0,1-1.76,1.76l-85,3.82a66.74,66.74,0,0,0,3.22,21.17,51.14,51.14,0,0,0,9.09,16.76,41.27,41.27,0,0,0,14.21,11,43.5,43.5,0,0,0,18.9,4,39.19,39.19,0,0,0,18-4.41A47.43,47.43,0,0,0,4632.77,948.5Zm-47.52-89.67q-14.64,0-22.82,11.47t-8.19,30l55.29-2.65q4.38,0,4.39-3.82a43.15,43.15,0,0,0-1.75-11.76,38.73,38.73,0,0,0-5.27-11.32,29.84,29.84,0,0,0-8.92-8.53A23.55,23.55,0,0,0,4585.25,858.83Z"/><path d="M4785.91,967.9q3.23,0,3.53,6.17-7.65,5.29-19.4,5.29a30.24,30.24,0,0,1-11.27-1.91,24,24,0,0,1-8-5.15,23.15,23.15,0,0,1-5.06-7.35,31.91,31.91,0,0,1-2.38-8.53q-7.35,13.23-17.49,18.08a53.56,53.56,0,0,1-23.37,4.85,81.59,81.59,0,0,1-12.49-1,37.89,37.89,0,0,1-12.5-4.26,26.87,26.87,0,0,1-9.7-9.11q-3.82-5.88-3.82-15.58,0-10.87,5.15-18.37a42,42,0,0,1,13.23-12.35,79.64,79.64,0,0,1,17.64-7.79q9.55-2.94,18.38-5,5-.88,9.26-1.91a70.41,70.41,0,0,0,7.5-2.21q4.11-1.17,5.14-3.23t1-7.94q0-13.82-5.29-22.79t-18.82-9a27.2,27.2,0,0,0-8.53,1.18,14,14,0,0,0-5.88,3.67,22.47,22.47,0,0,0-4.12,6.62q-1.76,4.12-3.53,9.7a7.05,7.05,0,0,1-4,4.7,71.83,71.83,0,0,1-10.44,3.53,44,44,0,0,1-4.41,1.18,20.87,20.87,0,0,1-4.41.59q-2.94,0-2.94-6.17,0-6.46,5-12.94a50.24,50.24,0,0,1,12.79-11.47,76.69,76.69,0,0,1,16.91-8.08,54,54,0,0,1,17.35-3.09,89.29,89.29,0,0,1,18.56,1.76,34,34,0,0,1,14.22,6.47,29.48,29.48,0,0,1,9.08,12.64q3.12,7.94,3.12,20.58v50.57a104.55,104.55,0,0,0,.73,14.85,22.2,22.2,0,0,0,2.21,7.2q2.05,4.12,4.56,5.44a10.86,10.86,0,0,0,5.15,1.32,12.31,12.31,0,0,0,4.56-.59A6.82,6.82,0,0,1,4785.91,967.9Zm-44.69-57.33-9.46,1.47q-7.69,1.48-14.94,3.53a46.62,46.62,0,0,0-12.86,5.73,29,29,0,0,0-9,9.26q-3.4,5.59-3.4,13.82,0,11.18,5.77,17.05a19.27,19.27,0,0,0,14.35,5.88,26.43,26.43,0,0,0,11.09-2.5,27.75,27.75,0,0,0,9.46-7.06,37.62,37.62,0,0,0,6.51-10.73,35.61,35.61,0,0,0,2.51-13.52Z"/><path d="M4886.46,848.54q8.52,0,12.64,4.12a12.66,12.66,0,0,1,4.12,9.11,8.66,8.66,0,0,1-.59,3.23,7.84,7.84,0,0,1-2.79,3.09,60.56,60.56,0,0,1-6.17,3.82q-4,2.2-11,5.44a26.81,26.81,0,0,0-6.32-5.59,14.72,14.72,0,0,0-8.08-2.35,15.88,15.88,0,0,0-9.11,2.79,24.17,24.17,0,0,0-7.06,7.64A41,41,0,0,0,4847.5,891a52.56,52.56,0,0,0-1.62,13.08v50.57q0,6.47,6.76,9.55t19.4,4.85a3.28,3.28,0,0,1,2.94,3.53,25.38,25.38,0,0,1-.59,4.7q-3.24-.3-8.08-.44t-10.14-.44q-5.29-.3-10.91-.44t-10.39-.15q-8,0-16.59.44t-16.2,1a25,25,0,0,1-.59-4.7,3.2,3.2,0,0,1,2.65-3.53,48.45,48.45,0,0,0,11.91-3.53q5.14-2.35,5.15-6.76V884.12a60.32,60.32,0,0,0-.74-10.29,16.42,16.42,0,0,0-2.5-6.62,10.19,10.19,0,0,0-5.14-3.67,41.06,41.06,0,0,0-8.67-1.76q-3.82-.59-3.82-3.82a17.12,17.12,0,0,1,.59-4.12q3.82,0,10.73-.44t11.34-1q6.55-1.17,11.45-2.5a31.22,31.22,0,0,1,7.29-1.32q4.16,0,4.17,4.41v19.7a126,126,0,0,1,19-17.2A36,36,0,0,1,4886.46,848.54Z"/><path d="M4965,859.42q-13.82,0-22.49,12.05t-8.67,32.63q0,28.52,12.79,44.39t34,15.88q9.41,0,15.73-2.94a101.83,101.83,0,0,0,11-5.88q.88-.59,2.06-1.32a4.42,4.42,0,0,1,2.35-.73q1.47,0,3.23,2.06a18.29,18.29,0,0,1,2.35,3.23,51,51,0,0,1-7.35,7.06,59.57,59.57,0,0,1-10.58,6.62,65,65,0,0,1-14.55,5,85.69,85.69,0,0,1-19,1.91,65.13,65.13,0,0,1-22.79-4,52.54,52.54,0,0,1-18.82-11.91,56.3,56.3,0,0,1-12.79-19.85q-4.71-11.91-4.7-27.78a65.13,65.13,0,0,1,5.73-27.49,71.1,71.1,0,0,1,14.7-21.32,69,69,0,0,1,20-13.82,52.12,52.12,0,0,1,21.61-5,76.55,76.55,0,0,1,19.7,2.35,55.85,55.85,0,0,1,15,6.17,30.22,30.22,0,0,1,9.56,9,19.29,19.29,0,0,1,3.38,10.73q0,1.76-2.94,2.94a37.43,37.43,0,0,1-6.61,1.91,63.38,63.38,0,0,1-7.06,1q-3.38.3-4,.29a6.74,6.74,0,0,1-6-3.67q-2.2-3.67-4.85-7.94a32,32,0,0,0-7.2-7.94Q4973.18,859.42,4965,859.42Z"/><path d="M5079,877.35a48.75,48.75,0,0,0,5-5.29,87.22,87.22,0,0,1,25.87-19.55,41.51,41.51,0,0,1,18.82-4.26,44.43,44.43,0,0,1,13.52,2.06,28.5,28.5,0,0,1,11.32,6.76,34.24,34.24,0,0,1,7.79,12.05q2.94,7.35,2.94,18.23v71.74q0,4.41,5.29,6.62a56.32,56.32,0,0,0,12.05,3.38q2.35.59,2.35,3.53a25.39,25.39,0,0,1-.59,4.7q-7.65-.59-14.87-1t-16.15-.44q-7.74,0-15.56.44t-15.46,1a25,25,0,0,1-.59-4.7,3.2,3.2,0,0,1,2.65-3.53,28.33,28.33,0,0,0,5.44-1.18,35.26,35.26,0,0,0,5.14-2.06,15,15,0,0,0,4-2.79,5.4,5.4,0,0,0,1.62-4V901.46a96.78,96.78,0,0,0-.88-13.52,31.59,31.59,0,0,0-3.37-10.73,18,18,0,0,0-6.73-7.06q-4.24-2.49-11-2.5a42.55,42.55,0,0,0-14.34,2.5,37.09,37.09,0,0,0-12.44,7.35,35.56,35.56,0,0,0-8.63,11.91,38.6,38.6,0,0,0-3.21,16.17v53.51q0,4.41,5,6.62a51.35,51.35,0,0,0,11.17,3.38,3.2,3.2,0,0,1,2.65,3.53,25.38,25.38,0,0,1-.59,4.7q-7.65-.59-15-1t-15.7-.44q-8.63,0-16.3.44t-15,1a25,25,0,0,1-.59-4.7q0-2.94,2.35-3.53A56.42,56.42,0,0,0,5049,965.7q5.29-2.21,5.29-6.91V800.62q0-9.41-3.53-12.64t-14.11-4.41q-3.82-.59-3.82-4.12a17.11,17.11,0,0,1,.59-4.12q3.82,0,10.58-.44t12.35-1a89.47,89.47,0,0,0,12.2-2.35,33.61,33.61,0,0,1,7.74-1.47q2.67,0,3.57,1.18a5.23,5.23,0,0,1,.9,3.23,89.19,89.19,0,0,1-.88,11.61,118.33,118.33,0,0,0-.88,15.44Z"/><path d="M5386.25,967.9q3.23,0,3.53,6.17-7.65,5.29-19.4,5.29a30.24,30.24,0,0,1-11.27-1.91,24,24,0,0,1-8-5.15A23.15,23.15,0,0,1,5346,965a31.91,31.91,0,0,1-2.38-8.53q-7.35,13.23-17.49,18.08a53.56,53.56,0,0,1-23.37,4.85,81.59,81.59,0,0,1-12.49-1,37.89,37.89,0,0,1-12.5-4.26,26.87,26.87,0,0,1-9.7-9.11q-3.82-5.88-3.82-15.58,0-10.87,5.15-18.37a42,42,0,0,1,13.23-12.35,79.64,79.64,0,0,1,17.64-7.79q9.55-2.94,18.38-5,5-.88,9.26-1.91a70.41,70.41,0,0,0,7.5-2.21q4.11-1.17,5.14-3.23t1-7.94q0-13.82-5.29-22.79t-18.82-9a27.2,27.2,0,0,0-8.53,1.18,14,14,0,0,0-5.88,3.67,22.47,22.47,0,0,0-4.12,6.62q-1.76,4.12-3.53,9.7a7.05,7.05,0,0,1-4,4.7,71.83,71.83,0,0,1-10.44,3.53,44,44,0,0,1-4.41,1.18,20.87,20.87,0,0,1-4.41.59q-2.94,0-2.94-6.17,0-6.46,5-12.94A50.24,50.24,0,0,1,5287,859.42a76.69,76.69,0,0,1,16.91-8.08,54,54,0,0,1,17.35-3.09,89.29,89.29,0,0,1,18.56,1.76,34,34,0,0,1,14.22,6.47,29.48,29.48,0,0,1,9.08,12.64q3.12,7.94,3.12,20.58v50.57a104.55,104.55,0,0,0,.73,14.85,22.2,22.2,0,0,0,2.21,7.2q2.05,4.12,4.56,5.44a10.86,10.86,0,0,0,5.15,1.32,12.31,12.31,0,0,0,4.56-.59A6.82,6.82,0,0,1,5386.25,967.9Zm-44.69-57.33L5332.1,912q-7.69,1.48-14.94,3.53a46.62,46.62,0,0,0-12.86,5.73,29,29,0,0,0-9,9.26q-3.4,5.59-3.4,13.82,0,11.18,5.77,17.05a19.27,19.27,0,0,0,14.35,5.88,26.43,26.43,0,0,0,11.09-2.5,27.75,27.75,0,0,0,9.46-7.06,37.62,37.62,0,0,0,6.51-10.73,35.61,35.61,0,0,0,2.51-13.52Z"/><path d="M5531.49,959.08q0,4.41,5.29,6.62a56.88,56.88,0,0,0,11.76,3.38,3.2,3.2,0,0,1,2.65,3.53,25.38,25.38,0,0,1-.59,4.7q-7.65-.59-15-1t-15.88-.44q-7.94,0-15.73.44t-15.44,1a25,25,0,0,1-.59-4.7,3.2,3.2,0,0,1,2.65-3.53,51.4,51.4,0,0,0,11.17-3.38q5-2.21,5-6.62V901.46a96.63,96.63,0,0,0-.88-13.52,31.57,31.57,0,0,0-3.37-10.73,18,18,0,0,0-6.73-7.06q-4.25-2.49-11-2.5a42.55,42.55,0,0,0-14.34,2.5,37.09,37.09,0,0,0-12.44,7.35,35.56,35.56,0,0,0-8.63,11.91,38.58,38.58,0,0,0-3.22,16.17v53.51q0,4.41,5.15,6.62a55.28,55.28,0,0,0,11,3.38,3.2,3.2,0,0,1,2.65,3.53,25.38,25.38,0,0,1-.59,4.7q-7.65-.59-15-1t-15.7-.44q-8.63,0-16.3.44t-15,1a25,25,0,0,1-.59-4.7,3.2,3.2,0,0,1,2.65-3.53,57,57,0,0,0,11.76-3.38q5.29-2.21,5.29-6.91v-80q0-8.82-3.09-12.64t-13.38-4.7q-3.82-.59-3.82-4.12a16.36,16.36,0,0,1,.59-3.82q3.82,0,10.73-.44t11.35-1q6.84-1.17,12.19-2.5a36.81,36.81,0,0,1,7.73-1.32q4.16,0,4.16,4.41a66.05,66.05,0,0,1-.88,9.85,103.79,103.79,0,0,0-.88,15.14q12.6-14.11,24.17-21.76a45,45,0,0,1,25.34-7.64q17.87,0,26.8,10.44t8.94,29Z"/><path d="M5691.42,949.68a26.52,26.52,0,0,0,.59,6,8.72,8.72,0,0,0,2.35,4.26,12.17,12.17,0,0,0,4.85,2.79,41.32,41.32,0,0,0,8.08,1.62q3.82.59,3.82,3.82a17.33,17.33,0,0,1-.59,4.12q-3.82,0-10.14.44t-10.73,1q-6.55,1.18-11.47,2.5a31.42,31.42,0,0,1-7.29,1.32q-4.18,0-4.17-4.41V950.85q-4.12,5.59-8.23,10.73a49.75,49.75,0,0,1-9.55,9.11,45.37,45.37,0,0,1-12.5,6.32,54.33,54.33,0,0,1-17.05,2.35,45.93,45.93,0,0,1-19.11-4.12,47,47,0,0,1-16.17-12.2,61.79,61.79,0,0,1-11.32-19.84,78.14,78.14,0,0,1-4.26-26.75,65.78,65.78,0,0,1,6.17-29A73.11,73.11,0,0,1,5590,866a66.36,66.36,0,0,1,19.84-13.23q10.73-4.55,19.85-4.56a80.82,80.82,0,0,1,19.84,2.21,126.72,126.72,0,0,1,17.2,5.73V800.62q0-8.82-3.09-12.49t-13.38-4.56q-3.82-.59-3.82-4.12a17.11,17.11,0,0,1,.59-4.12q3.82,0,10.73-.44t11.35-1a89.22,89.22,0,0,0,12.19-2.35A33.54,33.54,0,0,1,5689,770q4.16,0,4.16,4.41a85.91,85.91,0,0,1-.88,11.47,120.12,120.12,0,0,0-.88,15.88Zm-24.7-74.38a59.05,59.05,0,0,0-16.17-12.05,44.1,44.1,0,0,0-20-4.41q-17.06,0-25.73,14.11t-8.67,36.16a88.74,88.74,0,0,0,2.5,21.32,59.42,59.42,0,0,0,7.35,17.79,38.4,38.4,0,0,0,11.76,12.05,28.07,28.07,0,0,0,15.43,4.41,22.7,22.7,0,0,0,11.76-3.53,46.21,46.21,0,0,0,10.73-9,47.51,47.51,0,0,0,7.94-12.35,33.3,33.3,0,0,0,3.09-13.67Z"/><path d="M5906.62,905.87h-65.56l-18.82,47.33a15.94,15.94,0,0,0-1.47,5.88q0,6.17,17.93,8.82a3.53,3.53,0,0,1,2.79,1.62,6.28,6.28,0,0,1,.74,3.09,25.46,25.46,0,0,1-.59,4.7q-7.94-.59-16.76-1t-17.35-.44q-5.88,0-12.05.29t-12.94,1.18a19.18,19.18,0,0,1-.59-4.7,7.81,7.81,0,0,1,.74-3.53,3.65,3.65,0,0,1,3.09-1.76q9.11-1.47,13.67-3.67a13.4,13.4,0,0,0,6.62-6.91l70.85-170.52q2.05-5,5.59-5a16.22,16.22,0,0,1,3.53.59l71.15,175.81q1.76,4.12,7.94,6.47a57.83,57.83,0,0,0,12.05,3.23,7.08,7.08,0,0,1,2.79,1.62c.68.69,1,1.91,1,3.67a25.38,25.38,0,0,1-.59,4.7q-9.41-.59-18.52-1t-17.05-.44q-8.23,0-18.82.44t-19.11,1a25,25,0,0,1-.59-4.7c0-1.76.34-3,1-3.67a2.87,2.87,0,0,1,1.91-1,67.2,67.2,0,0,0,12.35-3.38q4.7-1.91,4.7-5.73a11.46,11.46,0,0,0-1.18-4.41Zm-4.7-12.05-27.34-72-28.52,72Z"/><path d="M6072.43,884.41a4.63,4.63,0,0,1-3.38-1,4.7,4.7,0,0,1-1.32-2.21q-2.06-12.05-9.55-17.2t-18.67-5.14a24.94,24.94,0,0,0-15.14,4.85,15.68,15.68,0,0,0-6.61,13.38,16.13,16.13,0,0,0,6,12.79q6,5.15,21.9,10.14a139.48,139.48,0,0,1,15.73,5.88,48.47,48.47,0,0,1,12.35,7.79,32.23,32.23,0,0,1,8.08,11.17,38.57,38.57,0,0,1,2.94,15.73,39.59,39.59,0,0,1-2.79,14.7,33.34,33.34,0,0,1-8.53,12.35,43.19,43.19,0,0,1-14.41,8.53q-8.67,3.23-20.73,3.23a113.65,113.65,0,0,1-21-2.21,68.67,68.67,0,0,1-21-7.5q-.59-7.64-1-16t-.44-16.9h2.94a11.12,11.12,0,0,1,5,1,4.14,4.14,0,0,1,2.35,3.38q1.17,12.35,9.56,19.85t23.37,7.5q12.05,0,18.52-5.44t6.47-14.85q0-9.7-7.06-14.85t-20.87-9.26q-17.35-5.29-27.2-13.82t-9.85-25a35.74,35.74,0,0,1,11.17-26.17,39,39,0,0,1,12.94-7.94,47.21,47.21,0,0,1,17.05-2.94,77.89,77.89,0,0,1,22.2,3.09,72.47,72.47,0,0,1,16.32,6.62q.29,2.36.59,5.73t.44,7.06q.15,3.68.29,7.35t.15,6.62Z"/><path d="M6186.21,884.41a4.63,4.63,0,0,1-3.38-1,4.7,4.7,0,0,1-1.32-2.21q-2.06-12.05-9.55-17.2t-18.67-5.14a24.94,24.94,0,0,0-15.14,4.85,15.68,15.68,0,0,0-6.61,13.38,16.13,16.13,0,0,0,6,12.79q6,5.15,21.9,10.14a139.48,139.48,0,0,1,15.73,5.88,48.47,48.47,0,0,1,12.35,7.79,32.23,32.23,0,0,1,8.08,11.17,38.57,38.57,0,0,1,2.94,15.73,39.59,39.59,0,0,1-2.79,14.7,33.34,33.34,0,0,1-8.53,12.35,43.19,43.19,0,0,1-14.41,8.53q-8.67,3.23-20.73,3.23a113.65,113.65,0,0,1-21-2.21,68.67,68.67,0,0,1-21-7.5q-.59-7.64-1-16t-.44-16.9h2.94a11.12,11.12,0,0,1,5,1,4.14,4.14,0,0,1,2.35,3.38q1.17,12.35,9.56,19.85t23.37,7.5q12.05,0,18.52-5.44t6.47-14.85q0-9.7-7.06-14.85t-20.87-9.26q-17.35-5.29-27.2-13.82t-9.85-25A35.74,35.74,0,0,1,6123,859.13a39,39,0,0,1,12.94-7.94,47.21,47.21,0,0,1,17.05-2.94,77.89,77.89,0,0,1,22.2,3.09,72.47,72.47,0,0,1,16.32,6.62q.29,2.36.59,5.73t.44,7.06q.15,3.68.29,7.35t.15,6.62Z"/><path d="M6326.77,948.5a6.17,6.17,0,0,1,4.4-2.06q2.93,0,5.57,5a84.88,84.88,0,0,1-8.82,10.29,56.62,56.62,0,0,1-11.91,9,65.11,65.11,0,0,1-15.73,6.32,79.09,79.09,0,0,1-20.29,2.35,65.35,65.35,0,0,1-22.34-3.82A51.11,51.11,0,0,1,6239,963.79a58.32,58.32,0,0,1-12.94-19.7q-4.85-11.76-4.85-27.64a66.13,66.13,0,0,1,5.73-27.64,71.22,71.22,0,0,1,14.85-21.61,69.61,69.61,0,0,1,20.14-14,51.51,51.51,0,0,1,21.32-5q27.34,0,39.84,15.88t12.5,41.45a1.56,1.56,0,0,1-1.76,1.76l-85,3.82a66.74,66.74,0,0,0,3.22,21.17,51.14,51.14,0,0,0,9.09,16.76,41.27,41.27,0,0,0,14.21,11,43.5,43.5,0,0,0,18.9,4,39.19,39.19,0,0,0,18-4.41A47.43,47.43,0,0,0,6326.77,948.5Zm-47.52-89.67q-14.64,0-22.82,11.47t-8.19,30l55.29-2.65q4.38,0,4.39-3.82a43.15,43.15,0,0,0-1.75-11.76,38.73,38.73,0,0,0-5.27-11.32,29.84,29.84,0,0,0-8.92-8.53A23.55,23.55,0,0,0,6279.26,858.83Z"/><path d="M6436.7,884.41a4.63,4.63,0,0,1-3.38-1,4.7,4.7,0,0,1-1.32-2.21q-2.06-12.05-9.55-17.2t-18.67-5.14a24.94,24.94,0,0,0-15.14,4.85,15.68,15.68,0,0,0-6.61,13.38,16.13,16.13,0,0,0,6,12.79q6,5.15,21.9,10.14a139.48,139.48,0,0,1,15.73,5.88,48.47,48.47,0,0,1,12.35,7.79,32.23,32.23,0,0,1,8.08,11.17,38.57,38.57,0,0,1,2.94,15.73,39.59,39.59,0,0,1-2.79,14.7,33.34,33.34,0,0,1-8.53,12.35,43.19,43.19,0,0,1-14.41,8.53q-8.67,3.23-20.73,3.23a113.65,113.65,0,0,1-21-2.21,68.67,68.67,0,0,1-21-7.5q-.59-7.64-1-16t-.44-16.9H6362a11.12,11.12,0,0,1,5,1,4.14,4.14,0,0,1,2.35,3.38q1.17,12.35,9.56,19.85t23.37,7.5q12.05,0,18.52-5.44t6.47-14.85q0-9.7-7.06-14.85t-20.87-9.26q-17.35-5.29-27.2-13.82t-9.85-25a35.74,35.74,0,0,1,11.17-26.17,39,39,0,0,1,12.94-7.94,47.21,47.21,0,0,1,17.05-2.94,77.89,77.89,0,0,1,22.2,3.09,72.47,72.47,0,0,1,16.32,6.62q.29,2.36.59,5.73t.44,7.06q.15,3.68.29,7.35t.15,6.62Z"/><path d="M6550.47,884.41a4.63,4.63,0,0,1-3.38-1,4.7,4.7,0,0,1-1.32-2.21q-2.06-12.05-9.55-17.2t-18.67-5.14a24.94,24.94,0,0,0-15.14,4.85,15.68,15.68,0,0,0-6.61,13.38,16.13,16.13,0,0,0,6,12.79q6,5.15,21.9,10.14a139.48,139.48,0,0,1,15.73,5.88,48.47,48.47,0,0,1,12.35,7.79,32.23,32.23,0,0,1,8.08,11.17,38.57,38.57,0,0,1,2.94,15.73,39.59,39.59,0,0,1-2.79,14.7,33.34,33.34,0,0,1-8.53,12.35,43.19,43.19,0,0,1-14.41,8.53q-8.67,3.23-20.73,3.23a113.65,113.65,0,0,1-21-2.21,68.67,68.67,0,0,1-21-7.5q-.59-7.64-1-16t-.44-16.9h2.94a11.12,11.12,0,0,1,5,1,4.14,4.14,0,0,1,2.35,3.38q1.17,12.35,9.56,19.85t23.37,7.5q12.05,0,18.52-5.44t6.47-14.85q0-9.7-7.06-14.85t-20.87-9.26q-17.35-5.29-27.2-13.82t-9.85-25a35.74,35.74,0,0,1,11.17-26.17,39,39,0,0,1,12.94-7.94,47.21,47.21,0,0,1,17.05-2.94,77.89,77.89,0,0,1,22.2,3.09,72.47,72.47,0,0,1,16.32,6.62q.29,2.36.59,5.73t.44,7.06q.15,3.68.29,7.35t.15,6.62Z"/><path d="M6709.53,877.94a54.59,54.59,0,0,0,5.31-5.59,84.16,84.16,0,0,1,10.77-10,89.33,89.33,0,0,1,15.34-9.7,40.87,40.87,0,0,1,18.74-4.41q17.7,0,25.08,10.44t7.38,29v71.44q0,4.41,5.29,6.62a56.88,56.88,0,0,0,11.76,3.38,3.2,3.2,0,0,1,2.65,3.53,25.38,25.38,0,0,1-.59,4.7q-7.65-.59-15-1t-16-.44q-7.74,0-15.71.44t-15.32,1a25,25,0,0,1-.59-4.7,3.2,3.2,0,0,1,2.65-3.53,28.32,28.32,0,0,0,5.44-1.18,35.27,35.27,0,0,0,5.15-2.06,15,15,0,0,0,4-2.79,5.4,5.4,0,0,0,1.62-4V898.52q0-18.23-4.41-24.55t-14.41-6.32a42.52,42.52,0,0,0-14.55,2.5,36,36,0,0,0-12.2,7.35,36.6,36.6,0,0,0-8.53,11.91,38.39,38.39,0,0,0-3.23,16.17v53.51q0,4.41,5,6.62a51.32,51.32,0,0,0,11.17,3.38,3.2,3.2,0,0,1,2.65,3.53,25.38,25.38,0,0,1-.59,4.7q-7.65-.59-14.85-1t-15.14-.44q-7.94,0-15.73.44t-15.43,1a25,25,0,0,1-.59-4.7,3.2,3.2,0,0,1,2.65-3.53A50.85,50.85,0,0,0,6680,966q5.44-2.21,5.44-6.91V898.52q0-18.23-4.24-24.55T6667,867.65a42.12,42.12,0,0,0-14.48,2.5,37.34,37.34,0,0,0-12.28,7.35,35.56,35.56,0,0,0-8.63,11.91,38.58,38.58,0,0,0-3.22,16.17v53.51q0,4.41,5.15,6.62a55.28,55.28,0,0,0,11,3.38,3.2,3.2,0,0,1,2.65,3.53,25.38,25.38,0,0,1-.59,4.7q-7.65-.59-15-1t-15.7-.44q-8.63,0-16.3.44t-15,1a25,25,0,0,1-.59-4.7,3.2,3.2,0,0,1,2.65-3.53,57,57,0,0,0,11.76-3.38q5.29-2.21,5.29-6.91v-80q0-8.82-3.09-12.64t-13.38-4.7q-3.82-.59-3.82-4.12a16.36,16.36,0,0,1,.59-3.82q3.82,0,10.73-.44t11.35-1q6.84-1.17,12.19-2.5a36.81,36.81,0,0,1,7.73-1.32q4.16,0,4.16,4.41a66.05,66.05,0,0,1-.88,9.85,103.79,103.79,0,0,0-.88,15.14q.88-.88,5-5.59a86.89,86.89,0,0,1,25.78-19.55,41.26,41.26,0,0,1,18.75-4.26q15.23,0,22.7,7.79T6709.53,877.94Z"/><path d="M6935.64,948.5a6.17,6.17,0,0,1,4.4-2.06q2.93,0,5.57,5a84.88,84.88,0,0,1-8.82,10.29,56.62,56.62,0,0,1-11.91,9,65.11,65.11,0,0,1-15.73,6.32,79.09,79.09,0,0,1-20.29,2.35,65.35,65.35,0,0,1-22.34-3.82,51.11,51.11,0,0,1-18.67-11.76,58.32,58.32,0,0,1-12.94-19.7q-4.85-11.76-4.85-27.64a66.13,66.13,0,0,1,5.73-27.64,71.22,71.22,0,0,1,14.85-21.61,69.61,69.61,0,0,1,20.14-14,51.51,51.51,0,0,1,21.32-5q27.34,0,39.84,15.88t12.5,41.45a1.56,1.56,0,0,1-1.76,1.76l-85,3.82a66.74,66.74,0,0,0,3.22,21.17,51.14,51.14,0,0,0,9.09,16.76,41.27,41.27,0,0,0,14.21,11,43.5,43.5,0,0,0,18.9,4,39.19,39.19,0,0,0,18-4.41A47.43,47.43,0,0,0,6935.64,948.5Zm-47.52-89.67q-14.64,0-22.82,11.47t-8.19,30l55.29-2.65q4.38,0,4.39-3.82a43.15,43.15,0,0,0-1.75-11.76,38.73,38.73,0,0,0-5.27-11.32,29.84,29.84,0,0,0-8.92-8.53A23.55,23.55,0,0,0,6888.12,858.83Z"/><path d="M7095,959.08q0,4.41,5.29,6.62a56.88,56.88,0,0,0,11.76,3.38,3.2,3.2,0,0,1,2.65,3.53,25.38,25.38,0,0,1-.59,4.7q-7.65-.59-15-1t-15.88-.44q-7.94,0-15.73.44t-15.44,1a25,25,0,0,1-.59-4.7,3.2,3.2,0,0,1,2.65-3.53,51.4,51.4,0,0,0,11.17-3.38q5-2.21,5-6.62V901.46a96.63,96.63,0,0,0-.88-13.52,31.57,31.57,0,0,0-3.37-10.73,18,18,0,0,0-6.73-7.06q-4.25-2.49-11-2.5a42.55,42.55,0,0,0-14.34,2.5,37.09,37.09,0,0,0-12.44,7.35,35.56,35.56,0,0,0-8.63,11.91,38.58,38.58,0,0,0-3.22,16.17v53.51q0,4.41,5.15,6.62a55.28,55.28,0,0,0,11,3.38,3.2,3.2,0,0,1,2.65,3.53,25.38,25.38,0,0,1-.59,4.7q-7.65-.59-15-1t-15.7-.44q-8.63,0-16.3.44t-15,1a25,25,0,0,1-.59-4.7,3.2,3.2,0,0,1,2.65-3.53,57,57,0,0,0,11.76-3.38q5.29-2.21,5.29-6.91v-80q0-8.82-3.09-12.64t-13.38-4.7q-3.82-.59-3.82-4.12a16.36,16.36,0,0,1,.59-3.82q3.82,0,10.73-.44t11.35-1q6.84-1.17,12.19-2.5a36.81,36.81,0,0,1,7.73-1.32q4.16,0,4.16,4.41a66.05,66.05,0,0,1-.88,9.85,103.79,103.79,0,0,0-.88,15.14q12.6-14.11,24.17-21.76a45,45,0,0,1,25.34-7.64q17.87,0,26.8,10.44t8.94,29Z"/><path d="M7198.15,958.5a6.53,6.53,0,0,1,2.5-1.76,6.43,6.43,0,0,1,1.62-.29q2.65,0,4.7,3.82a71.8,71.8,0,0,1-16.46,13.82,36,36,0,0,1-18.82,5.29,45.91,45.91,0,0,1-11.17-1.32,19.22,19.22,0,0,1-9.11-5.15,26.15,26.15,0,0,1-6-10.44q-2.21-6.62-2.21-17.2V864.12h-17.64v-3.23a9.83,9.83,0,0,1,.74-3.82,3,3,0,0,1,3.09-1.76q7.94,0,12.94-4.12a32,32,0,0,0,8.23-10.58q3.53-7.06,6.17-13.23t5.88-6.17h5.29v30.58h34.4q0,6.17-1.32,9.26a4.84,4.84,0,0,1-4.85,3.09h-28.22V937a103.59,103.59,0,0,0,.88,15.14,26.22,26.22,0,0,0,2.65,8.82,8.36,8.36,0,0,0,4.12,4,15,15,0,0,0,5.29.88,19.87,19.87,0,0,0,9.26-2.21A53.85,53.85,0,0,0,7198.15,958.5Z"/></g></svg>