<svg version="1.1" id="svg" xmlns="http://www.w3.org/2000/svg" xmlns:xlink="http://www.w3.org/1999/xlink" x="0px" y="0px"
	 viewBox="0 0 7214.3 1251.4" style="enable-background:new 0 0 7214.3 1251.4;" xml:space="preserve">
<style type="text/css">
	.st0{fill:#FFFFFF;}
	.st1{fill:#990000;}
	.st2{fill:#6A5E5A;}
	.st3{fill:#B0A9A7;}
	.st4{fill:#402A1E;}
</style>
<g id="svgg">
	<path id="path0" class="st0" d="M356.4,27.8L28.7,29.1l-0.6,595.2c-0.3,327.4,0.3,596.1,1.4,597.2c2.3,2.3,1187.7,3,1191.3,0.7
		c4-2.5,3.2-1191.8-0.8-1193.3C1215.1,27.1,724.2,26.4,356.4,27.8 M1210.7,625.7V1211H625.3H40V625.7V40.3h585.4h585.4V625.7
		 M953.4,211.8c-65.7,49.1-90,57.1-174.2,57.1c-97.9,0-148.7-23.6-148.8-69c0-6.4-0.4-6.7-6.9-4.2c-22.9,8.7-33.6,47.4-20.9,76.1
		c19,43,52,55.7,159.2,61.2c28.7,1.5,52.5,3.1,53,3.5c0.5,0.5-20,28.7-45.5,62.7c-49.2,65.6-115.7,163.5-152.5,224.6l-22.2,36.9
		h-11.8c-25,0-41-20.5-41.2-52.9l-0.1-19.1l-8.9,4.5c-59.3,30.2-52.8,134.8,9.4,150.4c13.4,3.4,14.3-1-9.7,43.2
		c-81.5,150.3-140.8,200.9-221.5,189c-64.2-9.5-113.7-85.2-88.2-135.1c16.9-33.2-15.4-33.6-40.6-0.6
		c-70.6,92.6,15.1,220.4,146.9,219.1c118.3-1.2,210.6-83.1,310.9-276c10.4-20,19-36.5,19.1-36.7c0.7-1.2,149.7-23.6,150.7-22.6
		c0.6,0.6-1.1,30.4-4,66.2c-11.1,140.6-2.5,196.6,36.5,238.3c59,63.1,212.5,13.9,222.6-71.2c2.2-19-1.2-19.8-28.6-6.9
		c-65.3,30.7-114.6,25.3-128.5-14.1c-4.6-13-4.5-156.2,0.1-196.1l3.4-29.2l12.3-2.6c30.5-6.5,49.6,1,49.6,19.5
		c0,12.7,4.4,11.4,22.4-6.5c19.6-19.6,23.1-28.3,23.4-57.3c0.3-40.9-18.5-57.2-66.1-57.2c-25.1,0-29.4-0.6-28.5-3.8
		c0.6-2.1,4.6-20.1,8.9-40c29.9-137.3,62.4-240.1,99.1-313.3c7.4-14.8,13.5-27.5,13.5-28.3c0-1.2-61.2-31.3-63.1-31
		C982.1,190.6,969,200.1,953.4,211.8 M878.2,414.6c-9.7,33.7-36.8,140.3-47.9,188.5c-3,13.1-6.3,24.7-7.4,25.8
		c-2.8,3-112.6,16.1-112.6,13.5c0-1.2,2.1-5.2,4.6-8.9c2.5-3.6,20-33.9,38.8-67.1c49.7-87.8,77.9-129.1,119.1-174.1
		C890,373.7,890,373.8,878.2,414.6"/>
	<path id="path1" class="st1" d="M833.6,24.7c7.9,0.5,20.9,0.5,28.8,0c7.9-0.5,1.4-0.9-14.4-0.9S825.7,24.2,833.6,24.7 M839.9,44.6
		c4.5,0.6,11.3,0.5,15,0c3.8-0.6,0.1-1-8.2-1C838.5,43.6,835.4,44.1,839.9,44.6 M452.1,67.1L67.5,67.9v557.8v557.8l390.9,0.7
		c215,0.4,466,0.4,557.8,0l167-0.7V625.6V67.9h-158.5c-87.2,0-165.1-0.3-173.2-0.8C843.4,66.6,663.7,66.7,452.1,67.1 M1012.7,202.6
		c16.4,8.1,31.4,15.2,33.3,15.9c2.5,0.9,1.1,5.5-5.8,18.4c-25.6,47.9-53.3,122-74.6,199.4c-9.1,33.2-40.1,162.7-40.1,167.7
		c0,0.3,11.6,0.4,25.8,0.4c50.1-0.1,70.9,19.7,68.6,65.4c-1.3,26.5-6.5,38-25.1,55.1c-16.3,15-21.8,17.5-21.8,10
		c0-23-12.8-31.2-41.4-26.5l-18.4,3l-1.4,10.3c-10.7,78.6-10.9,194.9-0.4,220c13.6,32.6,64.8,35.4,125.9,6.8
		c29-13.6,32.8-11.7,28.1,13.7c-15.8,84.4-162.4,129.1-223.3,68.1c-38.9-38.9-48.9-95.9-39.2-224.4c3.2-42.8,5.1-78.5,4.3-79.3
		c-1.3-1.3-127,16.9-143.1,20.8c-3.5,0.8-8.9,8.8-17.1,25.5c-77.2,155.8-164.2,251.4-255.4,280.7c-24.7,7.9-85.9,10-112.1,3.8
		c-108-25.6-159.7-153.2-91.4-225.4c27.5-29,52.4-22.3,36.2,9.8c-23.5,46.4,21.6,120.8,79.7,131.5c82.1,15.2,141.6-32.2,221.3-176.1
		l27.7-50l-8.1-1.4c-64.1-11.2-74.4-121.8-14.2-152.5c13.4-6.8,13.7-6.7,12.7,9.7c-1.6,27.8,10,49.9,29.3,55.6
		c17.9,5.4,19.1,4.3,44.7-37.7c49-80.5,112.7-173.4,167.9-245.1l27.9-36.3l-10.7-1.7c-5.9-0.9-32.1-2.9-58.2-4.4
		c-112-6.3-157.4-37.3-147.8-100.9c4.1-27.3,36.4-53.8,36.5-29.9c0.2,42.1,53.2,65.7,147.5,65.6c79.1-0.1,111.1-10.8,173.9-58.6
		c15.1-11.5,27.7-21,28-21.2C982.6,188,996.2,194.5,1012.7,202.6 M870.4,397.3c-37.9,41.4-69.3,87.6-117.5,173.3
		c-18.2,32.3-35.4,62.1-38.2,66.1l-5.2,7.3l7.3-1.4c4-0.8,29.5-4,56.7-7.3l49.3-5.8l1.5-7.5c4.3-21.3,44.6-181.7,52.1-207.6
		C886.9,378.6,887.1,379.2,870.4,397.3 M839.9,1207.9c4.5,0.6,11.3,0.5,15,0c3.8-0.6,0.1-1-8.2-1
		C838.5,1206.8,835.4,1207.3,839.9,1207.9 M833.6,1227.9c7.9,0.5,20.9,0.5,28.8,0c7.9-0.5,1.4-0.9-14.4-0.9
		S825.7,1227.4,833.6,1227.9"/>
	<path id="path2" class="st2" d="M42.5,10.3c0,6.2,1.2,10.1,3.1,10.3c1.7,0.2-0.8,1.1-5.6,1.9c-4.8,0.9,57.7,1.6,138.8,1.7
		c81.2,0.1,138-0.6,126.3-1.5c-11.7-0.9-18.7-1.8-15.6-2c4.8-0.4,5.6-1.9,5.6-10.5v-10H168.8H42.5V10.3 M440.2,10.3
		c0,6.1,1.2,10.2,3.1,10.4c1.7,0.2-3.1,1.1-10.6,2c-7.6,0.9,31.3,1.6,86.3,1.5c55-0.1,96.7-0.5,92.5-0.9c-7.3-0.7-7.5-1.1-6.6-11.9
		l0.9-11.1H523h-82.8V10.3 M755.4,11.4c0,9.5-0.8,11.2-5.6,12.2c-9.6,1.8,38.4,1.3,55.7-0.6c8.9-1,14.5-2,12.4-2.2
		c-2.9-0.3-3.6-2.8-2.9-10.4l1-10h-30.3h-30.3V11.4 M883.4,10.3c0.8,8.6,0.2,10.1-4.1,10.4c-2.8,0.2,3.4,1.2,13.7,2.2
		c25.4,2.4,79,2.3,67.5-0.1c-4.8-1-7.3-2-5.6-2.2c1.9-0.2,3.1-4.2,3.1-10.3v-10h-37.8h-37.8L883.4,10.3 M1148.5,11.5
		c0.9,11.1,0.8,11.2-7.9,12.2c-4.8,0.6,11,0.9,35.2,0.7c34-0.3,45,0.4,48.2,3.1c6.4,5.3,6.4,1191.1,0,1196.4
		c-3.2,2.7-14.1,3.4-48.2,3.1c-24.2-0.2-40.1,0.1-35.2,0.7c8.7,1.1,8.8,1.2,7.9,12.2l-0.9,11.1h41.8h41.8l9.7-9.7
		c6.3-6.3,9.6-11.8,9.4-15.6c-0.3-5.9-0.4-5.9-1.4-0.3c-0.6,3.1-2.2,5.6-3.6,5.6c-1.4,0-1.9,0.9-1.2,2c0.7,1.1-2.2,4.1-6.5,6.6
		c-4.3,2.5-7,3.4-6.1,1.9c0.9-1.5,1.6-279.1,1.6-616.9c0-544.3,0.4-614.1,3.7-612.8c5.4,2.1,4.6-1.5-1.6-6.9
		c-4.8-4.2-10-4.7-46.5-4.7h-41.1L1148.5,11.5 M826.2,27.2c13.5,0.5,34.9,0.4,47.5,0c12.7-0.5,1.6-0.8-24.5-0.8
		C823.1,26.4,812.7,26.7,826.2,27.2 M1224.4,625.7c0,328.1,0.3,462.4,0.6,298.3c0.4-164.1,0.4-432.5,0-596.6
		C1224.7,163.3,1224.4,297.6,1224.4,625.7 M51.9,42.2l-9.4,1v582.3v582.3l15.4,1.6c20.1,2.1,179.1,1.6,221-0.8
		c20-1.1,27.2-2.1,18.8-2.6c-7.6-0.4-11.3-1.2-8.4-1.8c8.7-1.7,9.6-15.6,1.1-16.3c-3.5-0.3,4.2-1.2,17.3-2
		c13.1-0.9-35.6-1.8-108.2-2l-132-0.5V625.7V67.9l132-0.5c72.6-0.3,121.3-1.2,108.2-2c-13.1-0.9-20.9-1.8-17.3-2
		c8.5-0.6,7.6-14.6-1.1-16.3c-3-0.6,0.8-1.4,8.4-1.8c8.5-0.5,1.3-1.5-18.8-2.6C245.3,40.8,68.5,40.4,51.9,42.2 M445.2,42.8
		c-11.5,1-14.9,1.8-8.8,2.1c5.5,0.3,8.8,1.3,7.3,2.3c-4.9,3.2-5.8,15.5-1.3,16c2.2,0.2-2.7,1.2-11,2.1c-8.3,0.9,30.6,1.7,86.3,1.8
		c55.7,0.1,97.4-0.7,92.6-1.8s-7.5-2-5.9-2.2c2-0.2,2.2-3.1,0.9-9.1c-1.8-7.8-1.4-8.8,3.4-9.1c3-0.2-0.8-1.2-8.4-2.3
		C584,40.5,472.1,40.5,445.2,42.8 M756.7,42.8c-5.5,1-7.9,2-5.4,2.1c7.8,0.6,4.9,18.6-3.3,20.7c-3.5,0.9,8.3,1.6,26.2,1.7
		c37.4,0.1,40-0.6,40-10.8c0-4.1,1.1-8.3,2.5-9.3c1.4-1-1.4-2.1-6.3-2.3c-4.8-0.3,0.3-1.2,11.3-2.1c16.3-1.3,13-1.6-17.5-1.7
		C783.6,41.1,762.2,41.9,756.7,42.8 M875.5,42.8c14,0.9,19.1,1.8,12.5,2.2c-6.4,0.4-9.6,1.4-7.5,2.4c2.1,1,3.8,5,3.8,9.2
		c0,10.2,2.8,10.8,48.8,10.7c23.6-0.1,34.9-0.8,28.8-1.9c-5.5-1-8.5-2-6.6-2.1c2.4-0.3,3.1-3,2.4-9.1c-0.8-6.6-0.1-8.8,2.9-9.1
		c16.1-1.4-29.6-4.2-64.9-4C858.7,41.2,855.5,41.5,875.5,42.8 M1151.9,42.8c-6.9,0.9-10.1,1.9-7.1,2.1c4.8,0.4,5.2,1.3,3.4,9.1
		c-1.4,6-1.1,8.9,0.9,9.1c1.6,0.2-2.2,1.2-8.4,2.1c-8.5,1.3-4.7,1.8,15.6,2.1l26.9,0.4v557.8v557.8l-26.9,0.4
		c-20.3,0.3-24.1,0.8-15.6,2.1c6.2,1,10,1.9,8.4,2.1c-2,0.3-2.2,3.1-0.9,9.1c1.8,7.8,1.4,8.8-3.4,9.1c-10.3,0.7,24.8,4.1,45.3,4.4
		l20.6,0.3V625.7V40.3l-23.1,0.4C1174.8,40.9,1158.8,41.9,1151.9,42.8 M133.2,44.6c-3.1,0.6-8.2,0.6-11.3,0
		c-3.1-0.6-0.6-1.1,5.6-1.1S136.3,44,133.2,44.6 M46.9,508.7c-0.4,60.9-0.7,11.1-0.7-110.7s0.3-171.6,0.7-110.7
		C47.2,348.2,47.2,447.9,46.9,508.7 M46.8,1157.8c-0.5,8-0.9,2.1-0.9-13c0-15.1,0.4-21.6,0.9-14.5
		C47.3,1137.5,47.3,1149.8,46.8,1157.8 M431.5,1186c8.3,0.9,13.2,1.9,11,2.1c-4.6,0.5-3.6,12.8,1.3,16c1.5,1-1.7,2-7.3,2.3
		c-26.8,1.1,39.5,4.2,91.3,4.2c48.1,0,102-2.8,80.9-4.2c-4.8-0.3-5.2-1.3-3.4-9.1c1.4-6,1.1-8.9-0.9-9.1c-1.6-0.2,1.1-1.2,5.9-2.2
		c4.8-1-36.8-1.8-92.6-1.8S423.2,1185.1,431.5,1186 M748,1185.7c8.2,2.1,11,20.1,3.3,20.7c-17,1.2,24.7,4.3,54.2,4
		c30.9-0.2,33.3-0.5,16.3-1.9c-11-0.9-16.1-1.8-11.3-2.1c4.8-0.3,7.6-1.3,6.3-2.3c-1.4-1-2.4-5.2-2.4-9.3
		c0.2-10.2-2.5-10.9-40.2-10.8C756.3,1184.1,744.5,1184.8,748,1185.7 M889.1,1185.7c-3.7,1.2-5.1,3.7-5,9.1c0.1,4.3-1.5,8.2-3.6,9.2
		c-2.1,1,1.1,2,7.5,2.4c6.2,0.4,0,1.3-13.8,2.2c-21.3,1.3-18.4,1.6,20,1.8c36.3,0.2,82.5-2.6,66.2-4c-2.9-0.3-3.6-2.5-2.9-9.1
		c0.7-6.1,0-8.9-2.4-9.1c-1.9-0.2,1.1-1.2,6.6-2.1c6.1-1.1-5.2-1.8-28.8-1.9C911.7,1184.1,892,1184.8,889.1,1185.7 M133.2,1207.8
		c-3.1,0.6-8.2,0.6-11.3,0c-3.1-0.6-0.6-1.1,5.6-1.1S136.3,1207.2,133.2,1207.8 M826.2,1225.4c13.5,0.5,34.9,0.4,47.5,0
		c12.7-0.5,1.6-0.8-24.5-0.8C823.1,1224.6,812.7,1225,826.2,1225.4 M40,1228.8c4.8,0.9,7.3,1.8,5.6,1.9c-1.9,0.2-3.1,4.2-3.1,10.3
		v10h126.3h126.3v-10c0-8.6-0.8-10.1-5.6-10.5c-3.1-0.3,3.9-1.2,15.6-2c11.7-0.9-45.2-1.5-126.3-1.5
		C97.7,1227.1,35.2,1227.9,40,1228.8 M432.7,1228.6c7.6,0.9,12.4,1.8,10.6,2c-1.9,0.2-3.1,4.3-3.1,10.4v10H523h82.8l-0.9-11.1
		c-0.9-10.8-0.6-11.2,6.6-11.9c4.1-0.4-37.5-0.8-92.5-0.9C464,1227,425.2,1227.7,432.7,1228.6 M749.8,1227.8
		c4.8,0.9,5.6,2.7,5.6,12.2v11.1h30.3H816l-1-10c-0.7-7.6,0-10.1,2.9-10.4c2.1-0.2-3.5-1.2-12.4-2.2
		C788.2,1226.5,740.2,1226,749.8,1227.8 M891.8,1228.6c-9.6,0.9-15.1,1.8-12.3,2.1c4.6,0.4,5.1,1.7,4.3,10.4l-1,10h37.6H958v-10
		c0-6.2-1.2-10.1-3.1-10.3c-1.7-0.2,0.8-1.2,5.6-2.2C971.5,1226.3,916.6,1226.3,891.8,1228.6"/>
	<path id="path3" class="st3" d="M13.9,2.6c1.8,1.8-9.5,12.7-11.8,11.3C1,13.1,0,288.6,0,626s0.8,612.7,1.7,611.7
		c1.9-1.9,13.6,8.3,12.2,10.7c-0.5,0.9,5.7,1.9,13.8,2.3l14.8,0.7v-10.2c0-6.3,1.2-10.3,3.1-10.5c1.7-0.2-0.8-1.2-5.6-2.2
		c-5.4-1.1,9.2-2.2,37.5-2.7l46.3-0.9l-47.5-1.3l-47.5-1.3V625.7V29.1L75,27.7l46.3-1.3l-45-0.9C48.5,25,34.6,24,40,22.8
		c4.8-1,7.3-2,5.6-2.2c-1.9-0.2-3.1-4.2-3.1-10.5V0L27.6,0.7C19.5,1.1,13.3,2,13.9,2.6 M295.1,10.1c0,8.2-0.9,10-5.6,10.9
		c-3.1,0.6,3.9,1.5,15.6,2c11.7,0.5-23.8,1.5-78.8,2.3c-68.5,0.9-34.6,1.3,107.6,1.4c114.2,0,180-0.6,146.3-1.4s-55.1-1.7-47.5-2.1
		c7.6-0.4,12.4-1.3,10.6-2c-1.8-0.7-3.1-5.6-3.1-11.1V0.3h-72.5h-72.5V10.1 M604.9,11.6c-0.9,11-0.7,11.3,6.6,11.8
		c4.1,0.3-9.4,1.2-30,2c-20.6,0.8,21,1.4,92.6,1.4c71.5,0,116.6-0.7,100.1-1.5c-16.5-0.8-27.5-1.7-24.4-2c4.9-0.4,5.6-1.9,5.6-11.8
		V0.3h-74.8h-74.8L604.9,11.6 M958,10.1c0,5.5-1.4,10.4-3.1,11.1c-1.7,0.7,0.8,1.6,5.6,2c4.8,0.4-8.1,1.4-28.8,2.1
		c-20.6,0.8,35.6,1.4,125.1,1.4c89.4,0,142.9-0.6,118.8-1.4c-24.1-0.8-39.8-1.6-35-1.9l8.8-0.5l-0.9-11.3l-0.9-11.3h-94.8H958V10.1
		 M40,625.7V1211l11.9-0.4l11.9-0.4l-10.6-1l-10.6-1V625.7V43.1l9.4-1l9.4-1l-10.6-0.4L40,40.3V625.7 M282.6,42.8
		c19.8,1,24.5,1.8,15,2.3c-7.6,0.5-11.3,1.3-8.4,1.9c8.7,1.7,9.6,15.6,1.1,16.2c-14.9,1,49.1,4,84.9,4c32.8,0,80.1-2.8,67.3-4
		c-4.6-0.4-3.6-12.7,1.3-16c1.5-1-1.7-2.1-7.3-2.3c-6.2-0.3-2.8-1.1,8.8-2.1c10.3-0.9-28.5-1.6-86.3-1.6
		C301.2,41.3,266.8,42,282.6,42.8 M601.6,42.8c6.9,0.9,10.1,1.9,7.1,2.1c-4.8,0.4-5.2,1.3-3.4,9.1c1.4,6,1.1,8.8-0.9,9
		c-16.5,1.7,29.4,4.5,74.7,4.5c74.4,0.2,75.2,0,75.9-12.6c0.5-7.8-0.3-9.8-3.9-10.1c-2.5-0.2,0-1.2,5.5-2.1c5.5-1-30-1.8-78.8-1.8
		C629,41.1,594.7,41.9,601.6,42.8 M953,42.8c6.2,1,9.5,1.9,7.4,2.1c-2.9,0.3-3.6,2.6-2.9,9.1c0.7,6.1,0,8.8-2.4,9.1
		c-20,1.8,35,4.3,95.4,4.3c60.9,0,114.8-2.4,98.4-4.3c-2-0.2-2.2-3.1-0.9-9.1c1.8-7.8,1.4-8.8-3.4-9.1c-3-0.2,0.3-1.2,7.1-2.1
		s-37.6-1.7-98.8-1.7S946.9,41.9,953,42.8 M46.2,398.1c0,121.8,0.3,171.6,0.7,110.7s0.4-160.5,0-221.4
		C46.5,226.5,46.2,276.3,46.2,398.1 M631,201.7c0,5.5,0.5,7.5,1.1,4.3c0.6-3.1,0.6-7.6-0.1-10C631.4,193.6,631,196.2,631,201.7
		 M767.4,269.8c7.3,0.5,18.5,0.5,25,0c6.5-0.5,0.5-0.9-13.2-0.9C765.4,268.9,760.1,269.3,767.4,269.8 M723.5,332.2
		c2.4,0.6,6.3,0.6,8.8,0c2.4-0.6,0.4-1.1-4.4-1.1C723.1,331.1,721.1,331.6,723.5,332.2 M773.6,334.8c3.8,0.6,9.4,0.6,12.5,0
		c3.1-0.6,0-1.1-6.9-1C772.3,333.7,769.8,334.2,773.6,334.8 M872.9,392.4l-8.6,9.4l9.4-8.6c5.2-4.7,9.4-9,9.4-9.4
		C883,381.9,880.9,383.7,872.9,392.4 M512.6,607.6l-8.6,9.4l9.4-8.6c8.7-8,10.5-10.1,8.6-10.1C521.6,598.2,517.4,602.4,512.6,607.6
		 M948.7,605c3.8,0.6,9.4,0.6,12.5,0c3.1-0.6,0-1.1-6.9-1C947.4,603.9,944.9,604.4,948.7,605 M996.7,721.4l-9.9,10.6l10.6-9.9
		c9.9-9.2,11.8-11.4,9.9-11.4C1006.9,710.7,1002.1,715.5,996.7,721.4 M808.5,735.8c0,4.8,0.5,6.8,1.1,4.4c0.6-2.4,0.6-6.3,0-8.8
		C809.1,729,808.5,730.9,808.5,735.8 M806,768.3c0,4.8,0.5,6.8,1.1,4.4c0.6-2.4,0.6-6.3,0-8.8C806.6,761.5,806,763.5,806,768.3
		 M903.6,789.5c0,5.5,0.5,7.5,1.1,4.3c0.6-3.1,0.6-7.6-0.1-10C904.1,781.5,903.6,784,903.6,789.5 M803.5,800.8
		c0,4.8,0.5,6.8,1.1,4.4c0.6-2.4,0.6-6.3,0-8.8C804,794,803.5,796,803.5,800.8 M801,833.3c0,4.8,0.5,6.8,1.1,4.4
		c0.6-2.4,0.6-6.3,0-8.8C801.5,826.5,801,828.5,801,833.3 M215.8,869.6c0,6.9,0.5,9.4,1.1,5.6c0.6-3.8,0.6-9.4,0-12.5
		C216.3,859.6,215.8,862.7,215.8,869.6 M798.8,882.1c0,11,0.5,15.2,1,9.3c0.5-5.9,0.5-14.9,0-20
		C799.2,866.3,798.8,871.1,798.8,882.1 M903.6,905.9c0,4.8,0.5,6.8,1.1,4.4c0.6-2.4,0.6-6.3,0-8.8
		C904.1,899.1,903.6,901,903.6,905.9 M956.2,970.2c3.8,0.6,9.4,0.6,12.5,0s0-1.1-6.9-1C954.9,969.1,952.4,969.6,956.2,970.2
		 M324.5,977.7c3.1,0.6,8.2,0.6,11.3,0c3.1-0.6,0.6-1.1-5.6-1.1C324,976.6,321.4,977.1,324.5,977.7 M1035.5,1012.8l-8.6,9.4l9.4-8.6
		c8.7-8,10.5-10.1,8.6-10.1C1044.4,1003.4,1040.2,1007.6,1035.5,1012.8 M348.3,1060.2c2.4,0.6,6.3,0.6,8.8,0
		c2.4-0.6,0.4-1.1-4.4-1.1S345.9,1059.5,348.3,1060.2 M45.9,1144.8c0,15.1,0.4,21,0.9,13c0.5-8,0.5-20.3,0-27.5
		C46.3,1123.1,45.9,1129.6,45.9,1144.8 M307.7,1186c-13.1,0.9-20.9,1.8-17.3,2c8.5,0.6,7.6,14.6-1.1,16.3c-3,0.6,0.8,1.4,8.4,1.9
		c9.5,0.6,4.8,1.3-15,2.3c-15.8,0.8,18.5,1.5,76.3,1.6c57.8,0,96.6-0.7,86.3-1.6c-11.5-1-14.9-1.8-8.8-2.1c5.5-0.3,8.8-1.3,7.3-2.3
		c-4.9-3.2-5.8-15.5-1.3-16C474.8,1185.1,351.9,1183.2,307.7,1186 M610.3,1186c-4.8,1-7.5,2-5.9,2.2c2,0.2,2.2,3.1,0.9,9.1
		c-1.8,7.8-1.4,8.8,3.4,9.1c3,0.2-0.3,1.2-7.1,2.1c-6.9,0.9,27.5,1.7,76.3,1.8c48.8,0,84.3-0.8,78.8-1.8s-8-2-5.5-2.1
		c9.7-0.8,4.8-19.6-5.6-21.3C733.1,1183,621,1183.8,610.3,1186 M961.8,1186c-5.5,1-8.5,2-6.6,2.1c2.4,0.3,3.1,3,2.4,9.1
		c-0.8,6.6-0.1,8.8,2.9,9.1c2.1,0.2-1.2,1.2-7.4,2.1c-6.2,1,39.4,1.7,101.3,1.7c61.9,0,106.4-0.8,98.8-1.7
		c-7.6-0.9-11.3-1.9-8.4-2.1c4.8-0.4,5.2-1.3,3.4-9.2c-1.4-6-1.1-8.9,0.9-9.1c1.6-0.2-2.8-1.2-9.6-2.3
		C1123.8,1183.5,975.4,1183.6,961.8,1186 M227.6,1226.1c54.3,0.7,89.2,1.8,77.5,2.3c-11.7,0.5-18.7,1.4-15.6,2
		c4.7,0.9,5.6,2.7,5.6,10.9v9.8h72.5h72.5v-9.8c0-5.5,1.4-10.4,3.1-11.1c1.7-0.7-3.1-1.6-10.6-2c-7.6-0.4,13.8-1.4,47.5-2.1
		s-31.6-1.4-145.1-1.4C194.6,1224.7,160.3,1225.1,227.6,1226.1 M581.6,1226.1c20.6,0.8,34.1,1.7,30,2c-7.3,0.5-7.5,0.8-6.6,11.8
		l0.9,11.3h74.8h74.8v-11.3c0-9.9-0.7-11.3-5.6-11.8c-3.1-0.3,7.9-1.2,24.4-2c16.5-0.8-28.5-1.5-100.1-1.5
		C602.6,1224.6,560.9,1225.3,581.6,1226.1 M931.8,1226.1c20.6,0.8,33.6,1.7,28.8,2.1c-4.8,0.4-7.3,1.3-5.6,2
		c1.8,0.7,3.1,5.6,3.1,11.1v9.8h94.8h94.8l0.9-11.3l0.9-11.3l-8.8-0.5c-4.8-0.3,10.9-1.2,35-1.9c24.1-0.8-29.4-1.4-118.8-1.4
		C967.4,1224.7,911.1,1225.3,931.8,1226.1"/>
	<path id="path4" class="st4" d="M815,10.3c-0.7,7.6,0,10.1,2.9,10.4c2.1,0.2-2.9,1.1-11.2,1.9c-8.3,0.8,11.4,1.5,43.8,1.5
		s50.9-0.6,41.3-1.4c-9.6-0.8-15.2-1.6-12.4-1.9c4.4-0.4,4.9-1.9,4.1-10.4l-1-10h-33.2H816L815,10.3 M1233.2,625.1
		c0,337.7-0.7,615.1-1.6,616.6c-0.9,1.5,1.9,0.6,6.1-1.9c4.3-2.5,7.2-5.4,6.6-6.4c-0.6-1,0.3-2.3,2-2.9
		c3.3-1.1,6.2-1200.1,2.9-1208.6c-0.8-2.2-2.4-3.4-3.6-2.7c-1.1,0.7-2.9,0-3.9-1.7c-1.2-1.9-0.7-2.3,1.4-0.9
		c2.1,1.3,2.8,0.8,2.1-1.3c-0.6-1.8-3.6-3.5-6.6-3.7l-5.5-0.4V625.1 M119.5,24.7c8.7,0.5,22.2,0.5,30,0c7.9-0.5,0.8-0.9-15.7-0.9
		C117.3,23.8,110.9,24.2,119.5,24.7 M527.2,24.7c5.8,0.5,15.4,0.5,21.3,0c5.8-0.5,1.1-1-10.6-1C526.1,23.7,521.3,24.1,527.2,24.7
		 M1212,24.7c4.1,0.6,8.9,2.3,10.6,3.7c4.5,3.7,4.6,1190.2,0.1,1194.7c-1.7,1.7-6.4,3.2-10.6,3.4l-7.6,0.4l7.1,1.1
		c18.3,2.7,16.7,63.4,16.7-602.2c0-663.7,1.6-603.4-16.5-602.5l-7.3,0.4L1212,24.7 M121.9,44.6c3.1,0.6,8.2,0.6,11.3,0
		c3.1-0.6,0.6-1.1-5.6-1.1S118.8,44,121.9,44.6 M810.5,45.6c4.8,0.9,7.6,1.8,6.3,1.9s-2.5,4-2.4,8.5c0,4.9-1.4,8.7-3.7,9.6
		c-2,0.8,15.9,1.5,40,1.5c24,0,41.4-0.6,38.6-1.5c-3.7-1.1-5-3.7-5-9.7c0-5.4-1.2-8.3-3.7-8.5c-2.1-0.2,1.3-1.1,7.5-2
		c6.2-0.9-10.7-1.6-37.5-1.6S805.6,44.7,810.5,45.6 M810.8,1185.8c2.6,1,3.8,4.3,3.7,9.6c-0.1,4.5,0.9,8.3,2.2,8.5s-1.4,1.1-6.3,1.9
		c-4.8,0.9,13.2,1.6,40,1.7c26.8,0,43.7-0.7,37.5-1.6s-9.6-1.8-7.5-2c2.6-0.3,3.7-3,3.5-8.5c-0.2-6.2,1-8.5,5-9.7
		c2.9-0.8-14.4-1.5-38.4-1.5C826.6,1184.3,808.7,1185,810.8,1185.8 M121.9,1207.8c3.1,0.6,8.2,0.6,11.3,0c3.1-0.6,0.6-1.1-5.6-1.1
		S118.8,1207.2,121.9,1207.8 M119.5,1227.9c8.7,0.5,22.2,0.5,30,0c7.9-0.5,0.8-0.9-15.7-0.9C117.3,1227,110.9,1227.4,119.5,1227.9
		 M529.7,1227.9c5.9,0.5,14.9,0.5,20,0c5.1-0.5,0.3-1-10.7-1C528,1226.9,523.8,1227.4,529.7,1227.9 M806.7,1228.8
		c8.3,0.8,13.3,1.6,11.2,1.9c-2.9,0.3-3.6,2.8-2.9,10.4l1,10h33.5c30.2,0,33.5-0.4,33.7-4.4c0.1-2.4,0.5-6.9,0.8-10
		c0.5-4.1-0.8-5.7-4.6-6.1c-2.9-0.2,2.7-1.1,12.3-1.9c9.6-0.8-8.9-1.4-41.3-1.4S798.5,1228,806.7,1228.8"/>
</g>
<g id="txt">
	<path fill="#000" d="M1617.6,169.9c0,61.4-36,135.8-112.8,135.8c-70.1,0-87.4-60.1-87.4-94.2c0-54.6,38.4-130.2,119-130.2
		C1587.2,81.2,1617.6,122.8,1617.6,169.9z M1587.8,171.1c0-44-24.2-68.2-55.2-68.2c-68.8,0-85.6,70.7-85.6,98.6
		c0,52.1,21.7,82.5,60.1,82.5C1568.6,283.9,1587.8,217.6,1587.8,171.1L1587.8,171.1z M1638.7,301.9l26-138.6h-22.3l3.1-16.4h22.3
		l3.4-18.9c7.8-43.7,32.2-53.9,50.8-53.9c7.4,0,15.5,2.8,20.4,6.5l-8,14.3c-3.7-1.2-7.4-2.2-13-2.2c-4.4,0-18.6,1.3-23.2,26.4
		l-5.3,27.9h33.5l-3.1,16.4h-33.5L1663.8,302L1638.7,301.9L1638.7,301.9z M1724.9,301.9l26.1-138.6h-22.3l3.1-16.4h22.3l3.4-18.9
		c7.8-43.7,32.2-53.9,50.8-53.9c7.4,0,15.5,2.8,20.5,6.5l-8,14.3c-3.7-1.2-7.4-2.2-13-2.2c-4.4,0-18.6,1.3-23.2,26.4l-5.3,27.9h33.5
		l-3.1,16.4H1776L1750,302L1724.9,301.9L1724.9,301.9z M1864.7,146.9l-29.1,155h-25.1l29.1-155H1864.7z M1845.4,95.8
		c1.6-7.8,9-16.4,18.9-16.4c10.2,0,14.2,8.7,13,16.4c-1.6,8.4-7.1,18.9-19.5,18.9S1843.9,104.2,1845.4,95.8L1845.4,95.8z
		 M1992.4,290.1c-16.8,9.9-32.9,15.5-49.6,15.5c-49,0-58.6-42.8-58.6-67.6c0-32.2,25.1-94.9,94.6-94.9c13,0,26,4.9,33.8,12.4
		l-11.1,14.9c-4-3.1-18.3-8.7-29.4-8.7c-28.5,0-61.1,29.8-61.1,74.4c0,16.1,4.3,50.2,37.8,50.2c12.4,0,24.5-5.6,35-11.8
		L1992.4,290.1L1992.4,290.1z M2125.8,290.1c-20.4,11.1-40.9,15.5-60.8,15.5c-32.9,0-48.4-23.6-48.4-57.7
		c0-46.5,38.7-104.8,93.6-104.8c17,0,36.6,9.9,36.6,35.4c0,37.2-52.7,60.8-103.5,57.7c-1.2,21.1,1.2,50.8,32.6,50.8
		c15.8,0,33.2-8,41.2-12.4L2125.8,290.1L2125.8,290.1z M2120.2,183.5c0.9-13-7.4-21.7-18.6-21.7c-21.1,0-48,25.4-54.6,56.4
		C2090.1,222,2118.6,202.1,2120.2,183.5z M2247.6,301.9l26-138.6h-22.3l3.1-16.4h22.3l3.4-18.9c7.8-43.7,32.2-53.9,50.8-53.9
		c7.5,0,15.5,2.8,20.4,6.5l-8,14.3c-3.7-1.2-7.4-2.2-13-2.2c-4.3,0-18.6,1.3-23.2,26.4l-5.3,27.9h33.5l-3.1,16.4h-33.5L2272.7,302
		L2247.6,301.9L2247.6,301.9z M2473.6,210.8c0,49-32.5,94.9-78.4,94.9c-44.6,0-62.9-37.8-62.9-68.2c0-45.9,31.3-94.2,83.7-94.2
		C2447.3,143.2,2473.6,169.9,2473.6,210.8z M2358.9,237.4c0,13,4.4,49.6,36.9,49.6c30.4,0,51.2-36.6,51.2-75.6
		c0-11.1-1.2-49.6-33.5-49.6C2378.7,161.8,2358.9,200.2,2358.9,237.4L2358.9,237.4z M2536.9,172.3l0.6,0.6
		c15.5-19.2,24.2-29.8,41.9-29.8c8.4,0,14.6,5.6,20.2,10.6l-13,17.3c-2.5-1.2-8.4-3.1-16.8-3.1c-17.3,0-33.8,18.6-42.8,65.4
		l-13,68.5h-25.1l29.1-155h24.5L2536.9,172.3L2536.9,172.3z M1552.1,436.8l121.2,325.1h-52l-33.4-95.7h-124l-34.8,95.7h-43.7
		l132.4-325.1H1552.1z M1577.2,633.7c-16.3-45-32.1-90.1-48.3-148.6h-0.9c-16.7,58.5-33.9,103.6-51.5,148.6H1577.2L1577.2,633.7z
		 M1872.5,743.3c-22.7,16.2-50.2,24.1-70.1,24.1c-110.1,0-124-90.1-124-122.1c0-58,38.5-121.2,125.8-121.2c23.7,0,45,6,62.2,19
		l-13.9,23.7c-13.4-6.5-30.7-12.1-47.8-12.1c-38.1,0-81.3,25.1-81.3,88.2c0,48.3,24.6,93.8,80.8,93.8c20,0,38.6-5.1,56.6-16.7
		L1872.5,743.3L1872.5,743.3z M2009.9,736.8c-16.2,16.2-36.7,30.7-58,30.7c-39,0-65.9-27.9-65.9-71.5c0-40.4,34.4-65.9,82.7-80.3
		l56.2-17.6c-1.8-28.3-23.7-46.4-46.4-46.4c-26.9,0-44.1,11.1-60.8,25.1l-16.3-20.9c23.2-22.3,46.9-31.6,79.4-31.6
		c34.8,0,85.9,11.1,85.9,78.9v102.2c0,17.6,2.3,40,10.2,56.6h-45.5c-5.6-9.8-6.5-24.6-6.5-39.5L2009.9,736.8L2009.9,736.8z
		 M1984.8,637.4c-36.7,11.1-55.7,28.8-55.7,58c0,24.1,16.7,39.5,33.4,39.5c29.7,0,67.8-36.7,62.2-109.1
		C2024.7,625.8,1984.8,637.4,1984.8,637.4z M2289,725.2h-0.9c-16.2,22.7-40.9,42.3-78.9,42.3c-62.7,0-102.6-50.1-102.6-124.5
		c0-60.4,43.7-118.9,107.3-118.9c31.6,0,59.9,12.1,74.3,34.4h0.9V420.5h41.8v341.3H2289L2289,725.2L2289,725.2z M2289,638.3
		c0-43.7-23.7-84.5-69.2-84.5c-48.3,0-68.3,38.1-68.3,87.3c0,49.7,21.4,96.6,65.5,96.6C2267.6,737.7,2289,689.9,2289,638.3z
		 M2414.3,648.5c-0.5,46.4,32.5,89.2,78.5,89.2c21.4,0,47.4-7.9,63.6-20l12.1,22.8c-24.1,17.2-53,26.9-77.1,26.9
		c-72.4,0-120.3-44.6-120.3-126.3c0-80.3,57.6-117,110.1-117c70.6,0,94.3,63.6,89.6,124.5C2570.8,648.5,2414.3,648.5,2414.3,648.5z
		 M2532.7,620.7c0-36.2-15.3-66.9-52-66.9c-44.6,0-62.2,37.2-63.6,66.9H2532.7z M2652.1,558.4c19.1-22.3,46.9-34.4,72.5-34.4
		c36.7,0,59.4,15.3,73.9,34.4c22.3-20.4,53.9-34.4,79.9-34.4c51.6,0,77.5,33.4,78.9,82.7v155.1h-41.8V623.5
		c0-33.4-8.4-66.9-51.1-66.9c-35.3,0-59.4,18.6-59.4,65.5v139.8h-41.8V623.5c0-43.7-18.6-66.9-52.5-66.9c-35.3,0-58,22.7-58,67.3
		v137.9h-41.8V529.7h41.3L2652.1,558.4L2652.1,558.4z M3008.7,453c0-11.6,9.8-24.6,26.5-24.6c16.7,0,26.5,13,26.5,24.6
		c0,12.5-6,28.3-26.5,28.3S3008.7,465.6,3008.7,453z M3056,529.7v232.2h-41.8V529.7C3014.2,529.7,3056,529.7,3056,529.7z
		 M3287.3,743.3c-22.7,16.2-50.1,24.1-70.1,24.1c-110.1,0-124-90.1-124-122.1c0-58,38.6-121.2,125.9-121.2c23.7,0,45,6,62.2,19
		l-13.9,23.7c-13.5-6.5-30.7-12.1-47.8-12.1c-38.1,0-81.3,25.1-81.3,88.2c0,48.3,24.6,93.8,80.8,93.8c20,0,38.6-5.1,56.6-16.7
		L3287.3,743.3L3287.3,743.3z M3580.2,436.8l121.2,325.1h-52l-33.4-95.7h-124l-34.8,95.7h-43.7l132.4-325.1H3580.2L3580.2,436.8z
		 M3605.3,633.7c-16.3-45-32.1-90.1-48.3-148.6h-0.9c-16.7,58.5-33.9,103.6-51.6,148.6H3605.3L3605.3,633.7z M3736.2,761.9V553.8
		H3699v-24.1h37.2v-28.3c0-62.2,41.8-80.8,67.8-80.8c12.1,0,26.5,2.3,36.7,9.8l-9.3,21.4c-7-1.8-13.5-3.2-22.8-3.2
		c-6.9,0-30.7,1.8-30.7,39.5v41.8h55.7v24.1H3778v208.1C3778,761.9,3736.2,761.9,3736.2,761.9z M3873.7,761.9V553.8h-37.2v-24.1
		h37.2v-28.3c0-62.2,41.8-80.8,67.8-80.8c12.1,0,26.5,2.3,36.7,9.8l-9.3,21.4c-7-1.8-13.5-3.2-22.8-3.2c-6.9,0-30.7,1.8-30.7,39.5
		v41.8h55.7v24.1h-55.7v208.1C3915.4,761.9,3873.7,761.9,3873.7,761.9z M4101.1,736.8c-16.2,16.2-36.7,30.7-58,30.7
		c-39,0-65.9-27.9-65.9-71.5c0-40.4,34.4-65.9,82.7-80.3l56.2-17.6c-1.8-28.3-23.7-46.4-46.4-46.4c-26.9,0-44.1,11.1-60.8,25.1
		l-16.2-20.9c23.2-22.3,46.9-31.6,79.4-31.6c34.8,0,85.9,11.1,85.9,78.9v102.2c0,17.6,2.3,40,10.2,56.6h-45.5
		c-5.6-9.8-6.5-24.6-6.5-39.5L4101.1,736.8L4101.1,736.8z M4076.1,637.4c-36.7,11.1-55.7,28.8-55.7,58c0,24.1,16.7,39.5,33.4,39.5
		c29.7,0,67.8-36.7,62.2-109.1L4076.1,637.4z M4207.9,453c0-11.6,9.8-24.6,26.5-24.6c16.7,0,26.5,13,26.5,24.6
		c0,12.5-6,28.3-26.5,28.3S4207.9,465.6,4207.9,453z M4255.3,529.7v232.2h-41.8V529.7C4213.5,529.7,4255.3,529.7,4255.3,529.7z
		 M4353.3,558.4l16.7-17.7c9.8-9.8,25.1-16.7,34.8-16.7c10.2,0,25.5,7.4,38.5,22.7l-19,26.9c-10.2-5.1-20.4-9.8-31.1-9.8
		c-21.4,0-39,21.4-39,72.9v124.9h-41.8V529.6h40.9V558.4L4353.3,558.4z M4583.1,566.8c-16.7-11.1-30.2-14.9-42.7-14.9
		c-14.9,0-33.9,7-33.9,26.5c0,19.5,21.4,29.3,47.8,49.2c29.7,22.7,49.2,41.8,49.2,74.3c0,39-38.5,65.5-81.3,65.5
		c-26.5,0-56.2-11.6-71.5-29.3l20.4-23.7c13.4,12.5,31.6,23.2,50.1,23.2c19.5,0,39.5-10.2,39.5-33c0-26.9-24.1-38.6-46-54.3
		c-26.5-19.1-49.7-34.8-49.7-66.4c0-36.7,36.2-59.9,77.1-59.9c22.7,0,45,9.3,57.1,21.4L4583.1,566.8L4583.1,566.8z M1490.1,1188.9
		c-51.7,0-86.6-47-86.6-115.1c0-62.1,33.9-112,86.6-112c52.7,0,86.6,49.9,86.6,112C1576.7,1141.9,1541.9,1188.9,1490.1,1188.9z
		 M1490.1,990.7c-23.5,0-44.2,23.5-44.2,84.7c0,50.2,14.4,84.7,44.2,84.7c29.5,0,43.9-34.5,43.9-84.7
		C1534.1,1014.5,1513.7,990.7,1490.1,990.7z M1762.6,979.7c-3.4-0.9-5.3-1.9-10.3-1.9c-6.6,0-13.2,3.4-16,10
		c-1.6,3.8-1.9,8.5-1.9,21v19.4h30.4v20.1h-30.4v136.7h-38.3v-136.7h-47.1v136.7h-38.6v-136.7h-22.6v-20.1h22.6v-16.6
		c0-19.8,3.1-30.7,11.6-40.4c8.8-10.3,21.6-16.3,36.4-16.3c11.6,0,16.3,0.6,24.8,4.4l-5.6,20.4c-3.4-0.9-7.2-1.9-10.7-1.9
		c-6.9,0-12.9,3.4-15.7,9.7c-1.9,3.8-2.2,8.8-2.2,21.4v19.4h47.1v-16.6c0-19.8,2.8-30.7,11.6-40.4c8.8-10.3,22.6-16.3,37.3-16.3
		c9.4,0,17.9,1.3,23.9,4.4L1762.6,979.7L1762.6,979.7z M1777.4,979.7c0-12.9,9.4-22.9,21.9-22.9c12.2,0,21.9,10,21.9,22.9
		s-9.7,22.6-21.9,22.6C1786.8,1002.3,1777.4,992.6,1777.4,979.7z M1780.2,1185.1v-156.8h38.6v156.8H1780.2z M1963,1175.7
		c-12.9,8.5-25.4,13.2-43.6,13.2c-41.7,0-72.1-33.5-72.1-81.6c0-48,32.9-82.8,75.3-82.8c16,0,27,4.4,39.2,13.2l-11,19.5
		c-9.1-5.6-14.7-7.2-23.5-7.2c-24.5,0-39.5,19.8-39.5,56.2c0,35.8,15.4,57.4,39.8,57.4c10,0,14.7-2.8,24.5-7.8
		C1952,1155.7,1963,1175.7,1963,1175.7z M2094,1174.5c-16.9,10.7-31.7,14.4-49.9,14.4c-19.8,0-34.5-6.3-46.1-18.2
		c-14.1-14.4-22-37.3-22-67.4c0-26.3,7.5-47.3,21-60.9c11-11.3,25.4-17.9,43.3-17.9c16,0,27.3,4.4,37,14.7
		c11.9,12.9,17.6,34.5,17.6,59.3c0,2.8,0,7.2-0.3,10h-78.7c0.6,37,12.5,54.9,35.7,54.9c10.7,0,22.6-3.1,32.3-9.7L2094,1174.5
		L2094,1174.5z M2061.7,1086c0-25.1-5-41.7-21.6-41.7c-14.7,0-22.6,15.1-23.8,44.8h45.5V1086z M2191.5,1105.5
		c0-37,22-80.9,68.1-80.9s68,43.9,68,80.9c0,43.6-24.5,83.4-68,83.4C2215.6,1188.9,2191.5,1149,2191.5,1105.5z M2287.5,1106.1
		c0-46.1-13.2-61.1-27.9-61.1c-16.7,0-27.9,17.6-27.9,61.1c0,38.6,8.5,62.4,27.9,62.4C2280.6,1168.6,2287.5,1145.3,2287.5,1106.1z
		 M2426.6,979.7c-3.4-0.9-5.6-1.9-10.3-1.9c-7.8,0-13.5,3.8-16.3,10.3c-1.6,3.8-1.6,9.4-1.6,21.6v18.5h30.4v20.1h-30.4v136.7h-38.6
		v-136.7h-22.6v-20.1h22.6v-16.6c0-19.8,3.1-30.7,11.6-40.4c8.8-10.3,22.6-16.3,37.3-16.3c11.6,0,18.2,1.9,23.8,4.4L2426.6,979.7z
		 M2522.9,1185.1V965.6h39.9v219.6H2522.9z M2690.7,1185.1v-89.1c0-13.5,0-29.8-6.9-38.3c-3.7-4.4-9.1-7.2-15.7-7.2
		c-8.5,0-17.6,7.2-20.4,15.7c-2.5,6.9-3.8,15.4-3.8,32.3v86.6h-38.6v-156.8h38.6v21.9c5.3-15.1,20.7-25.7,39.2-25.7
		c13.8,0,23.8,3.8,31,10.3c12.9,11.6,15.1,32.6,15.1,61.1v89.1H2690.7L2690.7,1185.1z M2755.2,1175.7l10-21
		c10,8.5,17.6,11.9,26.7,11.9c11.3,0,20.1-7.8,20.1-21.6c0-10.3-6.3-19.5-22.6-32.3c-14.1-11.3-28.8-23.8-28.8-46.7
		c0-23.8,20.4-41.4,47-41.4c16.3,0,26.7,4.1,37,10l-9.1,19.8c-6.6-4.4-11.9-7.2-20.4-7.2c-9.1,0-16.3,6.6-16.3,16
		c0,10.3,4.7,18.5,18.8,29.8c20.1,16,32,32.6,32,48.6c0,28.5-20.7,47.3-51.8,47.3C2780.6,1188.9,2767.8,1185.1,2755.2,1175.7
		L2755.2,1175.7z M2963.7,1179.2c-12.2,6.3-23.5,9.7-36.7,9.7c-16.6,0-28.8-6.3-35.1-17.9c-5.3-9.7-6.6-17.9-6.6-39.9v-82.8h-18.5
		v-20.1h18.5v-37.9l38.3-9.1v47h34.2v20.1h-34.2v72.8c0,33.5,4.1,44.5,17.6,44.5c5.3,0,10.7-1.6,16.3-5L2963.7,1179.2L2963.7,1179.2
		z M2980.6,979.7c0-12.9,9.4-22.9,21.9-22.9s22.3,10,22.3,22.9s-9.7,22.6-22.3,22.6S2980.6,992.6,2980.6,979.7z M2983.5,1185.1
		v-156.8h38.6v156.8H2983.5z M3143.7,1179.2c-12.2,6.3-23.5,9.7-36.7,9.7c-16.6,0-28.8-6.3-35.1-17.9c-5.3-9.7-6.6-17.9-6.6-39.9
		v-82.8h-18.5v-20.1h18.5v-37.9l38.3-9.1v47h34.2v20.1h-34.2v72.8c0,33.5,4.1,44.5,17.6,44.5c5.3,0,10.7-1.6,16.3-5L3143.7,1179.2
		L3143.7,1179.2z M3245.9,1185.1v-20.7c-4.7,11.3-20.1,24.5-39.9,24.5c-13.5,0-23.8-4.7-30.1-10.3c-11.6-11-15.4-32.6-15.4-61.1
		v-89.1h38.6v88.5c0,13.5,0.3,30.1,7.2,38.6c3.4,4.4,8.2,7.2,15.1,7.2c8.5,0,16.9-6.6,20.7-15.4c2.8-6.9,3.8-17.2,3.8-34.5v-84.3
		h38.6v156.8C3284.5,1185.1,3245.9,1185.1,3245.9,1185.1z M3406.4,1179.2c-12.2,6.3-23.5,9.7-36.7,9.7c-16.6,0-28.8-6.3-35.1-17.9
		c-5.3-9.7-6.6-17.9-6.6-39.9v-82.8h-18.5v-20.1h18.5v-37.9l38.3-9.1v47h34.2v20.1h-34.2v72.8c0,33.5,4.1,44.5,17.6,44.5
		c5.3,0,10.7-1.6,16.3-5L3406.4,1179.2L3406.4,1179.2z M3423.4,979.7c0-12.9,9.4-22.9,21.9-22.9s22.3,10,22.3,22.9
		s-9.7,22.6-22.3,22.6S3423.4,992.6,3423.4,979.7z M3426.2,1185.1v-156.8h38.6v156.8H3426.2z M3494.9,1105.5c0-37,21.9-80.9,68-80.9
		s68.1,43.9,68.1,80.9c0,43.6-24.5,83.4-68.1,83.4C3519,1188.9,3494.9,1149,3494.9,1105.5z M3590.8,1106.1
		c0-46.1-13.2-61.1-27.9-61.1c-16.6,0-27.9,17.6-27.9,61.1c0,38.6,8.5,62.4,27.9,62.4C3583.9,1168.6,3590.8,1145.3,3590.8,1106.1z
		 M3746.9,1185.1v-89.1c0-13.5,0-29.8-6.9-38.3c-3.7-4.4-9.1-7.2-15.7-7.2c-8.5,0-17.6,7.2-20.4,15.7c-2.5,6.9-3.8,15.4-3.8,32.3
		v86.6h-38.6v-156.8h38.6v21.9c5.3-15.1,20.7-25.7,39.2-25.7c13.8,0,23.8,3.8,31,10.3c12.9,11.6,15.1,32.6,15.1,61.1v89.1H3746.9
		L3746.9,1185.1z M3892.7,1185.1c-2.2-8.8-2.5-15.7-2.5-23.2c-6.6,15.7-24.1,27-39.2,27c-23.5,0-38.9-17.6-38.9-44.8
		c0-13.8,5.6-26,15.1-35.4c14.1-13.5,34.5-22.3,52.7-27.3c3.4-0.9,8.8-2.2,11.6-2.8c0-13.8-4.4-30.7-25.7-30.7
		c-13.8,0-22.9,5.3-30.7,13.2l-12.9-19.4c14.1-10.7,32.3-16.9,50.8-16.9c19.1,0,32,5,40.1,14.1c11.3,11.9,14.1,31.7,14.1,57.7v33.3
		c0,23.2,0.9,38.3,5.3,55.5L3892.7,1185.1L3892.7,1185.1z M3882.1,1151.3c7.2-11.6,9.1-28.5,9.1-40.1v-11.3
		c-3.4,0.6-9.7,2.5-15.1,5.3c-14.7,6.6-29.5,17.2-29.5,35.8c0,15.4,8.2,22.6,16.3,22.6S3878.3,1157.3,3882.1,1151.3L3882.1,1151.3z
		 M3964.5,1185.1V954.9h38.6v230.2H3964.5z M4217.3,1188.9l-38.6-94.7h-19.1v90.9h-39.9V965.6h52.4c24.5,0,41.4,5,53.6,15.7
		c11.9,9.7,18.8,24.8,18.8,44.5c0,27.3-13.8,49.2-33.9,60.2l46.4,95.6L4217.3,1188.9L4217.3,1188.9z M4196.9,1001.1
		c-6-6.6-14.4-9.7-27-9.7h-10.3v78.7h11.6c13.5,0,20.1-3.4,25.7-11.3c6.9-9.1,8.5-21.9,8.5-29.8
		C4205.3,1016.7,4202.5,1007.6,4196.9,1001.1L4196.9,1001.1z M4388.5,1174.5c-16.9,10.7-31.7,14.4-49.9,14.4
		c-19.8,0-34.5-6.3-46.1-18.2c-14.1-14.4-21.9-37.3-21.9-67.4c0-26.3,7.5-47.3,21-60.9c11-11.3,25.4-17.9,43.3-17.9
		c16,0,27.3,4.4,37,14.7c11.9,12.9,17.6,34.5,17.6,59.3c0,2.8,0,7.2-0.3,10h-78.7c0.6,37,12.5,54.9,35.7,54.9
		c10.7,0,22.6-3.1,32.3-9.7L4388.5,1174.5L4388.5,1174.5z M4356.2,1086c0-25.1-5-41.7-21.6-41.7c-14.7,0-22.6,15.1-23.8,44.8h45.5
		V1086z M4409.7,1175.7l10-21c10,8.5,17.6,11.9,26.7,11.9c11.3,0,20.1-7.8,20.1-21.6c0-10.3-6.3-19.5-22.6-32.3
		c-14.1-11.3-28.8-23.8-28.8-46.7c0-23.8,20.4-41.4,47-41.4c16.3,0,26.7,4.1,37,10l-9.1,19.8c-6.6-4.4-11.9-7.2-20.4-7.2
		c-9.1,0-16.3,6.6-16.3,16c0,10.3,4.7,18.5,18.8,29.8c20.1,16,32,32.6,32,48.6c0,28.5-20.7,47.3-51.8,47.3
		C4435.2,1188.9,4422.3,1185.1,4409.7,1175.7L4409.7,1175.7z M4642.4,1174.5c-16.9,10.7-31.7,14.4-49.9,14.4
		c-19.8,0-34.5-6.3-46.1-18.2c-14.1-14.4-21.9-37.3-21.9-67.4c0-26.3,7.5-47.3,21-60.9c11-11.3,25.4-17.9,43.3-17.9
		c16,0,27.3,4.4,37,14.7c11.9,12.9,17.6,34.5,17.6,59.3c0,2.8,0,7.2-0.3,10h-78.7c0.6,37,12.5,54.9,35.8,54.9
		c10.7,0,22.6-3.1,32.3-9.7L4642.4,1174.5L4642.4,1174.5z M4610.1,1086c0-25.1-5-41.7-21.6-41.7c-14.7,0-22.6,15.1-23.8,44.8h45.5
		L4610.1,1086L4610.1,1086z M4744.9,1185.1c-2.2-8.8-2.5-15.7-2.5-23.2c-6.6,15.7-24.1,27-39.2,27c-23.5,0-38.9-17.6-38.9-44.8
		c0-13.8,5.6-26,15.1-35.4c14.1-13.5,34.5-22.3,52.7-27.3c3.4-0.9,8.8-2.2,11.6-2.8c0-13.8-4.4-30.7-25.7-30.7
		c-13.8,0-22.9,5.3-30.7,13.2l-12.9-19.4c14.1-10.7,32.3-16.9,50.8-16.9c19.1,0,32,5,40.1,14.1c11.3,11.9,14.1,31.7,14.1,57.7v33.3
		c0,23.2,0.9,38.3,5.3,55.5L4744.9,1185.1L4744.9,1185.1z M4734.3,1151.3c7.2-11.6,9.1-28.5,9.1-40.1v-11.3
		c-3.4,0.6-9.7,2.5-15.1,5.3c-14.7,6.6-29.5,17.2-29.5,35.8c0,15.4,8.2,22.6,16.3,22.6C4723.3,1163.5,4730.5,1157.3,4734.3,1151.3
		L4734.3,1151.3z M4898.9,1065c-6.3-4.7-12.2-6-18.2-6c-14.1,0-21,15.1-23.2,29.8c-0.9,9.1-1.3,16.3-1.3,32.9v63.3h-38.6v-156.8
		h38.6v26.3c0.6-2.2,1.3-4.7,1.9-6c3.8-11.6,13.5-24.1,26.7-24.1c8.8,0,18.2,5,26.7,12.9L4898.9,1065L4898.9,1065z M5029.3,1175.7
		c-12.9,8.5-25.4,13.2-43.6,13.2c-41.7,0-72.1-33.5-72.1-81.6c0-48,32.9-82.8,75.3-82.8c16,0,27,4.4,39.2,13.2l-11,19.5
		c-9.1-5.6-14.7-7.2-23.5-7.2c-24.5,0-39.5,19.8-39.5,56.2c0,35.8,15.4,57.4,39.9,57.4c10,0,14.7-2.8,24.5-7.8L5029.3,1175.7
		L5029.3,1175.7z M5138.7,1185.1v-89.4c0-11.3,0-29.5-6.9-38c-3.7-4.4-8.8-7.2-15.4-7.2c-8.5,0-16.9,6.9-20.7,15.7
		c-2.8,6.9-3.8,15.1-3.8,32v86.9h-38.6V954.9h38.6v94.7c4.7-12.2,19.4-25.1,39.2-25.1c13.5,0,23.5,3.4,30.7,10
		c12.2,11.6,15.4,32.9,15.4,61.5v89.1H5138.7z M5358.5,1185.1c-2.2-8.8-2.5-15.7-2.5-23.2c-6.6,15.7-24.1,27-39.2,27
		c-23.5,0-38.9-17.6-38.9-44.8c0-13.8,5.6-26,15.1-35.4c14.1-13.5,34.5-22.3,52.7-27.3c3.4-0.9,8.8-2.2,11.6-2.8
		c0-13.8-4.4-30.7-25.7-30.7c-13.8,0-22.9,5.3-30.7,13.2l-12.9-19.4c14.1-10.7,32.3-16.9,50.8-16.9c19.1,0,32,5,40.1,14.1
		c11.3,11.9,14.1,31.7,14.1,57.7v33.3c0,23.2,0.9,38.3,5.3,55.5L5358.5,1185.1L5358.5,1185.1z M5347.9,1151.3
		c7.2-11.6,9.1-28.5,9.1-40.1v-11.3c-3.4,0.6-9.7,2.5-15.1,5.3c-14.7,6.6-29.5,17.2-29.5,35.8c0,15.4,8.2,22.6,16.3,22.6
		C5336.9,1163.5,5344.1,1157.3,5347.9,1151.3L5347.9,1151.3z M5515.6,1185.1v-89.1c0-13.5,0-29.8-6.9-38.3
		c-3.8-4.4-9.1-7.2-15.7-7.2c-8.5,0-17.6,7.2-20.4,15.7c-2.5,6.9-3.8,15.4-3.8,32.3v86.6h-38.6v-156.8h38.6v21.9
		c5.3-15.1,20.7-25.7,39.2-25.7c13.8,0,23.8,3.8,31,10.3c12.9,11.6,15.1,32.6,15.1,61.1v89.1H5515.6L5515.6,1185.1z M5677.7,1185.1
		V1167c-7.8,16.6-21.3,21.9-34.8,21.9c-42.6,0-60.5-45.2-60.5-82.2c0-50.2,24.8-82.2,57.4-82.2c18.5,0,30.1,5.3,37.9,20.1v-89.7
		h38.6v230.2L5677.7,1185.1L5677.7,1185.1z M5678,1106.1c0-38.3-8.2-59-27.6-59c-17.2,0-26.7,18.8-26.7,59c0,43.6,11,60.2,27,60.2
		C5668.3,1166.4,5678,1147.8,5678,1106.1L5678,1106.1z M5934.2,1185.1l-14.1-62.1h-59.9l-16.9,62.1h-34.2l70.3-219.6h35.8
		l62.4,219.6L5934.2,1185.1L5934.2,1185.1z M5892.8,1006.4l-26.7,93.7h48.6L5892.8,1006.4L5892.8,1006.4z M5984.3,1175.7l10-21
		c10,8.5,17.6,11.9,26.7,11.9c11.3,0,20.1-7.8,20.1-21.6c0-10.3-6.3-19.5-22.6-32.3c-14.1-11.3-28.8-23.8-28.8-46.7
		c0-23.8,20.4-41.4,47-41.4c16.3,0,26.7,4.1,37,10l-9.1,19.8c-6.6-4.4-11.9-7.2-20.4-7.2c-9.1,0-16.3,6.6-16.3,16
		c0,10.3,4.7,18.5,18.8,29.8c20.1,16,32,32.6,32,48.6c0,28.5-20.7,47.3-51.8,47.3C6009.8,1188.9,5996.9,1185.1,5984.3,1175.7
		L5984.3,1175.7z M6096.9,1175.7l10-21c10,8.5,17.6,11.9,26.7,11.9c11.3,0,20.1-7.8,20.1-21.6c0-10.3-6.3-19.5-22.6-32.3
		c-14.1-11.3-28.8-23.8-28.8-46.7c0-23.8,20.4-41.4,47-41.4c16.3,0,26.7,4.1,37,10l-9.1,19.8c-6.6-4.4-11.9-7.2-20.4-7.2
		c-9.1,0-16.3,6.6-16.3,16c0,10.3,4.7,18.5,18.8,29.8c20.1,16,32,32.6,32,48.6c0,28.5-20.7,47.3-51.7,47.3
		C6122.3,1188.9,6109.5,1185.1,6096.9,1175.7L6096.9,1175.7z M6329.5,1174.5c-16.9,10.7-31.7,14.4-49.9,14.4
		c-19.8,0-34.5-6.3-46.1-18.2c-14.1-14.4-22-37.3-22-67.4c0-26.3,7.5-47.3,21-60.9c11-11.3,25.4-17.9,43.3-17.9
		c16,0,27.3,4.4,37,14.7c11.9,12.9,17.6,34.5,17.6,59.3c0,2.8,0,7.2-0.3,10h-78.7c0.6,37,12.5,54.9,35.8,54.9
		c10.7,0,22.6-3.1,32.3-9.7L6329.5,1174.5L6329.5,1174.5z M6297.2,1086c0-25.1-5-41.7-21.6-41.7c-14.7,0-22.6,15.1-23.8,44.8h45.5
		L6297.2,1086L6297.2,1086z M6350.9,1175.7l10-21c10,8.5,17.6,11.9,26.7,11.9c11.3,0,20.1-7.8,20.1-21.6c0-10.3-6.3-19.5-22.6-32.3
		c-14.1-11.3-28.8-23.8-28.8-46.7c0-23.8,20.4-41.4,47-41.4c16.3,0,26.7,4.1,37,10l-9.1,19.8c-6.6-4.4-11.9-7.2-20.4-7.2
		c-9.1,0-16.3,6.6-16.3,16c0,10.3,4.7,18.5,18.8,29.8c20.1,16,32,32.6,32,48.6c0,28.5-20.7,47.3-51.7,47.3
		C6376.3,1188.9,6363.4,1185.1,6350.9,1175.7L6350.9,1175.7z M6463.4,1175.7l10-21c10,8.5,17.6,11.9,26.7,11.9
		c11.3,0,20.1-7.8,20.1-21.6c0-10.3-6.3-19.5-22.6-32.3c-14.1-11.3-28.8-23.8-28.8-46.7c0-23.8,20.4-41.4,47-41.4
		c16.3,0,26.7,4.1,37,10l-9.1,19.8c-6.6-4.4-11.9-7.2-20.4-7.2c-9.1,0-16.3,6.6-16.3,16c0,10.3,4.7,18.5,18.8,29.8
		c20.1,16,32,32.6,32,48.6c0,28.5-20.7,47.3-51.7,47.3C6488.8,1188.9,6476,1185.1,6463.4,1175.7L6463.4,1175.7z M6752.9,1185.1
		v-89.1c0-19.8-1.6-33.5-7.5-40.4c-2.9-3.1-6.6-4.7-11.6-4.7c-6.3,0-11.3,2.2-15.1,6.3c-7.5,8.5-9.7,23.8-9.7,39.5v88.4h-38.6V1097
		c0-15.1-0.6-32.6-6.9-41.1c-2.8-3.1-6.3-5-11.6-5c-6,0-10.3,2.2-13.8,6c-10.3,10-11.6,28.2-11.6,40.4v87.8h-38.6v-156.8h38.6v21.3
		c9.4-18.2,25.7-25.1,38.6-25.1c19.8,0,32.3,8.5,38.3,27.6c7.5-12.5,19.8-27.6,40.8-27.6c17.2,0,34.5,6,43,27.9
		c3.4,9.7,4.4,23.2,4.4,40.4v92.2L6752.9,1185.1L6752.9,1185.1z M6937.5,1174.5c-16.9,10.7-31.7,14.4-49.9,14.4
		c-19.8,0-34.5-6.3-46.1-18.2c-14.1-14.4-22-37.3-22-67.4c0-26.3,7.5-47.3,21-60.9c11-11.3,25.4-17.9,43.3-17.9
		c16,0,27.3,4.4,37,14.7c11.9,12.9,17.6,34.5,17.6,59.3c0,2.8,0,7.2-0.3,10h-78.7c0.6,37,12.5,54.9,35.7,54.9
		c10.7,0,22.6-3.1,32.3-9.7L6937.5,1174.5L6937.5,1174.5z M6905.2,1086c0-25.1-5-41.7-21.6-41.7c-14.7,0-22.6,15.1-23.8,44.8h45.5
		L6905.2,1086L6905.2,1086z M7056,1185.1v-89.1c0-13.5,0-29.8-6.9-38.3c-3.7-4.4-9.1-7.2-15.7-7.2c-8.5,0-17.6,7.2-20.4,15.7
		c-2.5,6.9-3.8,15.4-3.8,32.3v86.6h-38.6v-156.8h38.6v21.9c5.3-15.1,20.7-25.7,39.2-25.7c13.8,0,23.8,3.8,31,10.3
		c12.9,11.6,15.1,32.6,15.1,61.1v89.1H7056L7056,1185.1z M7214.3,1179.2c-12.2,6.3-23.5,9.7-36.7,9.7c-16.6,0-28.8-6.3-35.1-17.9
		c-5.3-9.7-6.6-17.9-6.6-39.9v-82.8h-18.5v-20.1h18.5v-37.9l38.3-9.1v47h34.2v20.1h-34.2v72.8c0,33.5,4.1,44.5,17.6,44.5
		c5.3,0,10.7-1.6,16.3-5L7214.3,1179.2L7214.3,1179.2z"/>
</g>
</svg>
